<mxfile host="65bd71144e">
    <diagram name="Page-1" id="LjcHZ-0eN_qALNn_VBuD">
        <mxGraphModel dx="1881" dy="1739" grid="1" gridSize="10" guides="1" tooltips="1" connect="1" arrows="1" fold="1" page="1" pageScale="1" pageWidth="850" pageHeight="1100" math="1" shadow="0">
            <root>
                <mxCell id="0"/>
                <mxCell id="1" parent="0"/>
                <mxCell id="r6bQSOe-YMrcuQpotWMZ-1" value="\(t_0\)" style="rounded=0;whiteSpace=wrap;html=1;fillColor=#dae8fc;strokeColor=#6c8ebf;" parent="1" vertex="1">
                    <mxGeometry x="140" y="160" width="30" height="30" as="geometry"/>
                </mxCell>
                <mxCell id="r6bQSOe-YMrcuQpotWMZ-2" value="\(t_1\)" style="rounded=0;whiteSpace=wrap;html=1;fillColor=#dae8fc;strokeColor=#6c8ebf;" parent="1" vertex="1">
                    <mxGeometry x="170" y="160" width="30" height="30" as="geometry"/>
                </mxCell>
                <mxCell id="r6bQSOe-YMrcuQpotWMZ-3" value="\(\ldots\)" style="rounded=0;whiteSpace=wrap;html=1;fillColor=#dae8fc;strokeColor=#6c8ebf;" parent="1" vertex="1">
                    <mxGeometry x="200" y="160" width="30" height="30" as="geometry"/>
                </mxCell>
                <mxCell id="r6bQSOe-YMrcuQpotWMZ-4" value="\(t_{22}\)" style="rounded=0;whiteSpace=wrap;html=1;fillColor=#dae8fc;strokeColor=#6c8ebf;" parent="1" vertex="1">
                    <mxGeometry x="230" y="160" width="30" height="30" as="geometry"/>
                </mxCell>
                <mxCell id="r6bQSOe-YMrcuQpotWMZ-5" value="\(t_{23}\)" style="rounded=0;whiteSpace=wrap;html=1;fillColor=#dae8fc;strokeColor=#6c8ebf;" parent="1" vertex="1">
                    <mxGeometry x="260" y="160" width="30" height="30" as="geometry"/>
                </mxCell>
                <mxCell id="r6bQSOe-YMrcuQpotWMZ-6" value="\(t_{24}\)" style="rounded=0;whiteSpace=wrap;html=1;fillColor=#f8cecc;strokeColor=#b85450;" parent="1" vertex="1">
                    <mxGeometry x="290" y="160" width="30" height="30" as="geometry"/>
                </mxCell>
                <mxCell id="r6bQSOe-YMrcuQpotWMZ-7" value="\(t_{25}\)" style="rounded=0;whiteSpace=wrap;html=1;fillColor=#f8cecc;strokeColor=#b85450;" parent="1" vertex="1">
                    <mxGeometry x="320" y="160" width="30" height="30" as="geometry"/>
                </mxCell>
                <mxCell id="r6bQSOe-YMrcuQpotWMZ-8" value="\(\ldots\)" style="rounded=0;whiteSpace=wrap;html=1;fillColor=#f8cecc;strokeColor=#b85450;" parent="1" vertex="1">
                    <mxGeometry x="350" y="160" width="30" height="30" as="geometry"/>
                </mxCell>
                <mxCell id="r6bQSOe-YMrcuQpotWMZ-9" value="\(t_{46}\)" style="rounded=0;whiteSpace=wrap;html=1;fillColor=#f8cecc;strokeColor=#b85450;" parent="1" vertex="1">
                    <mxGeometry x="380" y="160" width="30" height="30" as="geometry"/>
                </mxCell>
                <mxCell id="r6bQSOe-YMrcuQpotWMZ-10" value="\(t_{47}\)" style="rounded=0;whiteSpace=wrap;html=1;fillColor=#f8cecc;strokeColor=#b85450;" parent="1" vertex="1">
                    <mxGeometry x="410" y="160" width="30" height="30" as="geometry"/>
                </mxCell>
                <mxCell id="r6bQSOe-YMrcuQpotWMZ-11" value="\(t_1\)" style="rounded=0;whiteSpace=wrap;html=1;fillColor=#dae8fc;strokeColor=#6c8ebf;" parent="1" vertex="1">
                    <mxGeometry x="170" y="200" width="30" height="30" as="geometry"/>
                </mxCell>
                <mxCell id="r6bQSOe-YMrcuQpotWMZ-12" value="\(t_2\)" style="rounded=0;whiteSpace=wrap;html=1;fillColor=#dae8fc;strokeColor=#6c8ebf;" parent="1" vertex="1">
                    <mxGeometry x="200" y="200" width="30" height="30" as="geometry"/>
                </mxCell>
                <mxCell id="r6bQSOe-YMrcuQpotWMZ-13" value="\(\ldots\)" style="rounded=0;whiteSpace=wrap;html=1;fillColor=#dae8fc;strokeColor=#6c8ebf;" parent="1" vertex="1">
                    <mxGeometry x="230" y="200" width="30" height="30" as="geometry"/>
                </mxCell>
                <mxCell id="r6bQSOe-YMrcuQpotWMZ-14" value="\(t_{23}\)" style="rounded=0;whiteSpace=wrap;html=1;fillColor=#dae8fc;strokeColor=#6c8ebf;" parent="1" vertex="1">
                    <mxGeometry x="260" y="200" width="30" height="30" as="geometry"/>
                </mxCell>
                <mxCell id="r6bQSOe-YMrcuQpotWMZ-15" value="\(t_{24}\)" style="rounded=0;whiteSpace=wrap;html=1;fillColor=#dae8fc;strokeColor=#6c8ebf;" parent="1" vertex="1">
                    <mxGeometry x="290" y="200" width="30" height="30" as="geometry"/>
                </mxCell>
                <mxCell id="r6bQSOe-YMrcuQpotWMZ-16" value="\(t_{25}\)" style="rounded=0;whiteSpace=wrap;html=1;fillColor=#f8cecc;strokeColor=#b85450;" parent="1" vertex="1">
                    <mxGeometry x="320" y="200" width="30" height="30" as="geometry"/>
                </mxCell>
                <mxCell id="r6bQSOe-YMrcuQpotWMZ-17" value="\(t_{26}\)" style="rounded=0;whiteSpace=wrap;html=1;fillColor=#f8cecc;strokeColor=#b85450;" parent="1" vertex="1">
                    <mxGeometry x="350" y="200" width="30" height="30" as="geometry"/>
                </mxCell>
                <mxCell id="r6bQSOe-YMrcuQpotWMZ-18" value="\(\ldots\)" style="rounded=0;whiteSpace=wrap;html=1;fillColor=#f8cecc;strokeColor=#b85450;" parent="1" vertex="1">
                    <mxGeometry x="380" y="200" width="30" height="30" as="geometry"/>
                </mxCell>
                <mxCell id="r6bQSOe-YMrcuQpotWMZ-19" value="\(t_{47}\)" style="rounded=0;whiteSpace=wrap;html=1;fillColor=#f8cecc;strokeColor=#b85450;" parent="1" vertex="1">
                    <mxGeometry x="410" y="200" width="30" height="30" as="geometry"/>
                </mxCell>
                <mxCell id="r6bQSOe-YMrcuQpotWMZ-20" value="\(t_{48}\)" style="rounded=0;whiteSpace=wrap;html=1;fillColor=#f8cecc;strokeColor=#b85450;" parent="1" vertex="1">
                    <mxGeometry x="440" y="200" width="30" height="30" as="geometry"/>
                </mxCell>
                <mxCell id="r6bQSOe-YMrcuQpotWMZ-21" value="\(t_2\)" style="rounded=0;whiteSpace=wrap;html=1;fillColor=#dae8fc;strokeColor=#6c8ebf;" parent="1" vertex="1">
                    <mxGeometry x="200" y="240" width="30" height="30" as="geometry"/>
                </mxCell>
                <mxCell id="r6bQSOe-YMrcuQpotWMZ-22" value="\(t_3\)" style="rounded=0;whiteSpace=wrap;html=1;fillColor=#dae8fc;strokeColor=#6c8ebf;" parent="1" vertex="1">
                    <mxGeometry x="230" y="240" width="30" height="30" as="geometry"/>
                </mxCell>
                <mxCell id="r6bQSOe-YMrcuQpotWMZ-23" value="\(\ldots\)" style="rounded=0;whiteSpace=wrap;html=1;fillColor=#dae8fc;strokeColor=#6c8ebf;" parent="1" vertex="1">
                    <mxGeometry x="260" y="240" width="30" height="30" as="geometry"/>
                </mxCell>
                <mxCell id="r6bQSOe-YMrcuQpotWMZ-24" value="\(t_{24}\)" style="rounded=0;whiteSpace=wrap;html=1;fillColor=#dae8fc;strokeColor=#6c8ebf;" parent="1" vertex="1">
                    <mxGeometry x="290" y="240" width="30" height="30" as="geometry"/>
                </mxCell>
                <mxCell id="r6bQSOe-YMrcuQpotWMZ-25" value="\(t_{25}\)" style="rounded=0;whiteSpace=wrap;html=1;fillColor=#dae8fc;strokeColor=#6c8ebf;" parent="1" vertex="1">
                    <mxGeometry x="320" y="240" width="30" height="30" as="geometry"/>
                </mxCell>
                <mxCell id="r6bQSOe-YMrcuQpotWMZ-26" value="\(t_{26}\)" style="rounded=0;whiteSpace=wrap;html=1;fillColor=#f8cecc;strokeColor=#b85450;" parent="1" vertex="1">
                    <mxGeometry x="350" y="240" width="30" height="30" as="geometry"/>
                </mxCell>
                <mxCell id="r6bQSOe-YMrcuQpotWMZ-27" value="\(t_{27}\)" style="rounded=0;whiteSpace=wrap;html=1;fillColor=#f8cecc;strokeColor=#b85450;" parent="1" vertex="1">
                    <mxGeometry x="380" y="240" width="30" height="30" as="geometry"/>
                </mxCell>
                <mxCell id="r6bQSOe-YMrcuQpotWMZ-28" value="\(\ldots\)" style="rounded=0;whiteSpace=wrap;html=1;fillColor=#f8cecc;strokeColor=#b85450;" parent="1" vertex="1">
                    <mxGeometry x="410" y="240" width="30" height="30" as="geometry"/>
                </mxCell>
                <mxCell id="r6bQSOe-YMrcuQpotWMZ-29" value="\(t_{48}\)" style="rounded=0;whiteSpace=wrap;html=1;fillColor=#f8cecc;strokeColor=#b85450;" parent="1" vertex="1">
                    <mxGeometry x="440" y="240" width="30" height="30" as="geometry"/>
                </mxCell>
                <mxCell id="r6bQSOe-YMrcuQpotWMZ-30" value="\(t_{49}\)" style="rounded=0;whiteSpace=wrap;html=1;fillColor=#f8cecc;strokeColor=#b85450;" parent="1" vertex="1">
                    <mxGeometry x="470" y="240" width="30" height="30" as="geometry"/>
                </mxCell>
                <mxCell id="r6bQSOe-YMrcuQpotWMZ-31" value="" style="shape=waypoint;sketch=0;fillStyle=solid;size=6;pointerEvents=1;points=[];fillColor=none;resizable=0;rotatable=0;perimeter=centerPerimeter;snapToPoint=1;" parent="1" vertex="1">
                    <mxGeometry x="340" y="280" width="20" height="20" as="geometry"/>
                </mxCell>
                <mxCell id="r6bQSOe-YMrcuQpotWMZ-32" value="" style="shape=waypoint;sketch=0;fillStyle=solid;size=6;pointerEvents=1;points=[];fillColor=none;resizable=0;rotatable=0;perimeter=centerPerimeter;snapToPoint=1;" parent="1" vertex="1">
                    <mxGeometry x="360" y="300" width="20" height="20" as="geometry"/>
                </mxCell>
                <mxCell id="r6bQSOe-YMrcuQpotWMZ-33" value="" style="shape=waypoint;sketch=0;fillStyle=solid;size=6;pointerEvents=1;points=[];fillColor=none;resizable=0;rotatable=0;perimeter=centerPerimeter;snapToPoint=1;" parent="1" vertex="1">
                    <mxGeometry x="380" y="320" width="20" height="20" as="geometry"/>
                </mxCell>
                <mxCell id="r6bQSOe-YMrcuQpotWMZ-43" value="\(t_{12284}\)" style="rounded=0;whiteSpace=wrap;html=1;fillColor=#f8cecc;strokeColor=#b85450;" parent="1" vertex="1">
                    <mxGeometry x="590" y="360" width="40" height="30" as="geometry"/>
                </mxCell>
                <mxCell id="r6bQSOe-YMrcuQpotWMZ-44" value="\(t_{12283}\)" style="rounded=0;whiteSpace=wrap;html=1;fillColor=#f8cecc;strokeColor=#b85450;" parent="1" vertex="1">
                    <mxGeometry x="550" y="360" width="40" height="30" as="geometry"/>
                </mxCell>
                <mxCell id="r6bQSOe-YMrcuQpotWMZ-45" value="\(\ldots\)" style="rounded=0;whiteSpace=wrap;html=1;fillColor=#f8cecc;strokeColor=#b85450;" parent="1" vertex="1">
                    <mxGeometry x="510" y="360" width="40" height="30" as="geometry"/>
                </mxCell>
                <mxCell id="r6bQSOe-YMrcuQpotWMZ-46" value="\(t_{12261}\)" style="rounded=0;whiteSpace=wrap;html=1;fillColor=#f8cecc;strokeColor=#b85450;" parent="1" vertex="1">
                    <mxGeometry x="430" y="360" width="40" height="30" as="geometry"/>
                </mxCell>
                <mxCell id="r6bQSOe-YMrcuQpotWMZ-47" value="\(t_{12262}\)" style="rounded=0;whiteSpace=wrap;html=1;fillColor=#f8cecc;strokeColor=#b85450;" parent="1" vertex="1">
                    <mxGeometry x="470" y="360" width="40" height="30" as="geometry"/>
                </mxCell>
                <mxCell id="r6bQSOe-YMrcuQpotWMZ-48" value="\(t_{12260}\)" style="rounded=0;whiteSpace=wrap;html=1;fillColor=#dae8fc;strokeColor=#6c8ebf;" parent="1" vertex="1">
                    <mxGeometry x="390" y="360" width="40" height="30" as="geometry"/>
                </mxCell>
                <mxCell id="r6bQSOe-YMrcuQpotWMZ-49" value="\(t_{12259}\)" style="rounded=0;whiteSpace=wrap;html=1;fillColor=#dae8fc;strokeColor=#6c8ebf;" parent="1" vertex="1">
                    <mxGeometry x="350" y="360" width="40" height="30" as="geometry"/>
                </mxCell>
                <mxCell id="r6bQSOe-YMrcuQpotWMZ-50" value="\(\ldots\)" style="rounded=0;whiteSpace=wrap;html=1;fillColor=#dae8fc;strokeColor=#6c8ebf;" parent="1" vertex="1">
                    <mxGeometry x="310" y="360" width="40" height="30" as="geometry"/>
                </mxCell>
                <mxCell id="r6bQSOe-YMrcuQpotWMZ-51" value="\(t_{12237}\)" style="rounded=0;whiteSpace=wrap;html=1;fillColor=#dae8fc;strokeColor=#6c8ebf;" parent="1" vertex="1">
                    <mxGeometry x="230" y="360" width="40" height="30" as="geometry"/>
                </mxCell>
                <mxCell id="r6bQSOe-YMrcuQpotWMZ-52" value="\(t_{12238}\)" style="rounded=0;whiteSpace=wrap;html=1;fillColor=#dae8fc;strokeColor=#6c8ebf;" parent="1" vertex="1">
                    <mxGeometry x="270" y="360" width="40" height="30" as="geometry"/>
                </mxCell>
                <mxCell id="r6bQSOe-YMrcuQpotWMZ-53" value="Data window #1" style="text;html=1;strokeColor=none;fillColor=none;align=center;verticalAlign=middle;whiteSpace=wrap;rounded=0;" parent="1" vertex="1">
                    <mxGeometry x="30" y="160" width="100" height="30" as="geometry"/>
                </mxCell>
                <mxCell id="r6bQSOe-YMrcuQpotWMZ-54" value="Data window #2" style="text;html=1;strokeColor=none;fillColor=none;align=center;verticalAlign=middle;whiteSpace=wrap;rounded=0;" parent="1" vertex="1">
                    <mxGeometry x="30" y="200" width="100" height="30" as="geometry"/>
                </mxCell>
                <mxCell id="r6bQSOe-YMrcuQpotWMZ-55" value="Data window #3" style="text;html=1;strokeColor=none;fillColor=none;align=center;verticalAlign=middle;whiteSpace=wrap;rounded=0;" parent="1" vertex="1">
                    <mxGeometry x="30" y="240" width="100" height="30" as="geometry"/>
                </mxCell>
                <mxCell id="r6bQSOe-YMrcuQpotWMZ-56" value="Data window #(12285-48)+1&lt;br&gt;= 12238" style="text;html=1;strokeColor=none;fillColor=none;align=center;verticalAlign=middle;whiteSpace=wrap;rounded=0;" parent="1" vertex="1">
                    <mxGeometry x="30" y="360" width="100" height="30" as="geometry"/>
                </mxCell>
                <mxCell id="r6bQSOe-YMrcuQpotWMZ-57" value="" style="shape=flexArrow;endArrow=classic;html=1;rounded=0;width=28.333333333333332;endSize=14.980555555555554;endWidth=45.01133786848072;" parent="1" edge="1">
                    <mxGeometry width="50" height="50" relative="1" as="geometry">
                        <mxPoint x="580" y="200" as="sourcePoint"/>
                        <mxPoint x="680" y="200" as="targetPoint"/>
                    </mxGeometry>
                </mxCell>
                <mxCell id="r6bQSOe-YMrcuQpotWMZ-58" value="Batch #1&lt;br&gt;batch size = 32" style="text;html=1;strokeColor=none;fillColor=none;align=center;verticalAlign=middle;whiteSpace=wrap;rounded=0;" parent="1" vertex="1">
                    <mxGeometry x="680" y="120" width="100" height="30" as="geometry"/>
                </mxCell>
                <mxCell id="r6bQSOe-YMrcuQpotWMZ-69" value="" style="rounded=0;whiteSpace=wrap;html=1;fillColor=#dae8fc;strokeColor=#6c8ebf;" parent="1" vertex="1">
                    <mxGeometry x="810" y="80" width="150" height="20" as="geometry"/>
                </mxCell>
                <mxCell id="r6bQSOe-YMrcuQpotWMZ-70" value="" style="rounded=0;whiteSpace=wrap;html=1;fillColor=#f8cecc;strokeColor=#b85450;" parent="1" vertex="1">
                    <mxGeometry x="960" y="80" width="150" height="20" as="geometry"/>
                </mxCell>
                <mxCell id="r6bQSOe-YMrcuQpotWMZ-71" value="Data Window #1" style="text;html=1;strokeColor=none;fillColor=none;align=center;verticalAlign=middle;whiteSpace=wrap;rounded=0;" parent="1" vertex="1">
                    <mxGeometry x="900" y="80" width="120" height="20" as="geometry"/>
                </mxCell>
                <mxCell id="r6bQSOe-YMrcuQpotWMZ-78" value="" style="rounded=0;whiteSpace=wrap;html=1;fillColor=#dae8fc;strokeColor=#6c8ebf;" parent="1" vertex="1">
                    <mxGeometry x="810" y="110" width="150" height="20" as="geometry"/>
                </mxCell>
                <mxCell id="r6bQSOe-YMrcuQpotWMZ-79" value="" style="rounded=0;whiteSpace=wrap;html=1;fillColor=#f8cecc;strokeColor=#b85450;" parent="1" vertex="1">
                    <mxGeometry x="960" y="110" width="150" height="20" as="geometry"/>
                </mxCell>
                <mxCell id="r6bQSOe-YMrcuQpotWMZ-80" value="Data Window #1" style="text;html=1;strokeColor=none;fillColor=none;align=center;verticalAlign=middle;whiteSpace=wrap;rounded=0;" parent="1" vertex="1">
                    <mxGeometry x="900" y="110" width="120" height="20" as="geometry"/>
                </mxCell>
                <mxCell id="r6bQSOe-YMrcuQpotWMZ-81" value="" style="rounded=0;whiteSpace=wrap;html=1;fillColor=#dae8fc;strokeColor=#6c8ebf;" parent="1" vertex="1">
                    <mxGeometry x="810" y="170" width="150" height="20" as="geometry"/>
                </mxCell>
                <mxCell id="r6bQSOe-YMrcuQpotWMZ-82" value="" style="rounded=0;whiteSpace=wrap;html=1;fillColor=#f8cecc;strokeColor=#b85450;" parent="1" vertex="1">
                    <mxGeometry x="960" y="170" width="150" height="20" as="geometry"/>
                </mxCell>
                <mxCell id="r6bQSOe-YMrcuQpotWMZ-83" value="Data Window #32" style="text;html=1;strokeColor=none;fillColor=none;align=center;verticalAlign=middle;whiteSpace=wrap;rounded=0;" parent="1" vertex="1">
                    <mxGeometry x="900" y="170" width="120" height="20" as="geometry"/>
                </mxCell>
                <mxCell id="r6bQSOe-YMrcuQpotWMZ-84" value="\(\vdots\)" style="text;html=1;strokeColor=none;fillColor=none;align=center;verticalAlign=middle;whiteSpace=wrap;rounded=0;" parent="1" vertex="1">
                    <mxGeometry x="900" y="140" width="120" height="20" as="geometry"/>
                </mxCell>
                <mxCell id="r6bQSOe-YMrcuQpotWMZ-85" value="" style="shape=curlyBracket;whiteSpace=wrap;html=1;rounded=1;labelPosition=left;verticalLabelPosition=middle;align=right;verticalAlign=middle;" parent="1" vertex="1">
                    <mxGeometry x="780" y="80" width="20" height="110" as="geometry"/>
                </mxCell>
                <mxCell id="r6bQSOe-YMrcuQpotWMZ-86" value="" style="rounded=0;whiteSpace=wrap;html=1;fillColor=#dae8fc;strokeColor=#6c8ebf;" parent="1" vertex="1">
                    <mxGeometry x="810" y="220" width="150" height="20" as="geometry"/>
                </mxCell>
                <mxCell id="r6bQSOe-YMrcuQpotWMZ-87" value="" style="rounded=0;whiteSpace=wrap;html=1;fillColor=#f8cecc;strokeColor=#b85450;" parent="1" vertex="1">
                    <mxGeometry x="960" y="220" width="150" height="20" as="geometry"/>
                </mxCell>
                <mxCell id="r6bQSOe-YMrcuQpotWMZ-88" value="Data Window #33" style="text;html=1;strokeColor=none;fillColor=none;align=center;verticalAlign=middle;whiteSpace=wrap;rounded=0;" parent="1" vertex="1">
                    <mxGeometry x="900" y="220" width="120" height="20" as="geometry"/>
                </mxCell>
                <mxCell id="r6bQSOe-YMrcuQpotWMZ-89" value="" style="rounded=0;whiteSpace=wrap;html=1;fillColor=#dae8fc;strokeColor=#6c8ebf;" parent="1" vertex="1">
                    <mxGeometry x="810" y="250" width="150" height="20" as="geometry"/>
                </mxCell>
                <mxCell id="r6bQSOe-YMrcuQpotWMZ-90" value="" style="rounded=0;whiteSpace=wrap;html=1;fillColor=#f8cecc;strokeColor=#b85450;" parent="1" vertex="1">
                    <mxGeometry x="960" y="250" width="150" height="20" as="geometry"/>
                </mxCell>
                <mxCell id="r6bQSOe-YMrcuQpotWMZ-91" value="Data Window #34" style="text;html=1;strokeColor=none;fillColor=none;align=center;verticalAlign=middle;whiteSpace=wrap;rounded=0;" parent="1" vertex="1">
                    <mxGeometry x="900" y="250" width="120" height="20" as="geometry"/>
                </mxCell>
                <mxCell id="r6bQSOe-YMrcuQpotWMZ-92" value="" style="rounded=0;whiteSpace=wrap;html=1;fillColor=#dae8fc;strokeColor=#6c8ebf;" parent="1" vertex="1">
                    <mxGeometry x="810" y="310" width="150" height="20" as="geometry"/>
                </mxCell>
                <mxCell id="r6bQSOe-YMrcuQpotWMZ-93" value="" style="rounded=0;whiteSpace=wrap;html=1;fillColor=#f8cecc;strokeColor=#b85450;" parent="1" vertex="1">
                    <mxGeometry x="960" y="310" width="150" height="20" as="geometry"/>
                </mxCell>
                <mxCell id="r6bQSOe-YMrcuQpotWMZ-94" value="Data Window #64" style="text;html=1;strokeColor=none;fillColor=none;align=center;verticalAlign=middle;whiteSpace=wrap;rounded=0;" parent="1" vertex="1">
                    <mxGeometry x="900" y="310" width="120" height="20" as="geometry"/>
                </mxCell>
                <mxCell id="r6bQSOe-YMrcuQpotWMZ-95" value="\(\vdots\)" style="text;html=1;strokeColor=none;fillColor=none;align=center;verticalAlign=middle;whiteSpace=wrap;rounded=0;" parent="1" vertex="1">
                    <mxGeometry x="900" y="280" width="120" height="20" as="geometry"/>
                </mxCell>
                <mxCell id="r6bQSOe-YMrcuQpotWMZ-96" value="" style="shape=curlyBracket;whiteSpace=wrap;html=1;rounded=1;labelPosition=left;verticalLabelPosition=middle;align=right;verticalAlign=middle;" parent="1" vertex="1">
                    <mxGeometry x="780" y="220" width="20" height="110" as="geometry"/>
                </mxCell>
                <mxCell id="r6bQSOe-YMrcuQpotWMZ-97" value="Batch #2&lt;br&gt;batch size = 32" style="text;html=1;strokeColor=none;fillColor=none;align=center;verticalAlign=middle;whiteSpace=wrap;rounded=0;" parent="1" vertex="1">
                    <mxGeometry x="680" y="260" width="100" height="30" as="geometry"/>
                </mxCell>
                <mxCell id="r6bQSOe-YMrcuQpotWMZ-98" value="" style="shape=waypoint;sketch=0;fillStyle=solid;size=6;pointerEvents=1;points=[];fillColor=none;resizable=0;rotatable=0;perimeter=centerPerimeter;snapToPoint=1;" parent="1" vertex="1">
                    <mxGeometry x="720" y="330" width="20" height="20" as="geometry"/>
                </mxCell>
                <mxCell id="r6bQSOe-YMrcuQpotWMZ-99" value="" style="shape=waypoint;sketch=0;fillStyle=solid;size=6;pointerEvents=1;points=[];fillColor=none;resizable=0;rotatable=0;perimeter=centerPerimeter;snapToPoint=1;" parent="1" vertex="1">
                    <mxGeometry x="720" y="350" width="20" height="20" as="geometry"/>
                </mxCell>
                <mxCell id="r6bQSOe-YMrcuQpotWMZ-100" value="" style="shape=waypoint;sketch=0;fillStyle=solid;size=6;pointerEvents=1;points=[];fillColor=none;resizable=0;rotatable=0;perimeter=centerPerimeter;snapToPoint=1;" parent="1" vertex="1">
                    <mxGeometry x="720" y="370" width="20" height="20" as="geometry"/>
                </mxCell>
                <mxCell id="r6bQSOe-YMrcuQpotWMZ-101" value="Batch #&lt;br&gt;\(\left\lceil 12285/32 \right\rceil = 384\)&lt;br&gt;batch size = 12285 mod 32 = 29" style="text;html=1;strokeColor=none;fillColor=none;align=center;verticalAlign=middle;whiteSpace=wrap;rounded=0;" parent="1" vertex="1">
                    <mxGeometry x="600" y="420" width="180" height="30" as="geometry"/>
                </mxCell>
                <mxCell id="r6bQSOe-YMrcuQpotWMZ-112" value="" style="rounded=0;whiteSpace=wrap;html=1;fillColor=#dae8fc;strokeColor=#6c8ebf;" parent="1" vertex="1">
                    <mxGeometry x="810" y="390" width="150" height="20" as="geometry"/>
                </mxCell>
                <mxCell id="r6bQSOe-YMrcuQpotWMZ-113" value="" style="rounded=0;whiteSpace=wrap;html=1;fillColor=#f8cecc;strokeColor=#b85450;" parent="1" vertex="1">
                    <mxGeometry x="960" y="390" width="150" height="20" as="geometry"/>
                </mxCell>
                <mxCell id="r6bQSOe-YMrcuQpotWMZ-114" value="Data Window #12210" style="text;html=1;strokeColor=none;fillColor=none;align=center;verticalAlign=middle;whiteSpace=wrap;rounded=0;" parent="1" vertex="1">
                    <mxGeometry x="900" y="390" width="120" height="20" as="geometry"/>
                </mxCell>
                <mxCell id="r6bQSOe-YMrcuQpotWMZ-115" value="" style="rounded=0;whiteSpace=wrap;html=1;fillColor=#dae8fc;strokeColor=#6c8ebf;" parent="1" vertex="1">
                    <mxGeometry x="810" y="420" width="150" height="20" as="geometry"/>
                </mxCell>
                <mxCell id="r6bQSOe-YMrcuQpotWMZ-116" value="" style="rounded=0;whiteSpace=wrap;html=1;fillColor=#f8cecc;strokeColor=#b85450;" parent="1" vertex="1">
                    <mxGeometry x="960" y="420" width="150" height="20" as="geometry"/>
                </mxCell>
                <mxCell id="r6bQSOe-YMrcuQpotWMZ-117" value="Data Window #12211" style="text;html=1;strokeColor=none;fillColor=none;align=center;verticalAlign=middle;whiteSpace=wrap;rounded=0;" parent="1" vertex="1">
                    <mxGeometry x="900" y="420" width="120" height="20" as="geometry"/>
                </mxCell>
                <mxCell id="r6bQSOe-YMrcuQpotWMZ-118" value="" style="rounded=0;whiteSpace=wrap;html=1;fillColor=#dae8fc;strokeColor=#6c8ebf;" parent="1" vertex="1">
                    <mxGeometry x="810" y="480" width="150" height="20" as="geometry"/>
                </mxCell>
                <mxCell id="r6bQSOe-YMrcuQpotWMZ-119" value="" style="rounded=0;whiteSpace=wrap;html=1;fillColor=#f8cecc;strokeColor=#b85450;" parent="1" vertex="1">
                    <mxGeometry x="960" y="480" width="150" height="20" as="geometry"/>
                </mxCell>
                <mxCell id="r6bQSOe-YMrcuQpotWMZ-120" value="Data Window #12238" style="text;html=1;strokeColor=none;fillColor=none;align=center;verticalAlign=middle;whiteSpace=wrap;rounded=0;" parent="1" vertex="1">
                    <mxGeometry x="900" y="480" width="120" height="20" as="geometry"/>
                </mxCell>
                <mxCell id="r6bQSOe-YMrcuQpotWMZ-121" value="\(\vdots\)" style="text;html=1;strokeColor=none;fillColor=none;align=center;verticalAlign=middle;whiteSpace=wrap;rounded=0;" parent="1" vertex="1">
                    <mxGeometry x="900" y="450" width="120" height="20" as="geometry"/>
                </mxCell>
                <mxCell id="r6bQSOe-YMrcuQpotWMZ-122" value="" style="shape=curlyBracket;whiteSpace=wrap;html=1;rounded=1;labelPosition=left;verticalLabelPosition=middle;align=right;verticalAlign=middle;" parent="1" vertex="1">
                    <mxGeometry x="780" y="390" width="20" height="110" as="geometry"/>
                </mxCell>
                <mxCell id="r6bQSOe-YMrcuQpotWMZ-137" value="Batch #1" style="text;html=1;strokeColor=none;fillColor=none;align=center;verticalAlign=middle;whiteSpace=wrap;rounded=0;" parent="1" vertex="1">
                    <mxGeometry x="60" y="640" width="60" height="30" as="geometry"/>
                </mxCell>
                <mxCell id="r6bQSOe-YMrcuQpotWMZ-138" value="" style="rounded=0;whiteSpace=wrap;html=1;fillColor=#dae8fc;strokeColor=#6c8ebf;" parent="1" vertex="1">
                    <mxGeometry x="160" y="630" width="40" height="10" as="geometry"/>
                </mxCell>
                <mxCell id="r6bQSOe-YMrcuQpotWMZ-139" value="" style="rounded=0;whiteSpace=wrap;html=1;fillColor=#f8cecc;strokeColor=#b85450;" parent="1" vertex="1">
                    <mxGeometry x="200" y="630" width="40" height="10" as="geometry"/>
                </mxCell>
                <mxCell id="r6bQSOe-YMrcuQpotWMZ-148" value="" style="shape=curlyBracket;whiteSpace=wrap;html=1;rounded=1;labelPosition=left;verticalLabelPosition=middle;align=right;verticalAlign=middle;" parent="1" vertex="1">
                    <mxGeometry x="130" y="630" width="20" height="50" as="geometry"/>
                </mxCell>
                <mxCell id="r6bQSOe-YMrcuQpotWMZ-149" value="" style="rounded=0;whiteSpace=wrap;html=1;fillColor=#dae8fc;strokeColor=#6c8ebf;" parent="1" vertex="1">
                    <mxGeometry x="160" y="640" width="40" height="10" as="geometry"/>
                </mxCell>
                <mxCell id="r6bQSOe-YMrcuQpotWMZ-150" value="" style="rounded=0;whiteSpace=wrap;html=1;fillColor=#f8cecc;strokeColor=#b85450;" parent="1" vertex="1">
                    <mxGeometry x="200" y="640" width="40" height="10" as="geometry"/>
                </mxCell>
                <mxCell id="r6bQSOe-YMrcuQpotWMZ-151" value="" style="rounded=0;whiteSpace=wrap;html=1;fillColor=#dae8fc;strokeColor=#6c8ebf;" parent="1" vertex="1">
                    <mxGeometry x="160" y="650" width="40" height="10" as="geometry"/>
                </mxCell>
                <mxCell id="r6bQSOe-YMrcuQpotWMZ-152" value="" style="rounded=0;whiteSpace=wrap;html=1;fillColor=#f8cecc;strokeColor=#b85450;" parent="1" vertex="1">
                    <mxGeometry x="200" y="650" width="40" height="10" as="geometry"/>
                </mxCell>
                <mxCell id="r6bQSOe-YMrcuQpotWMZ-153" value="" style="rounded=0;whiteSpace=wrap;html=1;fillColor=#dae8fc;strokeColor=#6c8ebf;" parent="1" vertex="1">
                    <mxGeometry x="160" y="670" width="40" height="10" as="geometry"/>
                </mxCell>
                <mxCell id="r6bQSOe-YMrcuQpotWMZ-154" value="" style="rounded=0;whiteSpace=wrap;html=1;fillColor=#f8cecc;strokeColor=#b85450;" parent="1" vertex="1">
                    <mxGeometry x="200" y="670" width="40" height="10" as="geometry"/>
                </mxCell>
                <mxCell id="r6bQSOe-YMrcuQpotWMZ-155" value="" style="html=1;whiteSpace=wrap;shape=isoCube2;backgroundOutline=1;isoAngle=15;" parent="1" vertex="1">
                    <mxGeometry x="400" y="670" width="90" height="100" as="geometry"/>
                </mxCell>
                <mxCell id="r6bQSOe-YMrcuQpotWMZ-156" value="Deep learning model" style="text;html=1;strokeColor=none;fillColor=none;align=center;verticalAlign=middle;whiteSpace=wrap;rounded=0;" parent="1" vertex="1">
                    <mxGeometry x="370" y="640" width="140" height="30" as="geometry"/>
                </mxCell>
                <mxCell id="r6bQSOe-YMrcuQpotWMZ-157" value="Batch #2" style="text;html=1;strokeColor=none;fillColor=none;align=center;verticalAlign=middle;whiteSpace=wrap;rounded=0;" parent="1" vertex="1">
                    <mxGeometry x="60" y="705" width="60" height="30" as="geometry"/>
                </mxCell>
                <mxCell id="r6bQSOe-YMrcuQpotWMZ-158" value="" style="rounded=0;whiteSpace=wrap;html=1;fillColor=#dae8fc;strokeColor=#6c8ebf;" parent="1" vertex="1">
                    <mxGeometry x="160" y="695" width="40" height="10" as="geometry"/>
                </mxCell>
                <mxCell id="r6bQSOe-YMrcuQpotWMZ-159" value="" style="rounded=0;whiteSpace=wrap;html=1;fillColor=#f8cecc;strokeColor=#b85450;" parent="1" vertex="1">
                    <mxGeometry x="200" y="695" width="40" height="10" as="geometry"/>
                </mxCell>
                <mxCell id="r6bQSOe-YMrcuQpotWMZ-160" value="" style="shape=curlyBracket;whiteSpace=wrap;html=1;rounded=1;labelPosition=left;verticalLabelPosition=middle;align=right;verticalAlign=middle;" parent="1" vertex="1">
                    <mxGeometry x="130" y="695" width="20" height="50" as="geometry"/>
                </mxCell>
                <mxCell id="r6bQSOe-YMrcuQpotWMZ-161" value="" style="rounded=0;whiteSpace=wrap;html=1;fillColor=#dae8fc;strokeColor=#6c8ebf;" parent="1" vertex="1">
                    <mxGeometry x="160" y="705" width="40" height="10" as="geometry"/>
                </mxCell>
                <mxCell id="r6bQSOe-YMrcuQpotWMZ-162" value="" style="rounded=0;whiteSpace=wrap;html=1;fillColor=#f8cecc;strokeColor=#b85450;" parent="1" vertex="1">
                    <mxGeometry x="200" y="705" width="40" height="10" as="geometry"/>
                </mxCell>
                <mxCell id="r6bQSOe-YMrcuQpotWMZ-163" value="" style="rounded=0;whiteSpace=wrap;html=1;fillColor=#dae8fc;strokeColor=#6c8ebf;" parent="1" vertex="1">
                    <mxGeometry x="160" y="715" width="40" height="10" as="geometry"/>
                </mxCell>
                <mxCell id="r6bQSOe-YMrcuQpotWMZ-164" value="" style="rounded=0;whiteSpace=wrap;html=1;fillColor=#f8cecc;strokeColor=#b85450;" parent="1" vertex="1">
                    <mxGeometry x="200" y="715" width="40" height="10" as="geometry"/>
                </mxCell>
                <mxCell id="r6bQSOe-YMrcuQpotWMZ-165" value="" style="rounded=0;whiteSpace=wrap;html=1;fillColor=#dae8fc;strokeColor=#6c8ebf;" parent="1" vertex="1">
                    <mxGeometry x="160" y="735" width="40" height="10" as="geometry"/>
                </mxCell>
                <mxCell id="r6bQSOe-YMrcuQpotWMZ-166" value="" style="rounded=0;whiteSpace=wrap;html=1;fillColor=#f8cecc;strokeColor=#b85450;" parent="1" vertex="1">
                    <mxGeometry x="200" y="735" width="40" height="10" as="geometry"/>
                </mxCell>
                <mxCell id="r6bQSOe-YMrcuQpotWMZ-167" value="Batch #384" style="text;html=1;strokeColor=none;fillColor=none;align=center;verticalAlign=middle;whiteSpace=wrap;rounded=0;" parent="1" vertex="1">
                    <mxGeometry x="50" y="790" width="70" height="30" as="geometry"/>
                </mxCell>
                <mxCell id="r6bQSOe-YMrcuQpotWMZ-168" value="" style="rounded=0;whiteSpace=wrap;html=1;fillColor=#dae8fc;strokeColor=#6c8ebf;" parent="1" vertex="1">
                    <mxGeometry x="160" y="780" width="40" height="10" as="geometry"/>
                </mxCell>
                <mxCell id="r6bQSOe-YMrcuQpotWMZ-169" value="" style="rounded=0;whiteSpace=wrap;html=1;fillColor=#f8cecc;strokeColor=#b85450;" parent="1" vertex="1">
                    <mxGeometry x="200" y="780" width="40" height="10" as="geometry"/>
                </mxCell>
                <mxCell id="r6bQSOe-YMrcuQpotWMZ-170" value="" style="shape=curlyBracket;whiteSpace=wrap;html=1;rounded=1;labelPosition=left;verticalLabelPosition=middle;align=right;verticalAlign=middle;" parent="1" vertex="1">
                    <mxGeometry x="130" y="780" width="20" height="50" as="geometry"/>
                </mxCell>
                <mxCell id="r6bQSOe-YMrcuQpotWMZ-171" value="" style="rounded=0;whiteSpace=wrap;html=1;fillColor=#dae8fc;strokeColor=#6c8ebf;" parent="1" vertex="1">
                    <mxGeometry x="160" y="790" width="40" height="10" as="geometry"/>
                </mxCell>
                <mxCell id="r6bQSOe-YMrcuQpotWMZ-172" value="" style="rounded=0;whiteSpace=wrap;html=1;fillColor=#f8cecc;strokeColor=#b85450;" parent="1" vertex="1">
                    <mxGeometry x="200" y="790" width="40" height="10" as="geometry"/>
                </mxCell>
                <mxCell id="r6bQSOe-YMrcuQpotWMZ-173" value="" style="rounded=0;whiteSpace=wrap;html=1;fillColor=#dae8fc;strokeColor=#6c8ebf;" parent="1" vertex="1">
                    <mxGeometry x="160" y="800" width="40" height="10" as="geometry"/>
                </mxCell>
                <mxCell id="r6bQSOe-YMrcuQpotWMZ-174" value="" style="rounded=0;whiteSpace=wrap;html=1;fillColor=#f8cecc;strokeColor=#b85450;" parent="1" vertex="1">
                    <mxGeometry x="200" y="800" width="40" height="10" as="geometry"/>
                </mxCell>
                <mxCell id="r6bQSOe-YMrcuQpotWMZ-175" value="" style="rounded=0;whiteSpace=wrap;html=1;fillColor=#dae8fc;strokeColor=#6c8ebf;" parent="1" vertex="1">
                    <mxGeometry x="160" y="820" width="40" height="10" as="geometry"/>
                </mxCell>
                <mxCell id="r6bQSOe-YMrcuQpotWMZ-176" value="" style="rounded=0;whiteSpace=wrap;html=1;fillColor=#f8cecc;strokeColor=#b85450;" parent="1" vertex="1">
                    <mxGeometry x="200" y="820" width="40" height="10" as="geometry"/>
                </mxCell>
                <mxCell id="r6bQSOe-YMrcuQpotWMZ-179" value="" style="shape=curlyBracket;whiteSpace=wrap;html=1;rounded=1;labelPosition=left;verticalLabelPosition=middle;align=right;verticalAlign=middle;rotation=-180;strokeWidth=4;" parent="1" vertex="1">
                    <mxGeometry x="260" y="630" width="20" height="260" as="geometry"/>
                </mxCell>
                <mxCell id="r6bQSOe-YMrcuQpotWMZ-182" value="" style="endArrow=classic;html=1;rounded=0;exitX=0.1;exitY=0.5;exitDx=0;exitDy=0;exitPerimeter=0;strokeWidth=4;" parent="1" source="r6bQSOe-YMrcuQpotWMZ-179" edge="1">
                    <mxGeometry width="50" height="50" relative="1" as="geometry">
                        <mxPoint x="540" y="730" as="sourcePoint"/>
                        <mxPoint x="380" y="730" as="targetPoint"/>
                    </mxGeometry>
                </mxCell>
                <mxCell id="r6bQSOe-YMrcuQpotWMZ-183" value="" style="endArrow=classic;html=1;rounded=0;exitX=0.1;exitY=0.5;exitDx=0;exitDy=0;exitPerimeter=0;strokeWidth=4;" parent="1" edge="1">
                    <mxGeometry width="50" height="50" relative="1" as="geometry">
                        <mxPoint x="500" y="729.83" as="sourcePoint"/>
                        <mxPoint x="602" y="729.83" as="targetPoint"/>
                    </mxGeometry>
                </mxCell>
                <mxCell id="r6bQSOe-YMrcuQpotWMZ-184" value="model parameters" style="text;html=1;strokeColor=none;fillColor=none;align=center;verticalAlign=middle;whiteSpace=wrap;rounded=0;" parent="1" vertex="1">
                    <mxGeometry x="620" y="710" width="90" height="40" as="geometry"/>
                </mxCell>
                <mxCell id="r6bQSOe-YMrcuQpotWMZ-185" value="initial model parameters" style="text;html=1;strokeColor=none;fillColor=none;align=center;verticalAlign=middle;whiteSpace=wrap;rounded=0;" parent="1" vertex="1">
                    <mxGeometry x="140" y="860" width="90" height="40" as="geometry"/>
                </mxCell>
                <mxCell id="r6bQSOe-YMrcuQpotWMZ-186" value="" style="curved=1;endArrow=classic;html=1;rounded=0;strokeWidth=4;" parent="1" edge="1">
                    <mxGeometry width="50" height="50" relative="1" as="geometry">
                        <mxPoint x="660" y="770" as="sourcePoint"/>
                        <mxPoint x="190" y="910" as="targetPoint"/>
                        <Array as="points">
                            <mxPoint x="560" y="940"/>
                            <mxPoint x="380" y="970"/>
                        </Array>
                    </mxGeometry>
                </mxCell>
                <mxCell id="r6bQSOe-YMrcuQpotWMZ-187" value="update model parameters" style="text;html=1;strokeColor=none;fillColor=none;align=center;verticalAlign=middle;whiteSpace=wrap;rounded=0;" parent="1" vertex="1">
                    <mxGeometry x="400" y="970" width="90" height="30" as="geometry"/>
                </mxCell>
                <mxCell id="r6bQSOe-YMrcuQpotWMZ-188" value="&lt;font style=&quot;font-size: 20px;&quot;&gt;1 cycle = 1 epoch&lt;/font&gt;" style="text;html=1;strokeColor=none;fillColor=none;align=center;verticalAlign=middle;whiteSpace=wrap;rounded=0;" parent="1" vertex="1">
                    <mxGeometry x="340" y="820" width="180" height="30" as="geometry"/>
                </mxCell>
                <mxCell id="r6bQSOe-YMrcuQpotWMZ-189" value="" style="shape=cross;whiteSpace=wrap;html=1;fillColor=#000000;" parent="1" vertex="1">
                    <mxGeometry x="120" y="870" width="20" height="20" as="geometry"/>
                </mxCell>
                <mxCell id="r6bQSOe-YMrcuQpotWMZ-190" value="Batch" style="text;html=1;strokeColor=none;fillColor=none;align=center;verticalAlign=middle;whiteSpace=wrap;rounded=0;" parent="1" vertex="1">
                    <mxGeometry x="780" y="685" width="70" height="30" as="geometry"/>
                </mxCell>
                <mxCell id="r6bQSOe-YMrcuQpotWMZ-191" value="" style="rounded=0;whiteSpace=wrap;html=1;fillColor=#dae8fc;strokeColor=#6c8ebf;" parent="1" vertex="1">
                    <mxGeometry x="880" y="600" width="150" height="20" as="geometry"/>
                </mxCell>
                <mxCell id="r6bQSOe-YMrcuQpotWMZ-192" value="" style="rounded=0;whiteSpace=wrap;html=1;fillColor=#f8cecc;strokeColor=#b85450;" parent="1" vertex="1">
                    <mxGeometry x="1030" y="600" width="150" height="20" as="geometry"/>
                </mxCell>
                <mxCell id="r6bQSOe-YMrcuQpotWMZ-193" value="Data Window #1" style="text;html=1;strokeColor=none;fillColor=none;align=center;verticalAlign=middle;whiteSpace=wrap;rounded=0;" parent="1" vertex="1">
                    <mxGeometry x="970" y="600" width="120" height="20" as="geometry"/>
                </mxCell>
                <mxCell id="r6bQSOe-YMrcuQpotWMZ-194" value="" style="rounded=0;whiteSpace=wrap;html=1;fillColor=#dae8fc;strokeColor=#6c8ebf;" parent="1" vertex="1">
                    <mxGeometry x="880" y="630" width="150" height="20" as="geometry"/>
                </mxCell>
                <mxCell id="r6bQSOe-YMrcuQpotWMZ-195" value="" style="rounded=0;whiteSpace=wrap;html=1;fillColor=#f8cecc;strokeColor=#b85450;" parent="1" vertex="1">
                    <mxGeometry x="1030" y="630" width="150" height="20" as="geometry"/>
                </mxCell>
                <mxCell id="r6bQSOe-YMrcuQpotWMZ-196" value="Data Window #2" style="text;html=1;strokeColor=none;fillColor=none;align=center;verticalAlign=middle;whiteSpace=wrap;rounded=0;" parent="1" vertex="1">
                    <mxGeometry x="970" y="630" width="120" height="20" as="geometry"/>
                </mxCell>
                <mxCell id="r6bQSOe-YMrcuQpotWMZ-197" value="" style="rounded=0;whiteSpace=wrap;html=1;fillColor=#dae8fc;strokeColor=#6c8ebf;" parent="1" vertex="1">
                    <mxGeometry x="880" y="780" width="150" height="20" as="geometry"/>
                </mxCell>
                <mxCell id="r6bQSOe-YMrcuQpotWMZ-198" value="" style="rounded=0;whiteSpace=wrap;html=1;fillColor=#f8cecc;strokeColor=#b85450;" parent="1" vertex="1">
                    <mxGeometry x="1030" y="780" width="150" height="20" as="geometry"/>
                </mxCell>
                <mxCell id="r6bQSOe-YMrcuQpotWMZ-199" value="Data Window #32" style="text;html=1;strokeColor=none;fillColor=none;align=center;verticalAlign=middle;whiteSpace=wrap;rounded=0;" parent="1" vertex="1">
                    <mxGeometry x="970" y="780" width="120" height="20" as="geometry"/>
                </mxCell>
                <mxCell id="r6bQSOe-YMrcuQpotWMZ-200" value="\(\vdots\)" style="text;html=1;strokeColor=none;fillColor=none;align=center;verticalAlign=middle;whiteSpace=wrap;rounded=0;" parent="1" vertex="1">
                    <mxGeometry x="970" y="690" width="120" height="20" as="geometry"/>
                </mxCell>
                <mxCell id="r6bQSOe-YMrcuQpotWMZ-201" value="" style="shape=curlyBracket;whiteSpace=wrap;html=1;rounded=1;labelPosition=left;verticalLabelPosition=middle;align=right;verticalAlign=middle;" parent="1" vertex="1">
                    <mxGeometry x="850" y="600" width="20" height="200" as="geometry"/>
                </mxCell>
                <mxCell id="r6bQSOe-YMrcuQpotWMZ-202" value="" style="rounded=0;whiteSpace=wrap;html=1;fillColor=#dae8fc;strokeColor=#6c8ebf;" parent="1" vertex="1">
                    <mxGeometry x="880" y="660" width="150" height="20" as="geometry"/>
                </mxCell>
                <mxCell id="r6bQSOe-YMrcuQpotWMZ-203" value="" style="rounded=0;whiteSpace=wrap;html=1;fillColor=#f8cecc;strokeColor=#b85450;" parent="1" vertex="1">
                    <mxGeometry x="1030" y="660" width="150" height="20" as="geometry"/>
                </mxCell>
                <mxCell id="r6bQSOe-YMrcuQpotWMZ-204" value="Data Window #3" style="text;html=1;strokeColor=none;fillColor=none;align=center;verticalAlign=middle;whiteSpace=wrap;rounded=0;" parent="1" vertex="1">
                    <mxGeometry x="970" y="660" width="120" height="20" as="geometry"/>
                </mxCell>
                <mxCell id="r6bQSOe-YMrcuQpotWMZ-205" value="" style="rounded=0;whiteSpace=wrap;html=1;fillColor=#dae8fc;strokeColor=#6c8ebf;" parent="1" vertex="1">
                    <mxGeometry x="880" y="750" width="150" height="20" as="geometry"/>
                </mxCell>
                <mxCell id="r6bQSOe-YMrcuQpotWMZ-206" value="" style="rounded=0;whiteSpace=wrap;html=1;fillColor=#f8cecc;strokeColor=#b85450;" parent="1" vertex="1">
                    <mxGeometry x="1030" y="750" width="150" height="20" as="geometry"/>
                </mxCell>
                <mxCell id="r6bQSOe-YMrcuQpotWMZ-207" value="Data Window #31" style="text;html=1;strokeColor=none;fillColor=none;align=center;verticalAlign=middle;whiteSpace=wrap;rounded=0;" parent="1" vertex="1">
                    <mxGeometry x="970" y="750" width="120" height="20" as="geometry"/>
                </mxCell>
                <mxCell id="r6bQSOe-YMrcuQpotWMZ-208" value="" style="rounded=0;whiteSpace=wrap;html=1;fillColor=#dae8fc;strokeColor=#6c8ebf;" parent="1" vertex="1">
                    <mxGeometry x="880" y="720" width="150" height="20" as="geometry"/>
                </mxCell>
                <mxCell id="r6bQSOe-YMrcuQpotWMZ-209" value="" style="rounded=0;whiteSpace=wrap;html=1;fillColor=#f8cecc;strokeColor=#b85450;" parent="1" vertex="1">
                    <mxGeometry x="1030" y="720" width="150" height="20" as="geometry"/>
                </mxCell>
                <mxCell id="r6bQSOe-YMrcuQpotWMZ-210" value="Data Window #30" style="text;html=1;strokeColor=none;fillColor=none;align=center;verticalAlign=middle;whiteSpace=wrap;rounded=0;" parent="1" vertex="1">
                    <mxGeometry x="970" y="720" width="120" height="20" as="geometry"/>
                </mxCell>
                <mxCell id="r6bQSOe-YMrcuQpotWMZ-211" value="shuffle = False" style="text;html=1;strokeColor=none;fillColor=none;align=center;verticalAlign=middle;whiteSpace=wrap;rounded=0;" parent="1" vertex="1">
                    <mxGeometry x="980" y="560" width="110" height="30" as="geometry"/>
                </mxCell>
                <mxCell id="r6bQSOe-YMrcuQpotWMZ-212" value="Batch" style="text;html=1;strokeColor=none;fillColor=none;align=center;verticalAlign=middle;whiteSpace=wrap;rounded=0;" parent="1" vertex="1">
                    <mxGeometry x="1220" y="685" width="70" height="30" as="geometry"/>
                </mxCell>
                <mxCell id="r6bQSOe-YMrcuQpotWMZ-213" value="" style="rounded=0;whiteSpace=wrap;html=1;fillColor=#dae8fc;strokeColor=#6c8ebf;" parent="1" vertex="1">
                    <mxGeometry x="1320" y="600" width="150" height="20" as="geometry"/>
                </mxCell>
                <mxCell id="r6bQSOe-YMrcuQpotWMZ-214" value="" style="rounded=0;whiteSpace=wrap;html=1;fillColor=#f8cecc;strokeColor=#b85450;" parent="1" vertex="1">
                    <mxGeometry x="1470" y="600" width="150" height="20" as="geometry"/>
                </mxCell>
                <mxCell id="r6bQSOe-YMrcuQpotWMZ-215" value="Data Window #13" style="text;html=1;strokeColor=none;fillColor=none;align=center;verticalAlign=middle;whiteSpace=wrap;rounded=0;" parent="1" vertex="1">
                    <mxGeometry x="1410" y="600" width="120" height="20" as="geometry"/>
                </mxCell>
                <mxCell id="r6bQSOe-YMrcuQpotWMZ-216" value="" style="rounded=0;whiteSpace=wrap;html=1;fillColor=#dae8fc;strokeColor=#6c8ebf;" parent="1" vertex="1">
                    <mxGeometry x="1320" y="630" width="150" height="20" as="geometry"/>
                </mxCell>
                <mxCell id="r6bQSOe-YMrcuQpotWMZ-217" value="" style="rounded=0;whiteSpace=wrap;html=1;fillColor=#f8cecc;strokeColor=#b85450;" parent="1" vertex="1">
                    <mxGeometry x="1470" y="630" width="150" height="20" as="geometry"/>
                </mxCell>
                <mxCell id="r6bQSOe-YMrcuQpotWMZ-218" value="Data Window #18" style="text;html=1;strokeColor=none;fillColor=none;align=center;verticalAlign=middle;whiteSpace=wrap;rounded=0;" parent="1" vertex="1">
                    <mxGeometry x="1410" y="630" width="120" height="20" as="geometry"/>
                </mxCell>
                <mxCell id="r6bQSOe-YMrcuQpotWMZ-219" value="" style="rounded=0;whiteSpace=wrap;html=1;fillColor=#dae8fc;strokeColor=#6c8ebf;" parent="1" vertex="1">
                    <mxGeometry x="1320" y="780" width="150" height="20" as="geometry"/>
                </mxCell>
                <mxCell id="r6bQSOe-YMrcuQpotWMZ-220" value="" style="rounded=0;whiteSpace=wrap;html=1;fillColor=#f8cecc;strokeColor=#b85450;" parent="1" vertex="1">
                    <mxGeometry x="1470" y="780" width="150" height="20" as="geometry"/>
                </mxCell>
                <mxCell id="r6bQSOe-YMrcuQpotWMZ-221" value="Data Window #4" style="text;html=1;strokeColor=none;fillColor=none;align=center;verticalAlign=middle;whiteSpace=wrap;rounded=0;" parent="1" vertex="1">
                    <mxGeometry x="1410" y="780" width="120" height="20" as="geometry"/>
                </mxCell>
                <mxCell id="r6bQSOe-YMrcuQpotWMZ-222" value="\(\vdots\)" style="text;html=1;strokeColor=none;fillColor=none;align=center;verticalAlign=middle;whiteSpace=wrap;rounded=0;" parent="1" vertex="1">
                    <mxGeometry x="1410" y="690" width="120" height="20" as="geometry"/>
                </mxCell>
                <mxCell id="r6bQSOe-YMrcuQpotWMZ-223" value="" style="shape=curlyBracket;whiteSpace=wrap;html=1;rounded=1;labelPosition=left;verticalLabelPosition=middle;align=right;verticalAlign=middle;" parent="1" vertex="1">
                    <mxGeometry x="1290" y="600" width="20" height="200" as="geometry"/>
                </mxCell>
                <mxCell id="r6bQSOe-YMrcuQpotWMZ-224" value="" style="rounded=0;whiteSpace=wrap;html=1;fillColor=#dae8fc;strokeColor=#6c8ebf;" parent="1" vertex="1">
                    <mxGeometry x="1320" y="660" width="150" height="20" as="geometry"/>
                </mxCell>
                <mxCell id="r6bQSOe-YMrcuQpotWMZ-225" value="" style="rounded=0;whiteSpace=wrap;html=1;fillColor=#f8cecc;strokeColor=#b85450;" parent="1" vertex="1">
                    <mxGeometry x="1470" y="660" width="150" height="20" as="geometry"/>
                </mxCell>
                <mxCell id="r6bQSOe-YMrcuQpotWMZ-226" value="Data Window #7" style="text;html=1;strokeColor=none;fillColor=none;align=center;verticalAlign=middle;whiteSpace=wrap;rounded=0;" parent="1" vertex="1">
                    <mxGeometry x="1410" y="660" width="120" height="20" as="geometry"/>
                </mxCell>
                <mxCell id="r6bQSOe-YMrcuQpotWMZ-227" value="" style="rounded=0;whiteSpace=wrap;html=1;fillColor=#dae8fc;strokeColor=#6c8ebf;" parent="1" vertex="1">
                    <mxGeometry x="1320" y="750" width="150" height="20" as="geometry"/>
                </mxCell>
                <mxCell id="r6bQSOe-YMrcuQpotWMZ-228" value="" style="rounded=0;whiteSpace=wrap;html=1;fillColor=#f8cecc;strokeColor=#b85450;" parent="1" vertex="1">
                    <mxGeometry x="1470" y="750" width="150" height="20" as="geometry"/>
                </mxCell>
                <mxCell id="r6bQSOe-YMrcuQpotWMZ-229" value="Data Window #11" style="text;html=1;strokeColor=none;fillColor=none;align=center;verticalAlign=middle;whiteSpace=wrap;rounded=0;" parent="1" vertex="1">
                    <mxGeometry x="1410" y="750" width="120" height="20" as="geometry"/>
                </mxCell>
                <mxCell id="r6bQSOe-YMrcuQpotWMZ-230" value="" style="rounded=0;whiteSpace=wrap;html=1;fillColor=#dae8fc;strokeColor=#6c8ebf;" parent="1" vertex="1">
                    <mxGeometry x="1320" y="720" width="150" height="20" as="geometry"/>
                </mxCell>
                <mxCell id="r6bQSOe-YMrcuQpotWMZ-231" value="" style="rounded=0;whiteSpace=wrap;html=1;fillColor=#f8cecc;strokeColor=#b85450;" parent="1" vertex="1">
                    <mxGeometry x="1470" y="720" width="150" height="20" as="geometry"/>
                </mxCell>
                <mxCell id="r6bQSOe-YMrcuQpotWMZ-232" value="Data Window #6" style="text;html=1;strokeColor=none;fillColor=none;align=center;verticalAlign=middle;whiteSpace=wrap;rounded=0;" parent="1" vertex="1">
                    <mxGeometry x="1410" y="720" width="120" height="20" as="geometry"/>
                </mxCell>
                <mxCell id="r6bQSOe-YMrcuQpotWMZ-233" value="shuffle = True" style="text;html=1;strokeColor=none;fillColor=none;align=center;verticalAlign=middle;whiteSpace=wrap;rounded=0;" parent="1" vertex="1">
                    <mxGeometry x="1420" y="560" width="110" height="30" as="geometry"/>
                </mxCell>
                <mxCell id="r6bQSOe-YMrcuQpotWMZ-234" value="" style="rounded=0;whiteSpace=wrap;html=1;fillColor=#dae8fc;strokeColor=#6c8ebf;" parent="1" vertex="1">
                    <mxGeometry x="140" y="80" width="20" height="20" as="geometry"/>
                </mxCell>
                <mxCell id="r6bQSOe-YMrcuQpotWMZ-235" value="" style="rounded=0;whiteSpace=wrap;html=1;fillColor=#f8cecc;strokeColor=#b85450;" parent="1" vertex="1">
                    <mxGeometry x="140" y="110" width="20" height="20" as="geometry"/>
                </mxCell>
                <mxCell id="r6bQSOe-YMrcuQpotWMZ-236" value="input" style="text;html=1;strokeColor=none;fillColor=none;align=center;verticalAlign=middle;whiteSpace=wrap;rounded=0;" parent="1" vertex="1">
                    <mxGeometry x="160" y="80" width="40" height="20" as="geometry"/>
                </mxCell>
                <mxCell id="r6bQSOe-YMrcuQpotWMZ-237" value="label" style="text;html=1;strokeColor=none;fillColor=none;align=center;verticalAlign=middle;whiteSpace=wrap;rounded=0;" parent="1" vertex="1">
                    <mxGeometry x="160" y="110" width="40" height="20" as="geometry"/>
                </mxCell>
                <mxCell id="MuvZenMTgrjQ6a0WK5JL-1" value="\(t_0\)" style="rounded=0;whiteSpace=wrap;html=1;fillColor=#dae8fc;strokeColor=#6c8ebf;" parent="1" vertex="1">
                    <mxGeometry x="-220" y="-160" width="30" height="30" as="geometry"/>
                </mxCell>
                <mxCell id="MuvZenMTgrjQ6a0WK5JL-2" value="\(t_1\)" style="rounded=0;whiteSpace=wrap;html=1;fillColor=#dae8fc;strokeColor=#6c8ebf;" parent="1" vertex="1">
                    <mxGeometry x="-190" y="-160" width="30" height="30" as="geometry"/>
                </mxCell>
                <mxCell id="MuvZenMTgrjQ6a0WK5JL-3" value="\(\ldots\)" style="rounded=0;whiteSpace=wrap;html=1;fillColor=#dae8fc;strokeColor=#6c8ebf;" parent="1" vertex="1">
                    <mxGeometry x="-160" y="-160" width="30" height="30" as="geometry"/>
                </mxCell>
                <mxCell id="MuvZenMTgrjQ6a0WK5JL-4" value="\(t_{22}\)" style="rounded=0;whiteSpace=wrap;html=1;fillColor=#dae8fc;strokeColor=#6c8ebf;" parent="1" vertex="1">
                    <mxGeometry x="-130" y="-160" width="30" height="30" as="geometry"/>
                </mxCell>
                <mxCell id="MuvZenMTgrjQ6a0WK5JL-5" value="\(t_{23}\)" style="rounded=0;whiteSpace=wrap;html=1;fillColor=#dae8fc;strokeColor=#6c8ebf;" parent="1" vertex="1">
                    <mxGeometry x="-100" y="-160" width="30" height="30" as="geometry"/>
                </mxCell>
                <mxCell id="MuvZenMTgrjQ6a0WK5JL-6" value="\(t_{24}\)" style="rounded=0;whiteSpace=wrap;html=1;fillColor=#f8cecc;strokeColor=#b85450;" parent="1" vertex="1">
                    <mxGeometry x="-70" y="-160" width="30" height="30" as="geometry"/>
                </mxCell>
                <mxCell id="MuvZenMTgrjQ6a0WK5JL-7" value="\(t_{25}\)" style="rounded=0;whiteSpace=wrap;html=1;fillColor=#f8cecc;strokeColor=#b85450;" parent="1" vertex="1">
                    <mxGeometry x="-40" y="-160" width="30" height="30" as="geometry"/>
                </mxCell>
                <mxCell id="MuvZenMTgrjQ6a0WK5JL-8" value="\(\ldots\)" style="rounded=0;whiteSpace=wrap;html=1;fillColor=#f8cecc;strokeColor=#b85450;" parent="1" vertex="1">
                    <mxGeometry x="-10" y="-160" width="30" height="30" as="geometry"/>
                </mxCell>
                <mxCell id="MuvZenMTgrjQ6a0WK5JL-9" value="\(t_{46}\)" style="rounded=0;whiteSpace=wrap;html=1;fillColor=#f8cecc;strokeColor=#b85450;" parent="1" vertex="1">
                    <mxGeometry x="20" y="-160" width="30" height="30" as="geometry"/>
                </mxCell>
                <mxCell id="MuvZenMTgrjQ6a0WK5JL-10" value="\(t_{47}\)" style="rounded=0;whiteSpace=wrap;html=1;fillColor=#f8cecc;strokeColor=#b85450;" parent="1" vertex="1">
                    <mxGeometry x="50" y="-160" width="30" height="30" as="geometry"/>
                </mxCell>
                <mxCell id="MuvZenMTgrjQ6a0WK5JL-11" value="\(t_{48}\)" style="rounded=0;whiteSpace=wrap;html=1;fillColor=#dae8fc;strokeColor=#6c8ebf;" parent="1" vertex="1">
                    <mxGeometry x="80" y="-160" width="30" height="30" as="geometry"/>
                </mxCell>
                <mxCell id="MuvZenMTgrjQ6a0WK5JL-12" value="\(t_{49}\)" style="rounded=0;whiteSpace=wrap;html=1;fillColor=#dae8fc;strokeColor=#6c8ebf;" parent="1" vertex="1">
                    <mxGeometry x="110" y="-160" width="30" height="30" as="geometry"/>
                </mxCell>
                <mxCell id="MuvZenMTgrjQ6a0WK5JL-13" value="\(\ldots\)" style="rounded=0;whiteSpace=wrap;html=1;fillColor=#dae8fc;strokeColor=#6c8ebf;" parent="1" vertex="1">
                    <mxGeometry x="140" y="-160" width="30" height="30" as="geometry"/>
                </mxCell>
                <mxCell id="MuvZenMTgrjQ6a0WK5JL-14" value="\(t_{70}\)" style="rounded=0;whiteSpace=wrap;html=1;fillColor=#dae8fc;strokeColor=#6c8ebf;" parent="1" vertex="1">
                    <mxGeometry x="170" y="-160" width="30" height="30" as="geometry"/>
                </mxCell>
                <mxCell id="MuvZenMTgrjQ6a0WK5JL-15" value="\(t_{71}\)" style="rounded=0;whiteSpace=wrap;html=1;fillColor=#dae8fc;strokeColor=#6c8ebf;" parent="1" vertex="1">
                    <mxGeometry x="200" y="-160" width="30" height="30" as="geometry"/>
                </mxCell>
                <mxCell id="MuvZenMTgrjQ6a0WK5JL-16" value="\(t_{24}\)" style="rounded=0;whiteSpace=wrap;html=1;fillColor=#f8cecc;strokeColor=#b85450;" parent="1" vertex="1">
                    <mxGeometry x="230" y="-160" width="30" height="30" as="geometry"/>
                </mxCell>
                <mxCell id="MuvZenMTgrjQ6a0WK5JL-17" value="\(t_{25}\)" style="rounded=0;whiteSpace=wrap;html=1;fillColor=#f8cecc;strokeColor=#b85450;" parent="1" vertex="1">
                    <mxGeometry x="260" y="-160" width="30" height="30" as="geometry"/>
                </mxCell>
                <mxCell id="MuvZenMTgrjQ6a0WK5JL-18" value="\(\ldots\)" style="rounded=0;whiteSpace=wrap;html=1;fillColor=#f8cecc;strokeColor=#b85450;" parent="1" vertex="1">
                    <mxGeometry x="290" y="-160" width="30" height="30" as="geometry"/>
                </mxCell>
                <mxCell id="MuvZenMTgrjQ6a0WK5JL-19" value="\(t_{46}\)" style="rounded=0;whiteSpace=wrap;html=1;fillColor=#f8cecc;strokeColor=#b85450;" parent="1" vertex="1">
                    <mxGeometry x="320" y="-160" width="30" height="30" as="geometry"/>
                </mxCell>
                <mxCell id="MuvZenMTgrjQ6a0WK5JL-20" value="\(t_{47}\)" style="rounded=0;whiteSpace=wrap;html=1;fillColor=#f8cecc;strokeColor=#b85450;" parent="1" vertex="1">
                    <mxGeometry x="350" y="-160" width="30" height="30" as="geometry"/>
                </mxCell>
                <mxCell id="MuvZenMTgrjQ6a0WK5JL-21" value="\(t_0\)" style="rounded=0;whiteSpace=wrap;html=1;fillColor=#dae8fc;strokeColor=#6c8ebf;" parent="1" vertex="1">
                    <mxGeometry x="380" y="-160" width="30" height="30" as="geometry"/>
                </mxCell>
                <mxCell id="MuvZenMTgrjQ6a0WK5JL-22" value="\(t_1\)" style="rounded=0;whiteSpace=wrap;html=1;fillColor=#dae8fc;strokeColor=#6c8ebf;" parent="1" vertex="1">
                    <mxGeometry x="410" y="-160" width="30" height="30" as="geometry"/>
                </mxCell>
                <mxCell id="MuvZenMTgrjQ6a0WK5JL-23" value="\(\ldots\)" style="rounded=0;whiteSpace=wrap;html=1;fillColor=#dae8fc;strokeColor=#6c8ebf;" parent="1" vertex="1">
                    <mxGeometry x="440" y="-160" width="30" height="30" as="geometry"/>
                </mxCell>
                <mxCell id="MuvZenMTgrjQ6a0WK5JL-24" value="\(t_{22}\)" style="rounded=0;whiteSpace=wrap;html=1;fillColor=#dae8fc;strokeColor=#6c8ebf;" parent="1" vertex="1">
                    <mxGeometry x="470" y="-160" width="30" height="30" as="geometry"/>
                </mxCell>
                <mxCell id="MuvZenMTgrjQ6a0WK5JL-25" value="\(t_{23}\)" style="rounded=0;whiteSpace=wrap;html=1;fillColor=#dae8fc;strokeColor=#6c8ebf;" parent="1" vertex="1">
                    <mxGeometry x="500" y="-160" width="30" height="30" as="geometry"/>
                </mxCell>
                <mxCell id="MuvZenMTgrjQ6a0WK5JL-26" value="\(t_{24}\)" style="rounded=0;whiteSpace=wrap;html=1;fillColor=#f8cecc;strokeColor=#b85450;" parent="1" vertex="1">
                    <mxGeometry x="530" y="-160" width="30" height="30" as="geometry"/>
                </mxCell>
                <mxCell id="MuvZenMTgrjQ6a0WK5JL-27" value="\(t_{25}\)" style="rounded=0;whiteSpace=wrap;html=1;fillColor=#f8cecc;strokeColor=#b85450;" parent="1" vertex="1">
                    <mxGeometry x="560" y="-160" width="30" height="30" as="geometry"/>
                </mxCell>
                <mxCell id="MuvZenMTgrjQ6a0WK5JL-28" value="\(\ldots\)" style="rounded=0;whiteSpace=wrap;html=1;fillColor=#f8cecc;strokeColor=#b85450;" parent="1" vertex="1">
                    <mxGeometry x="590" y="-160" width="30" height="30" as="geometry"/>
                </mxCell>
                <mxCell id="MuvZenMTgrjQ6a0WK5JL-29" value="\(t_{46}\)" style="rounded=0;whiteSpace=wrap;html=1;fillColor=#f8cecc;strokeColor=#b85450;" parent="1" vertex="1">
                    <mxGeometry x="620" y="-160" width="30" height="30" as="geometry"/>
                </mxCell>
                <mxCell id="MuvZenMTgrjQ6a0WK5JL-30" value="\(t_{47}\)" style="rounded=0;whiteSpace=wrap;html=1;fillColor=#f8cecc;strokeColor=#b85450;" parent="1" vertex="1">
                    <mxGeometry x="650" y="-160" width="30" height="30" as="geometry"/>
                </mxCell>
                <mxCell id="MuvZenMTgrjQ6a0WK5JL-31" value="" style="shape=waypoint;sketch=0;fillStyle=solid;size=6;pointerEvents=1;points=[];fillColor=none;resizable=0;rotatable=0;perimeter=centerPerimeter;snapToPoint=1;" parent="1" vertex="1">
                    <mxGeometry x="690" y="-155" width="20" height="20" as="geometry"/>
                </mxCell>
                <mxCell id="MuvZenMTgrjQ6a0WK5JL-32" value="" style="shape=waypoint;sketch=0;fillStyle=solid;size=6;pointerEvents=1;points=[];fillColor=none;resizable=0;rotatable=0;perimeter=centerPerimeter;snapToPoint=1;" parent="1" vertex="1">
                    <mxGeometry x="710" y="-155" width="20" height="20" as="geometry"/>
                </mxCell>
                <mxCell id="MuvZenMTgrjQ6a0WK5JL-33" value="" style="shape=waypoint;sketch=0;fillStyle=solid;size=6;pointerEvents=1;points=[];fillColor=none;resizable=0;rotatable=0;perimeter=centerPerimeter;snapToPoint=1;" parent="1" vertex="1">
                    <mxGeometry x="730" y="-155" width="20" height="20" as="geometry"/>
                </mxCell>
                <mxCell id="MuvZenMTgrjQ6a0WK5JL-34" value="\(t_{12284}\)" style="rounded=0;whiteSpace=wrap;html=1;fillColor=#f8cecc;strokeColor=#b85450;" parent="1" vertex="1">
                    <mxGeometry x="1120" y="-160" width="40" height="30" as="geometry"/>
                </mxCell>
                <mxCell id="MuvZenMTgrjQ6a0WK5JL-35" value="\(t_{12283}\)" style="rounded=0;whiteSpace=wrap;html=1;fillColor=#f8cecc;strokeColor=#b85450;" parent="1" vertex="1">
                    <mxGeometry x="1080" y="-160" width="40" height="30" as="geometry"/>
                </mxCell>
                <mxCell id="MuvZenMTgrjQ6a0WK5JL-36" value="\(\ldots\)" style="rounded=0;whiteSpace=wrap;html=1;fillColor=#f8cecc;strokeColor=#b85450;" parent="1" vertex="1">
                    <mxGeometry x="1040" y="-160" width="40" height="30" as="geometry"/>
                </mxCell>
                <mxCell id="MuvZenMTgrjQ6a0WK5JL-37" value="\(t_{12261}\)" style="rounded=0;whiteSpace=wrap;html=1;fillColor=#f8cecc;strokeColor=#b85450;" parent="1" vertex="1">
                    <mxGeometry x="960" y="-160" width="40" height="30" as="geometry"/>
                </mxCell>
                <mxCell id="MuvZenMTgrjQ6a0WK5JL-38" value="\(t_{12262}\)" style="rounded=0;whiteSpace=wrap;html=1;fillColor=#f8cecc;strokeColor=#b85450;" parent="1" vertex="1">
                    <mxGeometry x="1000" y="-160" width="40" height="30" as="geometry"/>
                </mxCell>
                <mxCell id="MuvZenMTgrjQ6a0WK5JL-39" value="\(t_{12260}\)" style="rounded=0;whiteSpace=wrap;html=1;fillColor=#dae8fc;strokeColor=#6c8ebf;" parent="1" vertex="1">
                    <mxGeometry x="920" y="-160" width="40" height="30" as="geometry"/>
                </mxCell>
                <mxCell id="MuvZenMTgrjQ6a0WK5JL-40" value="\(t_{12259}\)" style="rounded=0;whiteSpace=wrap;html=1;fillColor=#dae8fc;strokeColor=#6c8ebf;" parent="1" vertex="1">
                    <mxGeometry x="880" y="-160" width="40" height="30" as="geometry"/>
                </mxCell>
                <mxCell id="MuvZenMTgrjQ6a0WK5JL-41" value="\(\ldots\)" style="rounded=0;whiteSpace=wrap;html=1;fillColor=#dae8fc;strokeColor=#6c8ebf;" parent="1" vertex="1">
                    <mxGeometry x="840" y="-160" width="40" height="30" as="geometry"/>
                </mxCell>
                <mxCell id="MuvZenMTgrjQ6a0WK5JL-42" value="\(t_{12237}\)" style="rounded=0;whiteSpace=wrap;html=1;fillColor=#dae8fc;strokeColor=#6c8ebf;" parent="1" vertex="1">
                    <mxGeometry x="760" y="-160" width="40" height="30" as="geometry"/>
                </mxCell>
                <mxCell id="MuvZenMTgrjQ6a0WK5JL-43" value="\(t_{12238}\)" style="rounded=0;whiteSpace=wrap;html=1;fillColor=#dae8fc;strokeColor=#6c8ebf;" parent="1" vertex="1">
                    <mxGeometry x="800" y="-160" width="40" height="30" as="geometry"/>
                </mxCell>
                <mxCell id="MuvZenMTgrjQ6a0WK5JL-45" value="" style="shape=image;verticalLabelPosition=bottom;labelBackgroundColor=default;verticalAlign=top;aspect=fixed;imageAspect=0;image=data:image/png,iVBORw0KGgoAAAANSUhEUgAABOUAAAFMCAIAAAALFp9RAAAAAXNSR0IArs4c6QAAIABJREFUeAHsfQd0HcX191rBOBA+4QIhJIGl2hCMIWATWjAQsGkh9BCH0ELyB0JwQsm6YJ6r3HvBxr1gYxssl5XcJffe5V5kW5KLJMuSbEm2ynvznfvmad9q62yZ3ZU87/jIs7NT7r2/mdm5U+7lEPsxCTAJMAkwCTAJMAkwCTAJMAkwCTAJMAkwCQRPAlzwSGIUMQkwCTAJMAkwCTAJMAkwCTAJMAkwCTAJMAkgpq+yRsAkwCTAJMAkwCTAJMAkwCTAJMAkwCTAJBBECTB9NYioMJqYBJgEmASYBJgEmASYBJgEmASYBJgEmASYvsraAJMAkwCTAJMAkwCTAJMAkwCTAJMAkwCTQBAlwPTVIKLCaGISYBJgEmASYBJgEmASYBJgEmASYBJgEmD6KmsDTAJMAkwCTAJMAkwCTAJMAkwCTAJMAkwCQZQA01eDiAqjiUmASYBJgEmASYBJgEmASYBJgEmASYBJ4JLTV8PhcHZ2dlFRUTH7MQkwCTAJMAkwCTAJMAkwCTAJMAkwCTAJ+CeBoqKi7OzscDisp5lfcvpqdnY2x35MAkwCTAJMAkwCTAJMAkwCTAJMAkwCTALBkEB2djbTV2MSKCoq4jguOzvbv0WEYNVcWFiYmZlZWFgYLLIuVWoYHIFCnsHB4AiUBAJFDOsdwYGDYREcLIqLixkcDI5ASSBQxOj1DrybWFRUxPTVmASKi4s5jisuLtaTyKUWHw6H8/PzDbbgLzWB+Msvg8Nf+StqZ3AoBOLvI4PDX/kramdwKATi4yPDwkfhq6tmcKhl4mMMg8NH4aur1oPDVDu75M4Dm0pELdy6HaPXdOo214HljsERKGgYHAyOQEkgUMSw3hEcOBgWwcECIcTgYHAESgKBIkavd5hqZ0xfDRSOPhCj13R8IIVVyb5zAWsDrHcEChAGB4MjUBIIDjGsawQHC6avBgoLBkdtgYPpq0qkTCWizFDXn9l3LlAIMzgYHIGSQKCIYb2DwREoCQSHGNY1goMFU5AChQWDo7bAYaqdsf3VoEHpNT3sO+e1xA3rY3AYisfrlwwOryVuWB+Dw1A8Xr9kcHgtcf36GBb6svHhDYPDB6HrV8ng0JeND2/04GD6qhIMU4koM9T1Z72mU9f5Dih/DI5AAcPgYHAESAJpSWhFXyU9K/qitCRlpCfPrHd4ImaiShgWRGLyKhGDwytJE9XD4CASk1eJ9OAw1c7Y/qpXEAW1Hr2mE1R66zhdDI5AAczgYHAESAIr+qJQYg2VVR3jIbmsd3gobJOqGBYmAvL2NYPDW3mb1MbgMBGQt6/14GD6qhIHU4koM9T1Z72mU9f5Dih/DI5AAcPgYHAESgKgrIYS0Zz/Q/sXoiVfK9VXb2llvcNbeRvVxrAwko7n7xgcnovcqEIGh5F0PH+nB4epdsb2Vz3HKmAV6jWdgJF5qZDD4AgU0gwOBkegJADEYJU1lOivssqsmASqYbCRisERKAkEihjWO2oFHExfVcJkKhFlhrr+zHpyoBBmcDA4AiWBQBHDekcMDqysdmviLzoMDn/lL6+dYSGXhu9hBofvEMgJYHDIpeF7WA8OU+2M7a/6jp3PBOg1HZ/JulSrZ3AECnkGB4MjUBIAYtKSYGeV7a8GDhg/CWIjlZ/SV9XN4FCJxM8IBoef0lfVrQcH01eVojKViDJDXX/Wazo0+M4pLMvIKVL/yykso1FdbSzTSzhqo3w8ppnB4bHAjatjcMQPA/f4OUrv4++RYAaHcXP18i3Dwktpm9bF4DAVkZcJGBxeStu0Lj04TLUztr9qKts6nkCv6bjOdk5hWdPOqbwgqv817ZzKVFYscM/gcB3fOlkggyNQsF7qcOCbq8kfgpo6vCVAw+wDB6qB+kfMpd41/JO8Zs0MDk2x+BXJ4PBL8pr16sHB9FWluEwlosxQ15/1mo7rfGfkFKk1VSkmI6fI9RprY4GewVEbheM9zQwO72VuUOOlDgf2v7p1CuirU1+JCYr5XzVoMZfMq0u9awQMaAZHoABhcNQKOEy1M7a/GigcfSDGs57M9FUSdD2Dg4QYlobBEag2wOAAOJb3BH11fnvfofEMDnaRxBRrz7AwpYQlYKazg9YGPO0deFVRIQL/VhUVhAThUQ8Opq8q0TGViDJDXX/Wazqu8830VRKRegYHCTEsDYMjUG2AwQFw/PhP0FdXDfQdGm/gCOxFkkBp0d5g4XuTqy0EeAlHoNphMAHyEg6NOxq+3toIICJ6cJhqZ2x/NYBoekqSXtNxnQimr5KI1DM4SIhhaRgcgWoDDA6AY8KzoK/umu07NN7AEcwPR9C0aG+w8L3J1RYCPIMjaO0wmAB5BkeMfaygpveBR6asqtqEHhxMX1WKylQiygx1/Vmv6bjOdzCnHa6z6bBAz+BwSOclkp3BESigGRwAx6C7QF/N2uQ7NN7AEcwPR9Co8gYL35tcbSHAMziC1g6DCZBncMTZn98eRumujeDvir7xeF9CATuirAeHqXbG9ld9aT4BqlSv6bhOIhtYSUTqGRwkxLA0DI5AtQEGB6qqQF0bwhzo3CnfofEGjmB+OIJGlTdY+N7kagsBnsERtHYYTIA8gyPOfqoAo3QoEXW/Jh7pV0i9x6uO8ZA2PTiYvqoEwVQiygx1/Vmv6bjONxtYSUTqGRwkxLA0DI5AtQEGBzp7NDoHuhaFw75D4w0cwfxwBI0qb7DwvcnVFgI8gyNo7TCYAHkGR5z9/k1j+moQ9lelY8lLQ6is0PcjynpwmGpnbH813sAuzZBe03FdGuyiBYlIPYODhBiWhsERqDbgHRwBO0AVRyFzFUyDht2HY/w1teINHMGckQeNKm+wiLXDwPaOeD/xOeQZHEFrhz7LXad6z+CI1b+se1xZTf0fhH0/EiyprHjX11d69OBg+qqy/ZpKRJmhrj/rNR0afOcUlv24NZsXxDu+Wog9r64/ciYjpyinsIxGdbWxTC/hqI3y8ZhmBofHAjeuzjs41Mel1DHGtFJ6u20azH6mvIQQ8n0F0Bs4gjkjDxpV3mARa9TqvqCOodT+a0mxnsERtHYYTHw8gwPYx30Bq4WhRLQ72ff9zDgooavh89GtcTzGj5AeHKbaGdtf9QOuINWp13Qo0Thp7VFeEN+ZsPGBXkt5Qdx2/CylimppsR7DUUul5BnZDA7PRE1Skadw4GnH8h5o9xyU1isoa+RpSUDJ/E8RQr5PVb2Bw3c2NVtm0KjyBou4KOQKqjwcT3FJhzyDI2jtMJioewYHsJ+WhCY+D6M0/re8J0QGwf/q0lCcKra/GsyWqqDKVINXpK/zj572ZIT++/12XhAHLTnQbux6XhBnbc6q8xK2xKDHcFii7RJMzOAIFOhewyFfKff1Ax9HYc6HMOdY2f/S0VdzCstu75SKz+Mo/jbtnOrX2Zyg6Qledw1pHwlb/wpI74j3E59DnsERtHbos9x1qvcMjlj9k1+EUXp4S/g7o50OUd5GS9+ykQ/5vt+rB4epdubb/uqsWbNat27dsGHDK6+8skWLFn379q2oqCABsKSkJCkp6f777/9//+//XXbZZdddd93zzz8/b948krwIIVOJEJZTZ5LpNR1KDD4xIJ0XxLT9uV3mZvCCmJS6l1JFtbRYj+GopVLyjGwGh2eiJqnIazjC4diCdNeGJOR5kQav3O+cdenoqwih9jO28YL4wrDVGTlFf5+0iRfEL2fv8Pciie+HsRWNzeuugRAqyon1jtDVYAaM/WQS8AyOoLVDSQb+Xq2XyMABz+CA6qoqUc/roWus/wb+DmmhIMaHR6ysfvMI0LP4KyDA1zMRenCYamf+6Kvt27fnOO6yyy5r06bNK6+80rBhQ47jHn300bIyk3uMZ86c+c1vfsNx3FVXXdWmTZs33njjvvvu46K/Tz+FI1KmP1OJmJZQxxLoNR0abBaVVeAF8oKS8snr4GDw3yf570WQBqe2y/QSDttEXjoZGRyBwtprOOZ/Wj0jD4bBDITQ4OZA0vENdVtflU92l+/LvbWjyAvi9I3HcwrLpm88zgvim2PW+94ycwrLXv9mLS+IXeZmZOQUSf982fL1umsghL77c7x3dG2M5n6sRMTjM5BBsgLlJRwHThXf2jGFF8QFO0/0X7SfF8TW/dPZao68NXoJBzqxDfpF0g3ofF6sg1w8LyfGh3BaEkrvg/rdBvQcWREjwOPuKWNbDw5T7cwHfTU5ORkrnFu3bsUs5Ofn33333RzHff755zKmNIKffvopx3H3339/QUGB9DolJeWyyy7jOG79evNvmKlEpGIvkYBe06HB/qqDebwg/r5vGkJo7aF8GFj7QZj9JAl4CYdUKQvoSYDBoScZX+I9hUM6QBVKRD1/AV963w89VlXGHNAXn6zD+qrxltGqA/ARueOrhZVVPnv0uVBR1ewrOKi892SxL91BXqmnXUPanwklIvFzJLnumP5mnCTvN3DUNapj4vTRDXkJx9ztObwgPjkgPRKJFJaWY931UO45uhwalh60U8pewoHWj4KPxbTXQEK4a2QFYFfm5A6gquf1qPKiIXRevNSDw1Q780FfbdWqFcdxPXtGbyFXC2f16tUcxzVo0KCoqKg6TuP/5s2bcxw3axachpL/nn76aY7jBg0aJI/UDJtKRDNXHY7Uazo0WB6+/CAviJ9M34YQyi2+wAvizR3ECxVVNOqqpWV6CUctFZGXZDM4vJS2aV3ewYFnun1vgW88/resGwT8VVkLjwMN3a/Bzld9nxRSgsOYr51Zhc2/XsQLYkaO0VTBtC05T5C2L5cXxIeSlkUiEeelOSyBEhbaVOHe0a0xtMZTu1B5KRrxu1g3GfsUnIf0S1HE9aZ8iSIR32iIisxLOP45ZTMviAMW78dgvTcRDswPrH7URpByrHEX9r7negkHmvk36AurBoCMp7wE4S0TKcuboPhVA4CS7/5MkJR6Ej04TLUzr/XVnJwcfHw3MzNTIZUbbriB47jp06cr4uWPLVu2NNBXp0yZIk+sGTaViGauOhyp13RosPz3STCwjlsN0EcikeYhmHbsO+X/4jQNZu2V6SUc9ii8pHIxOAIFt3dwpCWhVAE+8N0ao6RfQ+DkDpgBpyX5KZCja4CSofdiGnyfFFKCw5Svt8Zt4AVxyjqf70x+lQwmGDrN2eVnk6iumxIW1cXX/D8tCf34D2iKA+8EzTD6OUeTXoCYUGLsCIBfKzuLv4qR4evqkmdwlFysbNoZNvn3nIjNo5K3wXZr635pPi6jmHbhmu2J+pNncEB3wHuqR9cAV4s7Q2tM+YI6h6YVTHgWKNn4rWlCDxLowWGqnXmtry5YsIDjuMaNNfz/vPzyyxzHffnllwby6tKli9554F/84hfGe7O4WFOJGNReJ1/pNR3XmY1EIvf3AB82W47FznK/NHINvnThel2WCpTflZLuIPl1/cMzOCyJ6JJNzOAIFPSewrF2GHzgJ/0Rjf0DBHbP8V8U26cDJZNfxJQYn5v14BYlJThMJ7uDlhzgBfE/32/3EZFIJPJw7+W8IC7fd9pHMqSqKWEhla8MiJ9BU5zfvkb86sEQiY8A1Hjh4cOWSf7TgJBncMzfcUKhnZZcrMTH1HdmF3oo9xpVmXbhGqnpP3gGByrIhObXrQmqiNriwSP2hOfos2hYw4UiWHgNJQJ5AfjpwWGqnXmtrw4bNozjuHvvja0Qy0WH76a+9lr02Lf8hSxcUlLStm1bfP21bdu2f/7zn++//36O4x555JH9+2PHIWTJY8GLFy8WV/+ys7M5jissLAyzX1QClZWVeXl5lZWVtOWRVVDCC+ItHVNKL1bguj6fBb5tBi/ZT7tqg/KzCkrw8qTCUwIviE07p2YVlBjkpfHKMzhoEF/3ymRwBApTL+GIjG+LQonh9d9EfvgAAisH+C+KtN4olBiZ+4lESVZByc6sszuzzj43ZCUviCOWH8SP3gxclODYmXVWPRpLMTuzzqbvOx21g7BckoP3gT0ninhBbPZVqvQ5C4fDkeW9wul9lMSk94F4yj9KWGhTXVUVGfQb6BT7UmokmPdvaJ9RlVVDDjWS0nqIDLsfaOjaCMhTY0GrWmW5nsHx4dQtvCD2Tt0rp+DjaRDZfcFueaSXYdMu7CUx4XDYMzjC276D5jf2DzEGT8Ct0UjvG8NVVR6zXKO6PfOAjKG/rRHp34MeHIWFhRzHFRfrnrj0Wl/t1asXVi/VWmWnTp04jmvTpo36lTymoqLiiy++qFevHj5XzHFckyZNQqHQ+fO6NrhCoZCUWDqNnM9+UQnk5uYePnw4NzeXtjxmrAHLdW0GpkkVDUzZyQviPyaul2K8D6zefUyaCakDq3cf85gkz+DwmK9aWh2DI1DAeQbHmawDkahjyYIjO0pFOGF4YeYHvoviwvfvo1BiSWpITckHE9bxgjh00S71K3oxlOAwHZMzs0/hsfrAsZP0uDMuub8IH6+/jlkjT1aS+nUUoK+lSHWM9MrdACUsNIk8ux/OpUe6X5t/MktKgDnFe5ulCzoo5CAloxooETthAs7uW3VwTs+MLi02zeyzevcx+b+MIzlUacCFewNH1onTzaKHgeUTlYwjOYNToXHe23XRyoyjEu/eMI7ZN+3CHkAgr8IbOPLz8y/MhHPypXM/j9V+OgcvnRQc9XRklvOen59fNuufKJRY9uMnini/HvXgyMzMrFP66smTJ1u1atWgQYNevXplZmaWlJRs2rSpTZs2HMfdc889585pm0Rj+6sGKyl6Sx0GWey96iXu4QWx4487pexLdp/kBfGZISulGO8Dl+5CoPeyroU1etY7aqFsfCDZOzi2ToUZ+TePAJPRM12RCc/5wHDNKiMT4YpgePv0mtHwFJoHdyl7pexRv6IXQwkOkjH5qYEreEFclHGSHnfGJb8yCjzZTFl3VJksvU98Z08eVqZz+ZkSFtpUrgTbLZGpr8bfVnMaiV7eC2dtClfHxNPQDkVrBMIG3pl15ry/x6bowSEdqdiZdXZU+iFeEB/ouXTH8QJ8pCIg58VIujDt5iAvnx4c8lrghMXwVtD99y6Q4iMjHoCY/YukGK8D0mmI/Qu9rlqnPj04Are/6vA8MLYD3K9fP8WOK3aH8/XXX8vjNcOmJ6Q1c9XhSL2j5K6z/MZo2AGYuTlLKvloPpwQbto5tSrsm33FS/eihQQDC+hLwLPeoU8CexOXgHdwTP8LbNRg60pZGyE88M44HX6FhrQASo6tU9c/Kv0wL4j/nenplU5KcJCMycIPsIPUO3WfWhQexBSUlN/cAVzCnijU8hiPG0/0SKpnBqUpYaEtzOhRebRpbPyt5Pt04vPQRLdHrWZ6bJ8sLQmNaQ21i5+RNKE48RRClOAwvbLuO+NYlqZ0UhC5UZGU4FBWWVoAzS+UiErOxF/Nfg9iVpv7LolncTeUtx8I6H4t2PEOxk8PDlPtzOvzwPPnz8cneNVyw/aWvvhC15SWZFs4Oztbkb1bt24cxz388MOKePWjqUTUWep2jF7TcZfrqnDkzi4LeUE8cDq+B14VjtwePc1y/IxvHSkg47skbW/gkKpjAWMJMDiM5ePxW4/gKC9FPa6Db/zJHcBgST6EQ1ejigse81ujunBVzGZGUU6N+OjDD1uyeUF8a9wG9St6MZTgIJnsztyUxQvi66M1VHd6/EqW+YYuA4NPrfunY/t8StNW2AGjt2aHKGGhIczSAhQ9Ko8K40vP8WQL/gudZWnXeIxnoUgEDbgDaj+41PfPOiU4TPkyTeAZGjmFZZ/P2sEL4j+nbL5UzFjuT4XmN7xlDSGv7A+RP3xQI9LLh3UjgIApL3lZp3Fder3DVDvzWl/F5o44jrPhz2bdunX49qn6Pu6QIUM4jrvjjjuMxYQQMpWIaQl1LIFe03GXzX2ninlB/E2XhYqt1LaDwUyIjyYWgzO+Y4F7A4e74Nbh0hgcgQLXIzj2pcAHftBdcV8dvX4FMXm6Jv28kFJRNtDQrTEKazisXnkgD6wDDFrpBSXVddCDA2uG707YyAti13m7pfmupBkeyj2HzR1VVIWryaH7P4kWHaNg1ruAVOhq+OuVWxd6WCjFunMm8DXyIWU8fl7/Dbyd0U77LdXYk2DbBvW8HlVc8P2zTgkOU75ME1BFQFF4u7HreUGcvvG4It77R0pwKBlZ0gVa4LxPasTvX2jUX2okpfOAfcCuG0GndDul6sFhqp15ra8ihFq1asVxXM+ePeWMrl69muO4Bg0aGPikOX78ONZXlyxZIs+LEHrzzTc5jnv22WcV8epHU4mos3gQIy3cSh9m7YVbCqToNR13q/p+03FeEN8cs15R7MffbeUFcczKw4p4zx4DNb4jD+3geybhWl2RN72jVovIS+I9gmPuxzDDkDvN++YRiNmf6iWzyrqOrQMahrRQxkef8YLgvd0Wa76lFEkbDuyv+7sNGvPdcDhyd9R9t2dOO0i/FCv6Akyw3tEclFWvVFbaWMSb0Gww+qW7g3p4ObxVbDHFM9MM4furUVWZFCxq5FCCw5Qv0wTUOFYWHA5Hmn+9iBfE3SeKlO88f6YEh5KPcU9D49/+XY34wuMQ2a0JqiyvEe/NQ3kpnAT2fbG1JrN6cJhqZz7oq8nJydghzdatWzEXZ86cwRdQP//8c4mvOXPmNGvW7Mknn5RiJF33zjvvPHo07it86tSp2Fzw1KlT5Yk1w6YS0cxFNdLCwi0FOvSajitVSXr4P6eAgfXPZu5Q6OHYk96Xs6Pn7lyp0mIhwRnfMeFU4bAoG5bcOzd6TNYkEvCid4SrUN9b4AN/OC1O0sy/Qcy6kfEY70M7vgcaJr2gWXNBSTk2mVte6dF+oweLa9jkwfwdJzRZfns87L5OXOORR0GiLwVWUBdFrdR2a4LCYc9UVi+6BkKoqhL1vgHa4XHl0nMMI+kUQFWFJmoUI/Hl1a1TEEJEYFEkhdaHw5Qv0wQ0ma5R9uG88x6fgKhRfc0HL3pHxQXU/RroGmdq7r5EIijp1xB/endNomg+SffJDy6BqvFZIY/vk+vzpweHqXZmTV9dtWrV66+//qtf/eryyy9///33MT1Llizp2LHjqVOn9MlTvsGuVuvXr//MM8+8+uqrDRs2xE5uysri1gsmTpzIcRzP8/LMGRkZ11xzDcdxP/3pTx9//PHXXnvtrrvuwpuub731ViRibrbHVCLy6rwJ+zvE6DUd57yT6OHY2/XLI9c4r85eCSRE2ivZXi56cNij5xLPxeAIVAOgCIf0gT++Hj7wSTegqgpQNrDJpSXgpwSJ8eVUH8Syoh/QMPdjzarD4citHVN0LQBp5nEcSRGOKG3PDlnFC2L6/lxNSocuO8gL4r+nb9N863ok0Wcat6Kqithh4PN5QIbUilynSVYgbSxiVR1bC42wD695KB3ShMNwIjeUiPIPyqijHyw+CZWGrkbnobUQgUWTKEpwmPJlmoAm0zXKnrMNbtS/MmptjVifHijBAdxIHw58/qXfbXCLRNHlsX2ynbO841462ZH6P+gX8z/1bOGMhEc9OEy1Mwv6ao8ePRISEupV/9577z1M2caNGxMSEkaOtLb2PHPmzMceeywxMfGKK65o3rx5nz59ystrbJdr6qsIodOnTwuC0KJFi5/97GeXXXbZtdde27Zt25kzZ5KIKZj3V/0dYvSaDqE8DZKR8LX3JNxrbdF1Mclag0FdTl7lFJb9IeodYdCS/fLz2NJdKSeFW81LDw6rlLD0HuwgMSFbkgDF3iF94BeDt1U0+/0aH/gtkyBy6iuWqHU58dx/AQ3pffSKfTBpGS+I27MK9RK4Hk8Rjiitj/ZdzgvilmNn1ZTnFJZNWQeus1v2AOM60j96gzbJ5yxOZ7/bACxsryseSzFEFwtpUo5v6P34D+BEMSmXmBv9e+B9nyhFeBHYMhEq/TZ2HM8aWBToowSHKV+mCSjwql1kaN5uuHw+38NNRW1CIJYSHFC09OFYNRBa4PdvxWMkerARsiXm7kukHC4EMGF9bgKqsI1ir+7SmxKvB4dr+mpqamq9evVuuOGG2bNn5+Xl1atXT9JXEULXXXcdyd1RUzY8SGAqEQ9oUFTh7xCj13QURNp4JOHrQkXVTVHHAHnnLtqowpUseecu4qN0ued8tf8ZZYYeHK7I6lIrhMERKMTpwiH/wM98Gz7z0gc+cyU8Dr3XT2lMfhFowJ5CtOh4cfhqXhCX7Dmt9ZJKHF04ELqn22JeEA/KTMpjNnw5FEPyOYtLGetsBxbFYyiH6GIhTcqjziTRrtkak3KJwR8+gIa6aqAU4UXguz9DpStjng59aSFyNinBYdoIfWdcEsJLI9fwgjh3e7Uxc2nJQ0phsOQhT+NGmBIcMdJw7xh6H7TAqa/AX+nDgVNsGgeR015zgxUrZSzsAPXifwqSrBTjelo9OEy1M9L91bZt2/70pz/dvTu2WKLQV9u0aXPbbbe5zhWNAk0lQqNS4zJNxyDj7A7f6jUdh8WSn8n5fd80XhDXHZZ5rHJet5USZkddQbwwbLWVTLTS0oODFsV1ulwGR6DgpQ4H3lxVf+Djt/IqfRPI0Hth5nFU9+oEtk40bcMxzyikCkckErklesL5VJFyGdGXL6a1Sr97A8DaPKFuYAFc4El5KBF1bQTGltSTcolVfHB9zodSBPVARVnMAdWpDKkuyXbG6oNgOpsXxK3HCzJyiujtwEtV09vQI1FHJcYzcoqe6J/OC+K3K494xjgWQkVVGLsqzMwviYlFWvKQxKSOkV65HaA6UgGxUu/Q7Bf4jon3HrzxsSBvHWuRQKcHh6l2RqqvNm7c+LHHHpNIUeirf/3rX6+66irpbZADphLxnnhrH0K36dNrOs7rIeTrvYmbeEGcst67aZaCtX9FbRQPWOyrs4pqmujBUV0D+9+CBBgcFoRFPyl1OE7via1Gd7+mBjfhcMzK4tm4nb8aCWg/hMNgYTKUqO30Mlp7hx98OdZaAAAgAElEQVR38YI4aMkB2rRI5VOFo7S8EqsZJReVawSEXxaJTlcC1iqd3x7ASuvlStUkhVDFIkbAtNejvcPMT8/uZEhWfTSXhHinabDLkIG/iTmgqllcJBJpGnXznlXgnZt3enBgdXTz0QLcOzYfBSVcTx1tP2MbL4gj0g7VFAn1J9xZ7g4tqnHPCyt14mdoz1y0vAc0Eq82/ejBERNlJBLtGomoexMN4V4oir0t07jaoJHeraiRD0K9XRt5KWoS2vXgMNXOSPXVBg0avPHGGxIpCn31hRdeuPLKK6W3QQ6YSsR74q19CN2mT6/pOK+HkK9eKXt5QQzN8+eeQ2VVGPtF0Lwl5VwIVkugB4dVSlh6esvkTLb2JEC9d8z7JDaxUM+lhreCV4eX26Pcaa7iE7GZR5VSeZNKxrbWO/y4S4qhHaAKx+niC7wg3tIxpcaUN8oS4ZfFXfZzCsuwRSusJ8j/Nu2cqty1w1Pzuf9ylwaD0qhiEatXOl6oWM1RkJW7F9pq0g2a2qMirf1H+fnS+Z9CjeJnoP9gA2k1y23dD85wbTji3Rku2nDkRnvHzR1Ede+Qsz58Odgk++/32+WRHoSnbYC75W+N26Csy3gfUpnatWfacMTUb/XBHImDQc2hieqfjpESuhbA7p2g0tWx7V+vVgdMWdCDw1Q7I9VXb7zxxvvuu0+iQ6Gv3n777c2aNZPeBjlgKhHviffl6yuxqdd0pAS2A4R8zdyUxQviX8eqhjbbFVvJuCm6TnlPt8VVYXPj0lYKtpmWHhw2Cbq0szE4AoU/XTikudQ3j2p84PEJz03j/BHI8Q0w3Rnc3KB2PEf8+6TNBmncfUUVjkO557ApPjXNhF8WdUaHMX8du4EXxC9nx7yyGRl52joF8PLQQBdVLGJy++ZRYMp0u6byIuraEFKes+AzwjI0uLeu6Ata8YBmUN2P/4S/WpPyN8es5wUxeVv1XUrLlVnOQBsO7C3m7pDJBemFGSd5QfzjcK/vOv1v9k5eEPst2qchuFB0f75bY41X1KLowiF9OLo2BHt4mo0Q36/eMIYaizULlkjqcR2qjJqGkfpLzYS+POnBYaqdkeqr7dq1S0hIWLMmdnlGrq8uWLCgXr16H37o4XUFBzI2lYiDsm1mJbmTYLNogmx6TYcgq0kSkllFTmHZrM2gr97XfYn0+dc73GJSn63XfRfu4wXx0xkeOUUwpZEeHKZVswRqCTA41DLxMYYiHPhzjs0sTXweeFR84FMFmIgs6uQP+ztnQe2YMB0Kluw5zQviix7OTSnCgdDW42d5QXykj8aGNsmXRUdI9qPPlpTj/VW1/SeNQg8tBbxGPqTxik4UVSyAZGkGvPFbZddQc4TvWmeuVL9xMwaTtOA/IGp8Wl5LWUUI/Xfmdl4QR6Z7dyyWNhzbswp5QXy4t0bvkEv4UC44Qb2zy8Kwt8vxbQev5AVx0W7VgoXUijSVOjnproYpwoE5wm5jet8AVOMYqSnigwDLukMrnf9pjC2dgwCuMZ2WhKa+CjVO/lO8TNqVxmsyCenBYaqdkeqrW7du/clPfvLzn/88OTm5srJS0lcXLlx43XXXXX755Xv27DGhMRivTSXiC5nSFfm2g1fwgjhmxWGDOwnuUqjXdJzXYqqHmyZwToNpCdjF35xt2aYpvUlADw5v6K9jtTA4AgUoRTjwrGLzePjGT/9LjGv5B37DGHg1o50/AlnZH2pP/sigdjyFfTBpmUEad19RhAOhFQfATM4zQ1apafZFX526Ho44PqtFj5pChC9C96nhPV4jmXtRVLGITcEHt4BGuDPqO1AxKVcwEjuMMFYR7f4jmf7Tf9F+XhC/So5bY3Kfkpol0oUDodUH83lBbDvYZEWgoiqMF1mU59VrUuvuU2l55c1Rpw9KS2kYrInPQSsa/Rj8lZQ6dylQlUYRDvzhyNkC7Ay6K1az/MOBucYroWP/AAmM+46KeJsR098EklYPspmdZjY9OEy1M1J9FSE0ZMiQhOjvZz/7WUJCQmJi4tVXX409sg4fPpwmd26WbSoRNyuzXtbHUds/41ZnWs9qM4de07FZXM1sWA/Ht0cmrz0q7aDi0dOXaYecwFNFcEXqpg7imfO+edOR08MuTCqk4fsj1d7hO3e1jgDqcKweDN/4H/+pIZmDS+DVyAc1XnkQNe/fULvW3Typ8hOFZbwg3toxxbO9FKpwLNh5ghfE10evkxiUAr58OF77Zi0sJa88LJFhFCg7C3iFElFFmVEy995RxQIa3oq+aExr4Gj/whjV8km5ghFsZzv1f4po9x/Bzo35+VK81vD3SZvcJ0CnRLpwIIQP+r46aq1O/fHop6K+5dP358ajKIfwHasHei2tUY+kpG2fDq1o0gseqW1RImjDgY6kA1N6XwfMeygR9fql7oHhGsJy/FBViZJ+DSTlbHVclvsF6MFhqp1Z0FcRQosWLfrd736HddR60d8999yzYMEC9xmiVqKpRKjVTFQwNj7UfYF3m9V6TYeIXLJED/cGt+9bjytto/ky7ZC2sjNyigYuhmXXpwet8PIEsrHMPIDDmAD2Vi4BBodcGr6HqcOBT22lfKHB6ZnD8PnvcR1dKzIaFUejprwEtW+bpvceIVReGcZGgApKyg2SufiKKhzTNx7nBVFTx/D+YE722VK8sqncMtKTZiQS87BScEQvibvxVLGIkTr0t9AIj5nrSAhf35WfRXSXW6m0uR8DSQZ2bqIpl++Do/Kke+NS4Q4CtOHAt6jembDRlMYPp27hBXHsKo/aIUJo7KojvCB+MLnmRXq85IEQws5dBkWv4hsseZgyZiUBbTjQ3vnQCMc9rUtUWm+Shqqb3eqL7Oh+b+8bULjKalYP0uvBYaqdWdNXMSdnzpzZvHnzxo0bT5486QFv7lZhKhF3q7Na2sQ1mbwgfjRti9WMttPrNR3bBaoztugKbt8P5Z5TvPJeX/V+oqNg2fTRAzhMaWAJJAkwOCRRBCFAHY6UL2BWsay7BrOV5TErMsUefvWkSd6wqDP6zOjhWP1J3r3dYKTdd6pYg34KUVThGLPyMC+I/9ExbSpfduwh7olqIyvdXXaUV9FlbgYviC8MW22hiiH3QFsi0e7cgIYqFjEC+90KHMl8nOoSjs2DDfyNbgJXXkjbVvM/Nd6s23uymBfEe7stdqVakkJowzF+NUwUP5lubndjQHRRvsOPO0nIdiXNJ9PBic7w5Qe1Szt3GlpR14YxO0DaiVyOpQ0H2v4dMGVsX43gIIBrbK8aAPT4dXvFjA09OEy1Mzv6qhkxgX5vKhF/qV+8+xTYzBih6xTedfL0mo5bFQXK7bv3GrJVMdKGwyo9l3h6BkegGgB1OLCJ0dWDtbkefDdMArzSQIAGPCNP71Pt/fWY8by8zSAwc7LyQJ42/W7HUoUDz7O7zDW/c3iyCA5C84JIuvlJIAcXVjYnPAutZddsgtpcSEIVixh93a8FjgqPm5NbWgApQ4no4nnzxPZS4K6BDRGf3AFl4BitK5FFpRW4hZSVe7TdRBuOocvAUQ2J86q523N4QSQ5OWwPB3Wux6Leg1Yd1BmFIhHU83poG/k6Cq26RMcxtOFAG0YDR7Pe0aVUWlvx5tbu5BeBHs/MEeuyrf1CDw5T7Yzpq9oC9SsWK1Qte9Y8+k+TGr2m41adgXL7zvRVt2C9RMqh3TsuETG6xSZ1OKb/BT7zm8drE4wnAYaHcrUzOomVJjpdG8I1QsPpzlvjwOHKD1s8sh5HFY7QvN26LjFU8nxlFFwunbDGNbsPLnwpZr8PYK0dpiKWSgRVLIDiyovATigRlRUSMYA3Y0+YbwASlaZOlJaEcH/89sn4S52jB5FI5M4uC3lBPJJHTX+OEwEh2nDgi2O9UvbWrFbjafeJIl4Q7+m22NhTq0ZOK1HSYYR1h8EQFC+I6w+f0T2MMOphaEgH6s52N1rZDzia94m2zPAYPutdSNP/NvirtaqinddGbMUF1OPnUEuulj8hGwW6nUWvd7isr65bt65Hjx4fffTRe6rf+++/7zZTVMozlQiVWokLLSgpx739YmUdWQjEjq1v0nJs7cKcgFiwOKH3NVokkPp3zio9l3h6vYH1EheLX+xTh2Pi8/CZ19sTm98e3mqeFqYqkXmfQr1ml/Qkvx2j0slsAjmmmSoc2AfJNyuIeMHHI13cRHLhS7G4M0C2sKNjMRMVQBULoOB8XqwFEt6Iw9vL2JgwEQcWE4XD4I7Y7FK3VOiTA9J5QVxzKF+KoRqgDUeHH3fxgjhsmfkW5YWKqpui1nrzqRmVtHwYYUY7AG7DaKoQyAunDQda0gU40vR2Jm37nzsFabo2RMu6QYCeypq5Esrv39QfUwtyueuE9eAw1c5I91dLS0uff/55bB8YW1pS/E1ISNChLVjRphLxl9xIJNLsq1ReEI+dKfGGEr2m41bt2ANYcy3H1i7MCSxS6X2NFglk+qpVgdFNT7t30KW+zpVOHY5vHoUv/cEl2pJbMxTezn5P+y292C2ToN5QIup+jXElSal7eUHsOn+3cTK33lKF44PJm3lBnLbhGAm12NI7L4gni9yxx+vCl2LdSIDM4IggCWPEaahiAVRge2O9fklK0fzoIsvyHqTpraY7GPVw2/sGVF5KkhUfPZi1OYsksfM0tOH4V9SRBOGBgt/3TeMFcd3hM8750izBcmfBSzmpgmZpNCJpw4GwE+D03hrESzYIEEL4RsmhZaCsGhp71yiHPGp5Dxh5fviAPIfHKfXgMNXOSPXV9u3b16tXr3Hjxp9++unw4cMnaf085tledaYSsVesi7meiC4E0htcFKTqNR1FMtuPBo6tLS/L2SaiOiPRwCofX6oz0h1fpFronyOSVcWC5hKg3TvMKWApZBKgDseQqIfJ4+tldcqC2AjkmNayKE+CIx+C+UfXRvDXcFV+XNQKy8ffeeTDgCocfx6zjhfEeTtOEIoY+5txyxUc0ZfCmLLdcwCvcW2MU7n1lioWQGTOVmBnwB2kBK8bAeln/o00vdV0+Og+sc7z5ewdvCAOJdiQtEqIZnracLwzYSMviITq93sTN/GCOGU90dKPJjvGkZY7y6Zx0Da+e8O4WBff0oYD/fB34GjdCBOasX2EtF4myRy+HvsUELN1isNi6GXXg8NUOyPVV3/5y182atTo2DFaLZ6eaBQlm0pEkd77x7p0BwlVO7ZuM0jbsbV07WHz0YLbOqXwgijuPKF77cEWGFIVGTlFydvA9oDev4ycIqhBOr8hVaeOkV65HdDryW7Xw8ojkgCDg0hMXiWiDkffm+FLf1rHndjp3fC2941esRutJ70PVBpKRJkrNYammqTM36Hrs7RmQneeqMLx3NBVvCCmkfmNzCks6xW1EvzMYLASLP3Djr5tcGt5Cq6uA9vIHRz126F+63YMVSyAWOxhcsQDpITj/c8RvyNNbyldUU7MWHfefsJ8g5YcIDRQRFigcTLacLwavbC9MIPIVjm+7BqaR+vYheXOcng5DGjDWxnL0MW3tOEA3RtUxMkmNG8eD8kmvWCSzMnrC8WxlU0Su2hOKnKQVw8OU+2MVF+94oorXnzxRQcUBiWrqUR8JxQvBJLcTHCFVL2m40rhCKHUXScJzdO9PR6WDEkdspPRZ7CFq9ZaY/qqQmX1UFn1wE4DmdhYqpgEaPcOJmhLEqALRySCujWB+USRjr2i8hJ4G0pEpQWWyLafGA8++CRwRfSkq+FwtOHIGV4QH++fbr9GKzmpwoEPMW45Zi5qg0G+aedUeyqr5Sm4Wm6Fx6GpdL/Gm1tkVLEA5vbMA3bGPqVmVDvm7LEY+1WV2gmcxGLDYxOeIy/j+03gzpfEYSl5mQYpacOBLYETXseduTmLF8R2Y3WOjRiwQfbKcmcpyIy2jWtROExWg9NUtOFA+Lb27jkmhJ7eA4z3vB7R6BS47gOLoIohLUwo8fW1Hhym2hmpvnrHHXe89NJLvvLoTuWmEnGnGgelDF6KFwI98pel13QccFAjKx4rSb4T2Pfsm2PcHFWNR1K5yqqc2cRmildD5zc8g1eDW8cPtOFwTOClVQCDI1B404Wjogw6eygRXYies9DkvH9TSJDjlX/stCQ0/U2occKzcXL07z4dyTvPC+JvuiyMJ6YZogoH9iV74LTSa7eaIeNBPr4Kqc6pH+NCmZXlseZU4oWNH6pYgJy2TQV2jD1MyuUZDseMlJ4hspglz6odlu7pVFWiAc2AmF2z4dNMdg9w5YE8XhD1znlp1+ggljYcD/dezgvijiwiW81bj5/lBfGBXrS8TljuLFWVqFtjQFBvZdCB5DWz0oYDffMIsHPITMLhMOp9A6SkZzd7YUcof96/NeUQkEg9OEy1M1J9tXv37g0bNiwsJOoeARGKJhmmEtHM5WUkVvD+Nn6jN5XqNR23asdXqv5FcKXqaH4JL4i3dUo5d6HCrdqNR9LkbTlGJ8ewb7euDd0ihqQc2nCQ0MDSSBJgcEiiCEKALhznc+FLH7raaNV/fFtIo2dAmIaM8M0ositP5y9W4jW4kosUNrVU3NGDIxKJ3NoRroeQ2E8yHuTt6avu7Nn2vQVay6ldKsm5H0EPixitMfNR71ogfVR0Er/fpdUT6WTB3gUg1b63oLReECBbTT6Ue44XRE27jxY4Ik5KG467Q4t4QTxM5p6n+ELM/WyxezMruSTsdMAh9wB2mavk5dAL04YD9jNDiSiLYNI+7TVIuX6Um8xKSzkIIdzpMn4gX8pxkxKysvTgMNXOSPXV8vLyRx999MEHH9y719zjExnN/qQylYg/ZMlqXXMIHFg9NXCFLI5iUK/puFXlkKWkjq0RQo/3B6PzCzNOuVW7nZEU1y2dxAslovQ+btFjWg5tOEwJYAnkEmBwyKXhe5guHPmHYCaR9GsjNpM/gjQr+hmlcfFdJBLbSsrUvv+vrgr7mTya74V5eXpwlJVXYcX7PIHibX+QV4tPFpNTWIbv5rwzfoO0rGnNtgLedfHEzyQ9LGIiSe8NLX/+pzIJmQVnvwdZ1gwxS0f8Hn+Uh9wLxeKVIzJlFSFUUr2UQ9KiiAnSTUgVjkgkcnPURU1u8QVdCmq+eKDXUl4Qtx4/WzPanSc7HXDKywCi6YVPdwik73YBGz7IJVCOVvYHxme+7RJn0WKkpZySfCg8lIiWfA1/iXuHm8QQlKXXO0y1M1J9FSFUWlraokWLn/zkJzfffHPr1q2fqPl78kmZ12YCiv1KYioRvwiT6s2MbjP+pstCqv6dper0mo6UwGGgZ9QMBolja4RQ1/ngI77Dj66dhbYzkkr3V5f3Qr1+Fev/XvV82nA4RPNSy87gCBTidOHI2QKdfeBvtFnGa9gron7hkz+KpSE+jqhdpmksdiLS/RqEL6+apkfosX7gu2Jjpvm1T4LCTJLQgwN77b5Zy2u3miabg7y6IFXMn0asIbfCqsqN0LTXoUVtmajxyu0oeljEKMXnDBd/RUQ47ixYxZ37cSyLK51lYYfYF9n6dBzvSR4kOGFOxKNhIqpwSLp3WXmVIRXxl+3GrucFcSYddz45hWW3dwYvjOp/ymtWEkXiZ4Dj0q5SBNUAVTiA8u7XADskx5uProaUA5q5fK0dq6wz34HC+90Kf72astoATg8OU+2MVF89e/bs/fffn5CQoHC7Kj0y/6s2YNPMcqEitrRcVOrasVjNinCkXtMxyGLplfDDTkLH1qAnRi+Z/K7XMrd0dTtTGWmxCiH04z+g54/9g2f9nzYclrBjiRkcgWoDdOE4nAbdXM+iaWxC8DakGd8WxCIfKCiJactEqE5+edWsIuzWZcFOUjcwZuUZvacHB/bafbeW1241QXYGeXUpqpiisgq8i3Wi0K5PV+yDlOyCpap+axH0sIjRMfdjaIoryU4WyDvLuKehBLc6Cy6HwBexWnzYRtGKA3nqV67HUIXjdPEFXhBv6ZhCPk0KzYOdAMJtAxvSGLPyMC+ILXss3ZFVSHQYYe1waE51wztx5UXgxdjwgSTT8tKYVb+zR6U4dwJS1wi2smpgVdQ1ffXDDz+sV69e06ZNBw8eLIriCq2fO0KnXIqpRCjXT1T8fd2X8IK450QxUWpniagOrAihj604tr5QUdXsK1io23vSHd7tTGXklwH2L4RhqH9TOBJcN6YdzlrLpZabdu+41OTpkF+6cGALqHh6rUmoNCHo39S1+bdmRVJk7PJqkhRhGvh42lZeECesyTRN6TwBPTi2RS3EPNx7OQmRdgZ5gnIX7z7FC+ITAxwYW8a+iOZ9QlCb0yT0sIhR9v1b8CncMIaUUKmz9L4Rvp6uzKEjEYQPXmJrPRZ3kLDP0hkbj5Oy4CAdVTjwak6LrovJCZyy/hgviO9N3ESexVLKF6MnEUakHSLNtU+EJjH6MdL0ztJRhQNJp3DDZNvd3z4JvO/43hlPqtwx+wuJYMsq2D89OEy1M9L91euvv/4Xv/jF2bNUjr97KVtTiXhJjF5dLwxbzQvi0j2n9RK4GK/XdNyq4m9RLzWzt+i4iFBVg31bj0p3x6ig06lMZTlKitpzO7pGRSmVCNpwUCG67hbK4AgUtnThiFlAfdWI5aVdYaqB/1mcLhsVq/kuEoGVMotWSfBGSp+F+zSLdDeSHhzYmmvbwUS3dp0O8jpC+XpuBi+IXyVn6LwniN46GeCbatiiCIohSUIPi1jtk18EXnbMICEmlmZ5z1hPcUVZRQgt+C8U2LURulBsY8Gow4+7eEEcuOSABRbsJqUKx/asQl4QCVdzMAfrDoOnq9/3TbPLkFE+3AFv65SSf/6iUTr5O+zZJekGl4/FyquQhanCgQqOQLPs9UtZhYbBRZ0g/YL/GCay/nLCM9Hu5rVLC+uE6l4nNtXOSPXVK6+88pVXXrFBWdCymEokCAT/c8pmXhCnrHP7wIAWb3R7MkIvj4QrQOQmlKasO8oL4uuj12kRqxGXU1gmP38ihbHbPRfMPGILK+JnGnVTiKINBwWS63KRDI5AoUsXDkILqKHohKBrI+qSwfaful+LKkitqiCERqQd4gXxs5k7qJOHdKcdzqtOiXrtfu2btSRFuTDIa1Xz5ADHxv8OLoUZ5KiHtYp3OY5u10AIjXkceNmXYo1u3Flc2fCRNmy/fytGA44hXjYatgxMP34xq3Z3DYTQqoPgm4dwNQfLKv/8RV4Qb+ogXqgg2wM0g1k+7/rHZJivvjUOzJKRujsuL40qVx75sqbbO07uAF4GNDOTWfV7fJBn5IPVz278v6xbTJ57F9hYynGDAgtl6MFhqp2R6qstWrR47jkL3pkt0O5tUlOJeEuOdm14jbx3au1eI8e8PT1oBS+IhI6tcwrLlu45zQvizR3E9UfOKJRPtbBIZiqZ+eebRY0B/LA1WyrQwsCK5xz9bkWEhz3UVFqJ0evJVspgaV2TAIPDNVG6URBdOPCpRWMLqNKkOZRI/YLA5gkwBZlg7bM7a3MWnju6IW+TMujB8f2m45aOL8pnz09Fvzij0g9ZGORVjJ4sKsOfIUdWJE5lAIJ9blIV734EPSxitA67D3g5utoC6fLOQqxV6pa/vBfY7g4loj1z42ms2HCavSWbF8S/jt0Qz04tRBWOVCurOQihnMKyXdmFd0Vd4MzdbujDj0wgJPMu85Lw4ZFsL3xZU4UDOkUoEQ1vac4yTiE5TitzyT+o1NGGt4o5Y7O4lENKuUvp9OAw1c5I9dWhQ4f+7Gc/y84mPdXpEl/uF2MqEfertF7ityuP8IL47+nbrGe1nEOv6VguSCfDg0nLeEHcmW3eM20MgiQnwdL35/KC2Krn0nA4okOjYXRVBerDw3h0xAsPQ7ThMGSVvVRKgMGhlIivz3ThwMe0DCyg4klAWlLsmK5bpxz1RDr7fRh2LF6bxybrLO296NVvGk8PjrGr4Av46Qw7X0B87LOvsxPRWLd5cYSzayClBYBgKNHSDrmp2DUT0MMiVl2/24CRk8Sm+3FnwaeTev4C8jpUWY+tg0KSfk1uK1shqLVRT4GOLiQrStR/pArHzOia1LsTCLx9RpXVplaN9+rzhd+QzLvMykAxj0Se+LKmCgfanwot89snzFmWUgyN+mQ6uESKcBRY1g31vB5o2P5dvBwrSznxXJ6E9OAw1c5I9dVIJNKuXbvbb7990aJF4XDYE6aoVGIqESq1WixU3HmSF8RXRxGdhrJYtjK5XtNRprP73PxrcGx9hMCxNckgKF9Hz8gpSt6WozahLsVgT/Gdk+HWSocfHThtn/cJjAXGGy925aPIRxsORXXs0VgCDA5j+Xj8li4cc/8F3VzPAqp8xTotCVIOugv+OpyF60nQ1uVVhNDek8W8IN7X3aWZkB550Xh6cAxccoAXxM7JdgZtbFrmHbLZvB5///l+Oy+I/RY5O+IUiaDu10IjKaBu/ooeFjER9fg5MEJo1FTqLJXlMZ9w89s77Sz48uqcD/UgM43HngLv9MRTIFU4xq3O5AXxE7L9DJJplanoFAncKXPOh9EmQWZxWkGBxUeqcKCdM4GRyS9aIArzvqybhSwGSTeNBQIG3YWqvHApYkAI4Ss9OEy1M1J99ebor169egkJCZdffjnP8zhG+nvLLbcQ0upvMlOJ+Eserh1bR3woaZkHxOg1HVeqDocjN0UdW+edM7+IbzoIGmzASjqqPJCRUxSJRH7XCzZ40/bl2ucIO7rocxOqqrRfCFlOqnCQkcBSxSXA4IjLIgAhunDM/Bt89TeM1mZUbja8+CQYfQklIvFzq/uf2oWrY21dXkUI4YtqvCBWVFFfVqYHB3bEbc9q1JZjZ/GBGrVQCWMikUjLnkt5QVx7OJ8wi26yIS2gnRwjNcegW47ZC3pYQM2V5cBFiPi2obyzYMPCOMbiYYE401UVMcvAh+xPirz0FEgVjiFL4SJuxzlEqzmm06q4kIlD7pSp8GVNXLuNhFThQFhd/P6vFgjbMgl6k8W7Hk+SADYAACAASURBVNrlV1WiwXdDaXpfLu1sfsbqwWGqnZHqq5KfVb0A87/qIv7YW/otHVMqa/OcAyF07kIFViBJbvmbDoLGCeSaKg5n5BTtzAZLend2WUhCgC6CVZWo7y0wIjj4WOoWXvOFXk+umYo9eSQBBodHgiarhi4cU16CPr59OhEtWLmd354osY1Em8fbm9CEw5FbO6bwgniqyIKVJhsEGrjRs1eaPNfns3bwgjgyndg9hixzycVK8kVSWb548ODpc7wgNvsq1dFXA5c3Pmq0M+OHeOl0QnS7huSxw8aKLTa7Paa1Cd9yFVdKKp1pPLgEukO/Wx0uGf826inQLW95EpnqAFU4eop7eEFMStmrrlcdYzxrwmfQ1LkUMTbOtSlK0HjcNRswHf+Mxiu3o6jCgVYPAkaSPyKlOi0JpXwJWXpcBytB+Cc1ddJSqtPtnAVF9b0ZlZdWRwX9fz04XNNXjxH8gi6kKH2mEgkCF+Fw5LZOMOew76mcmA29pkNcgFHCE4VgteJWMsfWpgOrcQJNfXXg4v28IP7fFMd3+hf8BwaFuf8y4taNd1ThcINAszKMpx1muYP2vtbDETSBOqOHLhzYLd4+kYjGzFUwIPS8Hl0oIkpvNdHs96D89N5W8yGE8IkSEpMBNgqXZ6EHR8xC/vpj8urIw09ETfuuOJBHnkU+I+8V1QdeGrHGicWmWNUYx7XDySmxl5IeFkDPmcOx1m6DuHOnIW8oEZ0z9M8nHSGWqpDH/PgPKCHlC+mlvcBzQ1fxgrh8nyEl9oqumYsqHB1+3MkL4rBlB2vWqf1kPGsi0VdtnGvTJkURm70FMCU3q6vIbuWRKhwI2+ZN/R8pRbhh4wP22Zshl7ypk5QizbIiETTyIRDjin5QiO3zCySVupdGDw5T7Yx0f9U9Un0uyVQiPtNXXf2jfZfzgrj5aEF1BK3/9ZqOK/UdiC5U39uNyLG16cBqnEBTX207eCUviD8Qe3/V5jotCRbPQomo940urIdp1xGLpQqHYc0uvVSPvOoYl6ryoJhaD4cHMvKwCrpwDG8JfTxzFRFDkQga8TtI7+IpLPkspP/tUPjR1TZmIX8c7pH7bnpw/OXb9bwgzt2eQ4SFKtG/vtvKCyK5E2+DGXnTzqmkLjpUZEAENuK1qJPmSxcj6WEBRJ7YBq3Rtmox+jHIvm2aCb/yL4U8XF4Kzi1Diei4U9O+f58Enlem2l0HMaFf9poqHB9Hm/fENUSXoo1nTST6qnEJmvMumST0g5I1Mvobg1ThgGWUUCJa3kOfVdUb3LxDiWjtcA1lVfoQ4Hz4Ua6O4uwTn0f7F0LVvX6JsGNwSsYUVOQ7jNCDw1Q7801fnTVrVuvWrRs2bHjllVe2aNGib9++FRUW7grPnTv3j3/843XXXVe/fv1rr732oYce6taN6O6yqUQcIuFW9jdGr3PywSYnQ6/pkJdgkBJfJXq073KDNNIr42ERu6JRD44GMdg1zi0dU86WVB+6kCqzFMCjQ6+oBbYDUd1b/jW1VJRZYqpwmFXu0nu5cORhl4r3spi6AIeX8qJcF104BjSDb/+J7aRMbPwW0g9v6ZrLe6mz5B+Ekrtfi5b3goDFWcj7EzfxgvjdhuOkjNhNRw+OF4aBym17H2xkOjihJTRIgxAy/fTYlRBC60YAgrPetV8CWU56WED9R1ZEm3orMlpUqdKizXjm31QvVBELO0JF3RrXaPYZP8Lj4ObOO1qXuRkumNFSUa2OoArH2+M38oI4m2wV3l7blh83MLZqqZ6AkejAILFIBCXdAMie3qMWoLsxVOFAc/4PuFgzxBrNk/8EubCDYsUIL30IcIn4Uf4hkGIG3gmFjGsDfxWFWKPG09R6cJhqZ/7oq+3bt+c47rLLLmvTps0rr7zSsGFDjuMeffTRsrIyU7GVl5e//vrrHMddccUVTz755F/+8pcnnnji5z//eZMmTUzzIoRMJUJSiAdp/hu1T0i+QmybJL2mY7tAeUbsS+bZIURbFqYDq3ECxbh5W6eUjj/AsZnnh65y4ViXNEDM+VBjPUzOs7MwVTickWYl98y3YQBVTDusFBCQtHUEjoBI0zEZdOHALgEKjpCSuSSEul8D7fxIejyLfBU8HkscwuPMd3+GYrEVDeuzEHxccMhSouOCxJRpJKQHR+t+abwgbrJ7vAh/d54cIMNFRT75jJx0/q2qAiIyfgAox7fVfOliJD0sgMi984GLsX+wSXD2Zsie9Ou4/VLFDhLWXqa/ibo1gZT4n3TAckY7iFkagi+vsxOPo9IP84L43++J16RsMoyowvHKqLW8IC7MOEVCnfGsCbdteV/IyClavu80vo+mmFORPFo7jzD694As4RUMEm510lCFA+H2uXm8TuU60fiMfSgRdb06fmpPSos/BHjwlyaf6X1QYRb6PmoXsM9N8Z5Sq5RVA8MHptoZqb4q2QHWC5DbB05OTuY47qqrrtq6dStGJz8//+677+Y47vPPP5fw0gu8/fbbHMe99NJL+flx233hcHj9+vV6WeTxphKRJ/Yx3H8RXLzsMjeDNg1Ue/KCnSd4QXx9NJF1RINDWbdHD2UZj7zJ23IMxllrw6im0LG7C/wptT6J1CxSHUkVDnV1TmPU046KC2hM6/hI2rWhQwsZTil0lr+WweGM2eDnpghHVWWs0ZacIZWDNI2QLEPKJxmkpajSScXanYVgZzCdyMyHqqq3EEEPjvuidnH2nSq2QI0sae65C7wg3tRBLC3Xtuhu8K1RT8od6avYa+jgu2XUUQnSwwLI3TYNeseUl22SHg7HDBZKh+0VPaX4BMIeKSVlFQcmvYDO58VWhcTPgQZnX96528EB3p/HEE1IbDIbzUYVjjaD4JbTmkPxCbABqQZNHU+KDBKo+4I6JnlbDj77hv9aOzyP17Vr++3uSS9Ay7TqSFY+zg9vpTFNwg6c8AZsr+tjvUDRQfDb7tcYNIAAvtLrHabaGam+qmcWGHu4wX8J5dKqVSuO43r27ClPv3r1ao7jGjRoUFRkZL5i2bJlHMc1b97c0uFheUWmEpEn9jE8bcMxXhD/PmkTbRr0mo4r9U7feJwXxPcnknKhWOfbcqzgt92W8IL4xawdJN5WjRVaR9MOhGBAwYNFN6KdfHsCpAqHPZKMcimmHWcOo/5Rt/LyUbX3jai05jVsx8vkRiS5+q6WweEq7wEsjCIc0mUqyWAjCf/45lLoalSU49qxi5ytDscZ7ID0g8lRSx4kXNhNQw+O2zul8oJobe5bk4v7e4BDmm3Hz9aMjj0ZfykUk3JHH46zRwHN7tc6P8uqyYgUSQ8LqGL9KOBi1jtSdZYD+Mzk4s7xjPjbkd4H7ZiBekS91OLJd3pvcFc75N5YL8BmabB9fmfKKkJow5EzvCA+1i8tTgadEFU4HkoCF33kBtUU06p2Y+Fy+F/HbsD9y1JfUHQNXhAd9Y6lIUBZ/IwOCPFSqcIRW6A/sChen2lImjgdXBo7EjzyIRSuiuUrK0TY+J98HhUPX40Wd0b7U+HEAYwt0TM+jruGKckuJtCDw1Q7I9VX1eaBMzMz09PTP//888svvzwUCh07RmTKLycnh4v+MjOVl8VvuOEGjuOmTzdyJ/CnP/2J47hx48bZlp2pRGyX7G7GtP25vCA+Q3aS1knVek3HSZlS3m9XHuEFsf2MbVKMpUBOYRn2zaAeJRUxeKXQeOR1NLBKNtzwqEFtdKAKhyXhkyaWRt7dybGhE5/pWtEXTpF1bQhDao+fo7wDsQKl9KQV+Jmu9sFBW1rqHXXcNZyd0yOkmiIcZ4/FGiohKVIyfGoXu2N1PixcKAKjbnBILNpxbBW4aPcpXhBfHLFGopFSgBIckp/M4gsWTFooePxb9I6fnmUd4y+F4uPi6MNReRHQDCUi8n17BSdkj5SwiFWe3gdYmPdvMlq0UuE7qMNr3oBN7x0TDrYZI98+jUQQ3nyTpum2+oKClKyCUl4Qb++cGolEFK/cfaQKR/PQIl4Qj+Sdt0fzygMwt+QFUdx5wnQbQNEX1I+OesfWydAAbO/bE/NPFQ407D7g4thaUnIUU6DZf4/1gm8eBZV1xwwwOy81e3ypSvwMLRQgUtJO5YXIw6RE+JlODw5T7YxUXzVgbtasWT/5yU/S0oiWrBYsWMBxXOPGjdUFvvzyyxzHffnll+pXOKaqquqqq67iOO7gwYOnTp0aPHjwhx9+2L59+0mTJp0/T9p1TSWiV7vH8diybouuRJZ1ndCm13SclCnlxSfTOicTObaWckkB41mF/CAKyUqho4EVjwijHoYhY9If4a8bn0+JUylAFQ6pFpcDWDh4hE36dQ3hnMqAvQWYfzdCB5do7EH5qv+YyqFWwmHKFXECxcJ8Rk7R6fndUCixeJHsdIyHH0uKcJzaBa20323EsqlOiC8o4plEdZz2/6ZNHWwOPwBk9L4BlZ3V6Cza5Spjtx0/ywviw72JrNwpM1t5pgRH3rmL+DRvOGxfqeizcB8viB11DkUbf1kUk3JHHw6EwDViKBGdonu1hxIWseaArRzLd0ettBNIW1YIn4BQIjp7NJY1EgEFGH81ujZCy3tqfFJhB+lqSOPSicfyyjD2zZt//qJVDiylpwdHJBLBLOSes+Ng2eHpX0XXcLq/ir2CDb3XkmxtJKYHBxCDbbmfIp7lqj8Es96NdYRBd8UCPa6DAJ5kSvMrzUcsDg+/wjbkr8iiB4epduaCvooQat68+dNPP62gSfNx2LBhHMfde69GA/300085jnvttdc0MyKEDh48iPdmp0yZghVX/Mhx3LXXXrt8ue7n+eLFi8XVv+zsbI7jCgsLw8H+FZXCN5sXxHNl5VQprayszMvLq6yspFFLaB6Y4+udutde4TuzYOKl929n1llFsVbTK7LrPkZXl8PpfcKrB6NQYmTmO2EpRjePzRdU4bBJk2m24xvwIBvp2iiyrAcISv47lxuJKrGR6NQknNZb/lJDktRkW6NesodaCQcZa6apsgpKmnaGY5mKfwM6vY9CiaWTXoss7KgBn2m5DhJQhCM6c4oMu88ydct7xGYYoURly1eUpW7Yiphpb8Dw0rVh+PjGWFZFAkWBqsesgpKdWWeX7oH91Vs7ijuOF+zMOrsz62xWQYkqrQsRlOA4lHuOF8S7vl7khMR50ZuKfxqxWrMQ4y+FosGrPzSaZepFRqKrnOH9jtjRK1yKp4QFLj8Std0QTu8rVWcjEBn/DAolhjeMhrxVVRGsA4cSI9EdJO2+E23/keieknYC63S07AkHxXeoJg/WSzLKQQ+Oc2XluH2WXKgwokDnnaWWr+gI6semnVMdjS1nj8OI161xuLIWz3IjPX8BDftMpo7IyaK/fyv+HRncAgqU5lHRXiCPiUx4Tv4YqyC9T2R5L7LKfE6l1zsKCws5jisu1jVb4I6++vrrrzds2FBPz5TH9+rVi+O4Rx55RB6Jw506deI4rk2bNupXOGb9+vVYQa1fv37r1q03b958/vz5HTt2PPfcc9iA08GD2hYRQ6GQpNniQGZmZn7gf3d9vRBsJO7Pokppbm7u4cOHc3NzadTyyVQwvN5P3GGv8NW74RKv3r/Vu48pirWaXpFd77FU/Kok9ev8/PyiLbNRKLFy6P35+fklqV+Xil/pZbEdTxUO21QZZ6wcfA+eZ6NQIhaUMv3pExF8vjGUWDnkvpIFHeUJSlK/RqHEilGtzx7cgMPahcjzeBWujXC4JRuD3vRtZzBgixcgvASLHhxFm2ZCIxz5iCXpxZruyEch77BWuu2/ulCcvuz794vXTihd0AGFEsvHtsUvz+5diftI+fjn5QML+TiTcSTn9k4pmqPl7Z1SMo7kVFPh2v+U4Fix6ygviA/0XOKE0M0HsnhBbNo59XRunrocg7atEKBz0ZVPeBGFEs+tGKEmw8UYSlhgCi9OfROFEs8vG2Cb4FLxq/JxMMkun/BH+Hou7Ipn55WD78UfU3XfkX8L5GHbNOCMzw5OB2cw6w44LMc4Oz049mSCDctbOqbk5Wk0bGOq8vPzyVu+oiNIj1NW7lu9+xj+53RUycvFixEFh7eaUu4kAT048nNP4ZZ8JuugEwrz8/Pxwk2kWxNpwokLxI+KD4Hi0WHVHmfXgyMzM9MLffXhhx++8sor9fRMebwTfXXdunVY27zpppsuXowf56iqqmrevDnHce+//768LilcG/dXw+Fwm8FgBS5932mqiyF6Sx2uVPrPKeCee9JamytPxmuB6mVvq+kt81iYFVXMGoXLyyznJctAFQ4yEiymilqxi4SuDucd1N1tw8vk3aLnwfAua+r/YtVUVYXnfIhH/NgGrLSsaJEQGslrHxzuScG4N0Wi5/QiXRu5V6F5SRTh2DEDuvakP5oTIaWQNj+zt0DeHj8PR522S+visNqtaMxZmyO9oy4Ho70gEvX4CmnKiiLRS1CRoXAVSplLqtEwYIyXerQ0LIzoJSU48P26pwetICJCJ1FFZdUdX8GC78FTxeokxrKaszUL70u7sjUdiZ56DaclqclwMYYSFpjCyOSXoFlu+84+wdV7RNBNVg2KbyVJHUTqTbgOxWM4rPtxIaYJnz54cwx4tu8l7nERYjUJ9OA4cKqYF8R7ui5WV0oSY9zyJaXUIODWSIKHx8jwltC0Di6LEU9nk5AeHOGSAtyYwxUXSOSvmyba4N09SqBbl98v9ODwYn916tSp9erVa9mypaQfGgScnAfOyMjA+mrXrl0VVQwfPpzjuBtvvFERr340PSGtzuJXzHtRt+/TN9J1+653lNwVrv86dgMviHO2ZdsrzfiWkfpakdX0lqmKROBqGc3LSFThsMyvaQbpZsXs6qUi9T0Kecy8T6SZCpr9Pto6BW4M4itM0t/yUtNqPUtQy+BwVS4GvQkfCY4Bl97H1WqNCqMIx8ZvgR3JM40RFdXvpGtIkQga+SBk3zwebhxJpqfkLf/MYaX9GKnBhxLREDihgJJ+BX/tXow3wMvpNbNqjhX/U4IjdddJXhBfHUVsv0RBVvXjSyPX8II4b8cJhJDiJvasLWC4Xu+f+stSXaSt/7FVISfGigiqpYRFrGZsrdShn8xqlRUaOf6naOryviN1Ljnv8gTyeIKwwb1NF3zdqQigBwe+nf5IH93rbypaakQYjxJ6PUKKd1NWeHiMrtChTVETqvIBswbVTh/owYEK4UgzWJR08pMzLg87KTPAefXgMNXOSM8Dv6f1e+2115o3b54Q/U2dOpVEPvPnz+c4rkkTDY8g2N7SF198oVfO+fPn69Wrx3HclClTFGlSUlI4jqtfv74iXv1oKhF1Fr9iOifv4gVxwOL9VAnQazquVPriCJgxLNlz2l5pxmOrelbhxTdpfFsYnnbOtMeRaS6qcJjWbjkB9okXSkSn98TzymcV6sF38Vfx+QqetXRrgsY8Ho8cR3QTPl4dzVAtg8NVUej1Pqys5iZ3jFnSUqhYbk805TxRhGPVAGiByR/Jq7MQXjscsn/7hDILbv/fPoGwmcdQYszhEzbzOLxVzAiN3gxeWZzRsx5eeK6pHi2NyiJ7RwmOmZvgKO+7EzaSUaGbqtMc+ID2Tt1n8F2QJuJSwM0ZOSZty0RoG9N0DXPoMmDlBSUsYiREN8GQ5D3VCmE10srHeQ/XuRBCHvcOenCsPJDHC2LbwStrCJb4wVgOUi/Agds6pSzfl2vfvaopVXh4DCWCgxb1VME0O3ECenCg07uhd/e7lZgWVUI14+oYVaZaHaEHh6l2RqqvGvhfvfrqq4cMGUIoPmzuiOM4e/5s7rjjDo7jBg0apKhu8uTJHMc1atRIEa9+NJWIOov3MXgxuMtcMFb07sSN0njhxB+dHhd6TUcvvaX4JwbAXZH1R85YyiUlNh5bNWdginV090WHnTgv+Voi0t0AVTjcJRVKw0d5p/9Ft2RN7SWtF/rm9zDKY7vB0VOU8LnavzAWOb+9boHevqhlcLgqHM3eh5XVAZ3eh96HHU6MfQpQk7ZK1N9adYxdOinCgX3ZpQo2STufF9NIc/cpSxj5UKxVY4VWkhUWy+LOCPbfXDCCqomXNAHVHC2VpFp8pgTH2FXgBe3f0216QZOYwD7M3xq3wVgycjvzGTlFbn5k8eh3YDE0gFHVNjvky3kSrY4DlLCI0dW/KbBwcodTMnPg5Dz8c8neLzk9xm3A9d5BD46U6OmD179ZR867PKWxHCj2BTkR8vDUV6E9OHDfJS9ML0wPDnR8PdDvxMSx5hyJziihJx+P4/XgMNXOSPXVSVq/6dOnr1y58sIFa2a1W7VqxXFcz54yjwgIrV69muO4Bg0aFBUVGciuS5cuHMc999xzijRvvfUWx3Ft27ZVxKsfTSWizuJxjMFisPtLvwjpNR1XuG4VtcVn+2PgsSiIWMbnBqe9TpTYeiKqcFgnxzDH2aOx3aGcLYbptF7iyTreZZJm8AihHz6ITWjSemll8zquNsHhtmw0ZzaDO787oNP7sfOl+1MBrH63obTe8UOwkqdiufF9SZt1RiRFOPA6lJNWNx1s0sBGgfy3Cyy0xf6pfbTiXjDpBUggOdaTZ7cS1sSrNuqrg5Yc4AWxk44rGnKRbM8q5AXxvu5LdmVDQO+f7c+TOSUYX/EzwLfvzZAex7jUHeQEUOwaCKGoBVRUkCmv0U5YPuxTEIIBSR73Dnpw4NMH703cZMCswSuP5WBASewVXs2hvIRBDw7w0hdKRKN/b84pS1EtAT04TLUzUn21uiIX/k9OTsbmfLdu3YqLO3PmzN13381x3Oeffy5VMGfOnGbNmj355JNSDEIoPz+/UaNGHMeNHj1aip8xYwY+J5ySkiJF6gVMJaKX0bN4jwcUvabjCr/Y4sXxM/ZvJFLfL7XK57G1MDwNustqPsL0VOEgpIE02YL/gCimvESaXkonn7RNfB4KkeYuJWcQ9jw2/hkpOQR8Wm6sTXDUkJcLD+YDUVVFzLfkwSXK+jDE+BCsBK4ykeVninD8EHXavna4ZZqkDHsXQEvudxuqqojFFWXHrrtL6uikF6TksQBWVrGI5P1Cmc782Rwv8zKspaAER7f5e/A5XmvU1EydU1i2+WjBTVE1dfLaTD1lldLN3jgtGFO8ZpHWq8ZYF0/kQogSFkBZVQWQHUpEpQWOCJU3b3nYUaGkmT3uHfTgGLcaGrPt0weB2wNI/V+sdcmnAaSokqajBwfC/rcnPk9KCkunv0lmqp35oK8ihLCr1fr16z/zzDOvvvpqw4YNsZObsrIyCc2JEydyHMfzvBSDA0uWLPnpT3/Kcdxdd9312muv/fa3v8VGmLp06aJIqfloKhHNXF5G1pmBtbIqjGcJBSXlXgqQbl1lZ2PD6wWjgwC2aaA4sNqmScooP7hSfDK2IzT34xp7a1JivYB6pqKImfUOSLhrQyQ54FYk0CuZQnyg4bDOr+nqjzzB8n2nb+6gvSsVP+iR8iWAJVnbkkg6uibWTbprmCqQUlkNUIRj2utA8JZJVkmKpwft/RYoZH8qRIbDCOuiocRYB1E3Y5KYeAUmIY8/HFEWw/n5+eFw2IQyi6+/mLWDF8QRaYcs5osnN5iUqxVXivurmCK5nSH31m7i3EZDFLtGacwCanwhRlE3yaOrTZ2kQkUaj3sHPTgGL4XTBx0dnD6QD/LShSmXT8IrpK/3iFsFvg2BDVvQ6SD04ED4dvr0N/VYZPFqCejBYaqd+aOvIoRmzpz52GOPJSYmXnHFFc2bN+/Tp095eQ2tRk9fRQgdOHDgnXfe+dWvflW/fv0mTZo899xzixcvVgtFM8ZUIpq5vIysMwNrUWkFnhyUV7o8ofESDo26BtwBs9LjGzReOY7S68mOC3ajAPmcA3t7H3QXiMLSN0au9EpEybdPIxE0HFxZov63wwxJXqmU3qtAoOGwKASDSTy2q7F83+nbdBx4KgxvxO/44QtpPa5DF2Q+vstLUO8bAUH8z1LzMGSKIhzjnwFqd88xrN/wZVoSwld5Z7SDdOtGxNj/VnZESNGYTfuCYYWKlwb4xtcXFHmcPVKC4/+mbOEFccq6o7apM/6GKlRW6voqQrGW0K2xbY5MM1LCAuotyAT6e/7ClAajBK42daOKdN4ZNwnX2wA9OHosgNMHSal7dRitPdHSYDikBTSwo2vofevpwYHWDgPif/xH7ZG7/5TqwWGqnRnpq1omgXXj9Hyf+i+bmhSYSqRmch+e6szAmlVQij22+yBEqlVOfQVGqM3jaVSi15Np1GWnTPyNWRKK3WiyqqwSVnnuNBiIx9aYKFVBRknQ4SDjAqcyHlgUk3j1o/aULhJBw+4HpLbJ7MNj7xdYWZ38Irx1SWWlCMeoh4HOQ8usSLRmWtw1QolgeClzpbbxZMon26WdE+z0ghfEVQfy6O2cUIKj3dj1vCAmb8upKV8LT5aaunbDtlCbWVKpYbjXEdRVUsICKjq5A7pG/6bqSmtRjHGTcL0N0IND+GEnL4jDlx+sRcLXJlVawpgC3n3R1smQTL5yrZ3NTiw9OBA+5C9+ZoesSzWPHhym2pmRvmpgE1j9KiEhoVYI31QivnNRZwbWvSfBsfX9PVR323wXsUMC8MGVFF3HS06K1+vJTsp0Oa98+kXPJ8GOGfANo2yGwVQytQAOfR4k7QUf+krelqPWQsljdKd0K/sDTNIFnuSPYsBN/hMEfvi7i6vmFOEY1ByozbJpxSQGgtQ1ul8bEwK9DqKPO37zYNIyXhC3HT9rltD+e0pw/HH4al4Ql+216QXN1HmJos3rNmz7gpHlxE3i2yegPWBfaC6t3cjqgCAlLKDozFVA/PCWihpr16PHpw/owfHxd1t5QZy4xrHtq+Dghw2SLQ3Ro4geHGhhB+gdNImnJxa/StaDw1Q7M9JXtUwCG8X5xbylek0lYqk0GonrjL66MbOAF8TH+6fTkJKfZW6fDiPUBKWRaldI0uvJrhTuTiHSdSaaWheymwAAIABJREFUx9sQvvTV/Zqcr2/OmDdUfs0Gh+NHUt3hSruUWgCHNuHIYH6mmK8TPupO67HD9NDVqDALXTyPkm6A3jHv33CNE9x4PAwEurRqThEOfIA5z7Gza3wPFi+1LCYyqaADoNPoV0et5QVxwc4TTgvSz08Jjsf7gxe0jZn2rfsYf0PlDZ7SSemYzLCyuqIvwu55Z77t4tqNAhZKWEAt+0ToyPJj7Yq6a8mjtH43Zd0xXhAf6r2M3qeEHhx/G7+RF8QftmTXEqkTkLluJDSwmX8jSGozCT040NyPgfhVA2xSdklm04PDVDsz0lfrpCRNJeI718bfWt1Zo1269ZqO3fLi+ZbvO80L4gvDVsej6kYIn4/qw6NIxHWG6MHhGqkTnoUBGttIoLNXIM3qQOnqOF8+v5TCdCea1cKqBXBUk6r433gYkcRIHtAdedKSEN6cXDUAiZ9D2xh0F1rWDWHDj92vQVWVCtpsP9KCIxKJeWYqPmmbtlhGb1ZzCKj8dMY2XhBHrzhMkNZmEkpw3N9jCS+Ie0/KbkRbJNC48cudTNJd9pJOPGKVb/RjwIdLazcKkVDCAmrB67M27MArSAzMY27xBV4Qb+4gXqiookQUPTheHrmGF8RFu09RotyHYrHf9W+qHRRToIAeHKBmhxLRxm8pUF1ni9SDw1Q7Y/pq4NqEwcYIjTm6XtNxLpe52+H84Ztj1jsvKlglVFyIubc+5/43gx4c7shwaSiqrCaivfMlrdKdkqVSpE0JhIznnboalFSU40DQ4ajJoLSBkJFT5PD0r1qP1ZW2dAgWW8cNJaI5/weNJL0P6nk9BPIO1CTT/hMtOC6ej7Xq8hL7xOGcWBpuO/KxQVXfhft4QewyN8NGXsIslOC4vXMqL4jZZ+17QfN93FAK8PQeaGC9b1DGu/dMCQsgcMNoIH7m2+4R63NJkUikRdfFvCDuPkHFyD/V49lPD1rBC+LaQ/k+C9HF6vMOQAPreT2NDQBMJsXegS/f7pjhojzqfFF6cFDRV0+dOrU5+jt50vFqtOfImErEc4o0KpTPO1+KLqf1EvdQMpuh13Q0yLIYNXU9nLr5x+TNFvPVhuTYxowT6yw6XNKDQ6dCK9GSZjLqEXDXgfcKXDciIm1KMH3VCjgG61xq5dNGjK6+ihDspuITsKFENKY1hPHG+5jHIbxnrhU+jNLS6h3FJ4DOro2cTphkSy20VnOMxFPj3bQNMPy+P9HZjdwaRSofaMBxsbIKN86ismo3tspqzZ8Dp6+Wl8Y6iEMXpvqs08AiVtuKfkD8vE/0K699b177Bk7LO7HpZcwzPTjwvfSd2YXGBNSmt5UXqzcA7F9ZN+aXHhxo7B+gd+wTjQlgb+US0IPDVDuztr86bty4Zs2aJch+d9xxx/jxVAylytlzMWwqERfrcqWo4csP8oL48bStrpSmLkSv6ahTWo35ZsVhXhD/O3O71Yy1ID0+BLJ2uOuk0oPDBVIXd4n5XN07P14aneNtuHzf552BhiOOAYSMZWVDQVVkMdJXEUIjfhebkUvKKkIoOXq3J713TUrtP9GCI28/EN/7RvuUaa7dyNVXR0XbyZy+P5cXxLaDV9rJTJaHBhz55y/ihlcVtn/bwmDthsYZJSJp9b8d2ljOFqLE1hPRwCJGxeLOQPmiTtaJCm6OjnN28YLYd+E+SiTSg6P514t4QczMd3wShBLn9oodHDV3d2ydvdymuejBgUY8AL0jk+Iwa8pdrUugB4epdmZBX/3ggw8SEhKwZeAm0R8OJyQkfPDBB7VFZKYSCRojG46c4QWxZc+lEQq3JakeXOm3CA6khebtDppIXaAHWwNK/siFomoWodeTa6by6Wl5TxiaRz0c21ylT4WxDia/h1brTh+4LjxjWSmUT6uP5rP8M4dja+Tdr4mzhn3TuWdIg1bvyNoEDXtw8zjlNkKycwHx3DRXc+K1aIUO5Z7jBbH514u0XroTRwOOzPwSXhDvcky2/IyS3Fob3QurBnId1wba2K7ZBkmcvKKBRYyeef8GyimZKnDCs4O8E9dk8oL490m0Dn9RgiMcjtzUQeQFMe/cRQfcBy8rdnu2bRolyijBAdQOvBN6x4ltlCivk8XqwWGqnZHqq7NmzapXr17jxo0HDhxYVBQ79F9cXDxo0KAmTZokJCTMnk1rIHYXMFOJuFud89IuVFTd1imFF8SjdFbU9JqOc8q/npvBC2L/RY5NbjonxfUS9syDQQrbz3C1cHpwOCWztAAl/Rq43jPPaVHE+S3pYOY6FXG9UsLgwiGRWB2wJKvkbTnL953GA4tad72tU8ryfbnWZvl4L7H7NTWmtoeWwuPwVtU0Ov2fFhyYzlEUDX445dx6/tLySoysk4O1xtXSgGNndiEviA8mOXCEa0y0X2/xpe6V/SjVTwOLGKmz3oFevP4bSpT7UuzaQ/m8ID7WL41S7ZTgOH8x1qnpWYqiJBCTYhf8B9rYsm4myey+pgQHkIMnRWcomrWzy3Rw8+nBYaqdkeqrf/jDH+rXr791q8ap1G3bttWvX/+pp54KrnhklJlKRJY2KMFXop4JZm3OokGQXtNxXtd/Z26nbaDSOZE2SzhzGIbXHtehsMsGBunBYYdT+ZaRtLma3gelJdkpzXoeSzoYL4gmZ1atExAsOAzptyQrLCjX9qDkB1/l4aIc6CZdG6FKd3YDaMGxew7QOf4ZQwHXvpe/7Q6GdvecsG9o15hnGnCsiSoSTw9aYVx17XuLj+TM/ZgS5TSwiJE65WXoHdu/o0S5L8XmnYNj5zd1EMvKXf6CY3YowXGyqIwXxFs7plA6becLFlApdvg06x1KBFCCAw6aYUcJ53MpUV4ni9WDw1Q7I9VXGzdubKCRPvXUU40bN64VkjWVSAC56J0KB2u/nL2DBm16Tcd5XR9M3swL4rQNx5wXFbgSwlWgrIYSkd66mlzTk6gnOBxIDw6JCgsBSfcoOxtbR5z1LnDt1dkwSzoY01fVO6WaMS5vREuNRGpYUkwkEnPHetqdSwG0eseWSdCqv3tD4qBuBF4YtpoXxCV7apMVk4UZJ3lBfGXU2roBQZyLnTOhjdHx2k31Xk/MoszeBXFean8oEonc2w1MBLu+xIllQ2mkOngaDvnf221x7UegJgf7UqB3jP59zVjXnijBgS6eA7JDiaiizDVaL4GC9OAw1c5I9dUGDRq0a9dOT5Lt2rVr0KCB3ttAxZtKJFDUYmKW7QVHpo/3T6dBm17TcV7Xm2PW84I4d3uO86KCWMLox2CcklseklMpTdmlSHWM9EoWoAeHrBIrQUz2xOeA2X63wl+vlFWEkIHdFE1NzPXJR+Dg0IfOWLeX3/V1+Qqf8dLMuKehzbh0bY8WHPie7Q+1xgqDfiuo8eb/pmzhBXHimswase490IBj5uYsXhDfmbDRPTKDURK+Iz3wTkrU0MAiRurwVtCF65xFmddHr+MF8cet2TQQoQTH1uNneUF8tO9yGjT7WWbuPmhjSb92aqFdhwdKcCBsWL5bY0pk63BT66P14DDVzkj1VZ7n77xTd6i98847b7zRmXFFryAwlYhXhFiop6i0gt4le72mY4E+naTPD1vFC2Lavjp6UiL5Ixhh0/vocB/1Cy9pd2TKKt1lcl1CzV5IPlcldsxyuPhecWbV2K0o01c11Xh62wjmQM//FLqJSxeTaA1W+Kz7gv+as1OrUnRfsIcXxB4L9lCimgYc41aDIZxPptc5+yUl+dARQlejigs04KCBRYzOAc2A8hN1zc5/52QwEdw7lYqJYEpwrDyQxwviM0NW0WhCfpZZcaH6YG0eDTIowYGwYfk+PA2a63CZenCYamek+uq7776bkJDQu7eGZ4KkpKSEhIT33nuvVsjXVCLB5KLt4JW8IKbuct/hrV7TcS6H1v3SeEHcdLTAeVFBLIHE9un89vCl79YY/pJtS9KDw74MU/8XnWklgjMbv3/Gu4iXsr66+ViBnrLq8gFgS21gw2hoPNP/YimTXmJavSNVACKXhvTqraXx46O634dTa5MPlcFLD/CC2HHOrloqc12yIxHU65fQzPKoGCCk1TUQQj2vB7ILjuiyVjtfTF53lJ6DYkpwiDvhtPzr39Dy++InkoPugmZ2fAMNGijBgbI3A80ODcvTYDjYZerBYaqdkeqr+/fvv+KKKxISEh544IERI0akRH/Dhw9v2bJlQkLClVdeuX8/lVHYdbGbSuT/s/cd4FVU2eMvUZdd/34R+09Xd0RELGCHVSyIupZ17bqubVd0dy27lrUNAvIIJKFLld57r5OQAAmBAAFCCwk1CYQQSgpJgPTkvfv/zruTybzp5c57896b9/GFmVvOPfeUO/fccg7xFokAxGuB/VeTuQbGR0lOdPhljD0/NBC8fRw6Y5W3D2NYEaiFD0DmbYChauzDLEDJu6l4c8mtw9Kzjh0GO16Wx8Yp0WN1G2xLQzXHXuWIJNh5/mDqdopmnhm+ccPBs3zXvhZF+uHQUHkoSAc1GXWfSjFt2VZpBz4rsXmENixCplRK7hmKZl4em2ERxlawA+8JJyQetAjnYIId/xjowuG1VuBgBS8Az+YmwNkdg6rLrUA7iDC35UOkQIvO1lrEjoU7T1hnYweRF9D0zL+AmO2dbwUaFrED5acCzuO7WYFzGMOUY4eqdabVXkUIMQxz5ZVXRkVFRfN+UVFRV155JcMwoUJcVYrYsyMr9xZTNPOXMeRnHnKiY54OHfokUTRzsqLGPCh7QcCHe1P6wlDV/yo43yV33HfY7VAGe5AL0f3VsQ9DF0Y/ACyQ62YA2ePYq5jYCjd7g7mbKpaEi6WsCjQQGAesGqwWvAdI7pwiRj+kU3JPVVE08+CAdRb1wgp2/LBkH0UzY1OPWoRzMMEufB/ELHO8FThYwQvAs+acT39jUFODFWgHEWb5RXARTNFMTUMTcTQsYseUzQUUzXy1IOxOyyOE8OJ+ahxxXlh4zerAStCOac9bgXMYw5TTDlXrTIe9ihAqKSkZOHDgs88+e5fv9+yzz8bFxZWUhNIFRVWK2FNKsB/zdr2Yi/WEx1Y50TFJh/qmZvwxqKppNAnKjtWx5Tbwehit1vwP/orN0dSB7Jd+2B3aLT2L2GGQhiu/8HXhSlTScskn2CZrgO00e7GDx8UA2+28lvU/DmkHUkQiorpV7Jj5MmCYvUh/32xdo6qmEQ/CIRS047M54CNq5tbjtqasMeTwEmfSj8ZqK9eySjUqjoNqDLxeufUQzX3QF/Ap+2QlcfwtYgc+Ld87/E7LI4S2jAJJW2LJvUKL2IH2zAGc575FXH7CG6AcO1StM332ahgQUZUitu1jt0GpFM1sOkL4Prqc6JikA7d42ezxmgRl0+rYcsNnpcTGKj8XuzvXZulZxA4jNPR40LA7YDhe841fdcmTz34lrH0RnIN9/dct4KBl3m7Cbm99nbARO/yJGkr26oyXQIpIHPSyih2TugOG1hzU9OdbQN+8Xu89/ZIpmskruWhFw1aw4/0pcKzdIq+tVhBBB8ysab7Z7ds6qmguagUvoPHT2YDz0Ns1IxJKBd+ZBC6Cl+wi7yLYInbg0/IW+YgKMucOrgFJm9TdCjQsYgeclbDMxraCDjaBKccOVetMq71aXh4mtxdUKWITjorR+GbhXopmRqQQvicsJzpiBHSlFJZXUzRz18+W3NXRhYmFhfu3hdGqf1uJJtISEA6zjg3a0iNQRoOlZxE7JDBUTcIBA+NvQvaOhZ1xtIyimTv7rq2sIX9izUbs8OdXKNmrzHegJil9/Xtg5M0qdox+ADAsDLuYnwg99ws46ksnvcqJmWcFO14ZB8tP1sWMNSJ2pOrkp4GYcS4PSIH1wbGCFwD4eAbgPOZBosjaBdjPK3MomrHisrRF7PhxSTZFM+PS8uxCQYJ4nD0AkpZwixWxYSxiB3tubvVXBMkQCaDk2KFqnWm1V9u0afP2228nJSV5PJ6QJqgqRezZu+LK2qHJh31XWDfznamY31OSEx2TdMDz6a7x603CsW91/g6qeH8VIbTo7zD+4n9HtV4hs4gdmsjID6TZWIuwv76ZL6O0BE3Vg1ToZEVN92EbKZr5eWUOWdWw8N6LaVqFkr26cypowZw3TXcaWaUdOLDwmbDzSYtQzxk7KZqZt/2EeeKLIVjBjh7DQZczC8JkfdyPaPhs7YDrkAWTKCt4AcgfSgTlnfSUX0fC5WV2ZiFFMx9ZEOzXInZ8MXd32J6Wb6hhJ0s15CNKWMQOlNIHcE7pEy4KEaB+yLFD1TrTaq/+5je/wZ6Wbrrppp9++unIEd9+UYB6R7IZVYqQbIwQLEvv7MmJjkncsfO9p4dvNAnHptWxsbquHzvCSt5f/aUT5A6m4O+OyRo7YhE7NLXOP7G8eQSgnXAz/JW0xjVBtLyQparh2Ktk+Fe4FaTol3vMQ7NKO/BF9IpC8xjaDULfFbCDNDS55f45UfysYMfDcespmsk9VUUUU3sAa25iY5tVhcwBVLRvASjvrFfsQUHCWGwvABfB3QalEoaLrFpZw07gl1pwgJk4BYwAHH4nCFvRTiN1FetYMVJBg9hHlI0nSIpUCVqmHDtUrTOt9uq5c+fGjBnzwAMPcP6BH3vssWnTpl28aMnFGOsIqUoR65o2DNnSvRQ50TGMLa647sBZimZeGbfFJBw7Vufbdb8+AiPs4o/gL3/YulgCKe4r0cr/wIPmFTiL2KGVjJwdHv97H/7+ndIKJXDlLFUNx14lw0jOxWid2dBWlmhHUwMr6rUVZPprJygT0vMpmvnaGoeiVrCjY1/wKl90joA3aTvxoQWXUfeBsB3b3PJO7H8reAHIbZ8ECC/8gBiidgJUUd2AHZJVh4gby9d8zhpScs/YiYrkcMGeDvYtJAeRhWSVdizpCdphjcdv4kSwD0A5dqhaZ1rtVa6r2dnZX3/99XXXXYcN1//3//7fP/7xj/T0dK6AzR9UKWJD/C2dlMuJjkk6LNt9kqKZD6ZaEv3ZJG5mq/PPzSb+AAMW863wburhJEgf1xVlTtD1vbeIHTq6jE1WfIx542AdFYNR1FLVcOxVYizFjrtML5xboh3VZaCh7hjkaSbWX9sAWr3vFEUzb02w5GoucXY0Nnuw/WDFXXRb8GT2ayBpu2cTR4Y4L1gMNw0FhFd+QRxhmwB8aCDs5+8tIuwi2CJ2PDsinaKZrfllNqEeYTRW/ReEzYL7RxaxAzwDu2PAS7Dz00MBOXaoWme67VWMVVNT07Jly15++eXLLrsMG67t27fXg3DQyqpSJGiYyTds6aRcTnTk0dGUM2vbcYpmPpuzS1Pp0C2EndqN7SLswYYBMJCt+AJhw3XiE8ICMu8WsUOmNZlkHDA29mqZbBslW6oadrZXrT4ITZjHs14Fddg10yRYS7TjXAHgFnejSdzsWX33iQqKZh5J2GAFesTZca5lv6upObTdZMhSGwc/2xArW8BoBnFesIjgGDxrfzKKl93rvTs5k6KZRVlFZBG1iB2PJGygaGb/yXA8LY8QyvgFhuKl/yTLCwu/49OeB4QPrCSOcHgDlNMOVevMoL3KUbOkpOSrr77CJiuXaOcHVYrYEHlLJ+VyomOSDuPS8iia+WHJPpNw7F69tgIO/bpj0AX/IzqzXoHErGkIe70b9AeNHbGIHRpbh2IbBwPm+B//hLMOEIEraqlqWPidI0Gh4sra7KLKO/uupWhmdfYpzteUeR9sJLDzh7H2J5CoJNo/VfebJdpxai/gNryjbmxCoULJ+TqKZtr1YhotsACJsyP8vcpvHQPCtvgj4rJDnBcshviG3sZBxBG2CUD3qlyKZuKYA2TxsYgdODzVsbJqstjaBdqBVaAdk3sQx8cidqDx3QDhfPL3n4lTwFYA5dihap0Zt1fr6+vnz5//3HPPXXrppY69aqk0WDoplxMdkz0alHSIopnY1YQ/AyaxsqT6xCdgzNq/pBW4xwNu2d0x6PQ+VH8RHtwxqE7TmqhF7GjFTfmJOwwcew0cyxFcylWuG4xcS1XD5vYqBJsog6hRd/RJsvt+1O5ZIEumvbZYoh3HNgFu4iMSwZBn4m16PN4Ova26EUqcHVidw9mrvGVBJonzghVF7Jph26/EJTPoAHEc7yHJMFF5/dctZNf7rGCHx+PFp+XLLtYHnXqWIHAmB4biwRRx4FawA5Ac6fOpeTKLOMLhDVCOHZbYq9u3b//000+vuuqq6OjoqKioq6666vPPP8/KCg2eqVLEhoJi6aRcTnRM0qHPiv0UzfyyLlT9SOvofnJvGGRXfdlapfQIpAy8ATU3QuKQ2+D1dHZrAfkni9gh3yAvBxurSz8BbMd3gwycYuNdVktVw/726ppsuJ34ytgMHhdt+XgyC4RqWAeTyFmiHdiEmPy0SdxsW7370DSKZrblk48QQ5wdW/MhlvIzI0LGHYZupuMZuebjNtrhE+cF2/ScN0Bzw+6GntX3Kaxgx4W6Rmyv1jWG4U17kLeGahA2dwwiHdLGCnYAwjj6Q+lh7XrqlFSYVqlaZzr2V0+fPj1kyJC77roLm6nR0dHPPvvs/Pnz6+tDabFHlSI2lCdLJ+UWafJXC/ZQNDNlc4EN6UkYpSMpMMKOuq8V7N75kDL1OTZlcg94Pbi6tYD8k0XskG+Ql4P9SG0aBtgu+xebkT7ECv8HvFZNPVqqGgoDqymkyVUevBY2B3ots3fg0LQEhK9z8ycihuTKEu3A2jr7NXJssRek96dsp2hmiQUxMIizIzn3DEUzr/0ajl7lsVBwx21IO6MmzgtWiKc8C5+DA6vsJdOmsQnFD8fpqlqKZm7vnej1ek0TwK4AsGe+YsJ+TyzRDq+XDU91/pRdqWlTvOTYoWqdabVXX3zxxUsvvRRbqu3atYuNjT1xwpIQ5FYTWJUiViNgAL6la4FyomMAT36Vj31x6hfsCEkh4XdE/bn+Aup/FXzUK1t8NjDfwmtyb7YuPlK1daw6KMvitmlp2g/bjJE6qgSvqKWqYX979cNpOyiambvd3oFD8S49PiF/3GeKGN23t2Sw2j4RtHXR34Mnxda2/OOSbIpmRq0/SrwZ4uxYsgu8yn84bQdxVG0EcOjtIG+n9pBFiTgvWPTGdQVsC8Itjnoo2qtHzl6gaOb+2BSykmMvaNNfBHnLXkwWK0u0o7EWUHXHoPoLZLENe2hy7FC1zrTaq1FRUZdffvkHH3yQlpYW0tRUpYg9e4fvWuQUV+05UdGhTyJFM2t8HlbM+1aREx2TdHh7wjaKZpjs0ybhhEb1Kc/AsLV3HovtxCfhNWcp+7reDa+J32vpi0Xs0NI0W2ZsF8D26HodVYJalFONnOKqvScqOrmTKZqZk1loXjVsbq96vd4HB6yzIhgDeX5iA9Udg3ZMNnPI3BLtSPdF7Fj1X/K9tgfE0RuOWuT6jjg7pm85RtHMF/N224Ny1mAx9U++r8MystCJ84JFb/idgG1xuHEkFO3VXYXg6/uJIaE9A1cR+5VfgLyRDqRniXZcLAFU3VciT5g6M1dhlfFsOXaoWmda7dVJkyadP2822rvx/pGrqUoRck1ZBQmf75q17TiRBuRExyTwF0Ztpmgm/UipSTihUX19fxi5ln8G2DbWsadEKlp2vbKmQ+7ct7X0xSJ2aGmaRR7vFYfsEZdey2A3idQR2SCzQ5FtZ6rA9ettPyWGxnWmac+BFvRvC3+N3oi2hB04Ygd3GkKR5qGYudS3afnelEziyBNnBzatey3TdNWfeHcCBHDZv0EFNg8n2xxxXrDoxd8E2Jbnk8U26NBC0V5NP1JK0cyLozYHnXoWIrB5OMjbsn+TbcIS7SjPB1QTbiaLaiRAk2OHqnWm1V4NGyKqUsT+PR3jWy//Yi6ZJU850TFJh8eHpFI0s/tEhUk4oVE9PxVGrhF3I68XFe2A5yG3wTP+4dxxXbX0xSJ2aGkaypzeB8gPplqR11rTLuU2H4WP+gMD1hFxmRtkdigSdcPBsxTN/OmXEHFOs3ceiJY7Bg24VrFbSpmWsION2DFYqeFQzsssKKdopvtQ8tsyxNkRxxygaCY+8WAo01sN942DQAtW/ketnL584ryA5j3NrM5eDLd151C0V7F3vbcnbtMnGaFSGrvPyF0OIjflWRZrQ24OxD22RDtO7QFUR9wlbs5JUaaAHDtUrbOg2auLFy/u3r1727ZtL7/88nvvvXfIkCGNjT5nqsod9c9NTEx0+X7PPPOMf47smypFZGvaJmPHsXMUzTw0cB2Ra/dyomOyu/fFplA0c/RsZJzsb6hBsdfA4HWuAGWOh4d5f20lIF6HG3iDFiPQIna0IqP8hH3PTP+zcik75zY1e+73yd6WvDLzeAaZHYodwJtR/1u4V7GUbTJXfw16gf/Zan8VXy/PHG8bShFGpOhcDUUzHXoneTwtK2iEWiClHdyR/n/NyqJops/y/Ti4CJEj/YT6Sg7MvoWgBTNeIgcRIJHihR9WEF3cp7NNoeRT068LMi+haK8u2HGCopmPZ+yU6VOIJ+M7I2v+ByI3pB10xqibAzEhLNEOHAhN2z6EGKVITpFjh6p1Fhx79euvv3a5XJdeeulzzz33xhtvtG3b1uVyPf7447W1tdq5WFFRcdNNN0VFRblcroiyV+ubmu/oAyH18kouaieXXEk50ZErryXd6/W2/wku2Z6u0sFQLZDtW2baCzDO7pqBlnwMD/wZeVMDXHJwx6ALZ1Xxt4Idqo22FsCxeRJ/aE0JwSd6KRwJ/mk5Aa+5QWaHIvH/PRsm96Hhgpu7v+qOQfjwPF9BFLvJz7SEHWzEjrn8hsLpubHZ064XQ9FMyfk6sv0iwg6rXaaR7TIBaCe2w7dgxN0EQPFAEOEFD57vsaIQUB1wnTA99N9D0V6dsrmAopmvFxD21GUjZhL6TIh7ZIl2HGJAO6Zo3SoTYxWxKXLssKO9umLFCpfLdcUVV+zezZ5oLSsr69wlEjlRAAAgAElEQVS5s8vl+u6777Sz8P3337/kkks+//zzSLNXEULvTAJvRkT8gsqJjnZGiEvWNjTjQGEX65vEueGZkpYAg9eSjyGwjTsG5W3w6+aIuyGxSN3vpRXs8MNE+WXWq4DnrpnKpWyeu8l3z+dB+SPB3H4OFyNebj8nyOxQJHS3QXDk3oq4morN6s/klsmx75YT2w0vnFvCDuz/JuwidvD59GjCBituZxBhh9WWA58Otnjm3LQQ3bQkwgshfc7sh8/B0PbC9NB/t3qVxAp2/LLuCJw+WEFgHda+DOSbrIbWNCW7ZgU70L4FoB3hGwhNkpJEEuXYYUd7tUuXLi6XKy4ujt/zjIwMl8vVpk2bqqoqfrrc8/Lly10u1w8//DBjxowItFfxyPXlfAIrbXKiI0d5LeklF8ATzK29GOIn0LS0HpwyxzNg8Bp0C/x1xyBBeD3NXtqtYIcOggzrAMifzNJRxX5FC8ur7/F5CZ6bWci3SPHxQl0zlSCzQ562lTUNeEmoqlb3NQp5qNbk4ItJCKFZr4B07Z4FzRi6mGQJO8b9EbAKu4gdmJd4aebFUZsomhmXlsepA5GjtkTYEXH2qteL4m4EkSsjGWGICC+E+l+4FfAc/YAwPSze+auWi3bCUdtO7uTsokr7qIaAzLGr4Xb3oKRDgvRwe+3vO4zWvy3BflmiHTsmg3Ys+pAgnhECSo4dtrNXi4uL8Y3TY8eOCXhzyy23uFyu+fPnC9LFr2VlZddff33Hjh3r6uoi017dml9G0UyXuPXmr7DKiY6Y7NpTCkov4tFfe5XQLpmWgNLi0cDrYfxyx6AxD0J3+DPy5Z9B+qahqt20gh2qjbIFqst8+F+J6gmcM9faKOlyquaorvlxMNmhSJmteTAChFhsg8QfQMBMeOK1hB0j7gKswi5iB0JIVRcURUw9kwg7dOmjOk42L4HXbsZ3A5E70hJIk/+lMIo/EV4IGz+8FvCc1F2YHnbvjc2eu39eS9FMTrGm/RJVAljBjh+W7MOrTqqth3AB/v7q6q9JdcQKdoCLb3Cc9gUpJCMHjhw7bGevrlmzxuVyXX311WLevP7663jLVJwlSHnrrbeio6O3bIHQ85Fpr9Y1NnfoDVdYj5VVC4ij91VOdPTC4ZffV1RJ0cyjCf5nYvklwuwZD7Ij74XxC3tj585A4p5q9glpBTu0ErsgHZAfdZ/W8rYspzr9VS3A71Yw2cHHQ/Q8aVM+RTOfzdklyrFxws4pIGBz3zKMoiXsSLgZsCrLM4yVbSvqEnUDvSDCDquRNNAvC6vg78LYh0Hktk+EhgRfCqNtE+GFsPHsRYDnzJeF6eH4/vGMnRTNTEwnE7nHCnZ8PncXRTOkAhnakYecLiz7FwgeuUCsVrADrXcDhmt72ZGS9sZJjh22s1fHjBnjcrnuv/9+MT2/+uorl8v11lsqs5kFCxa4XK6vv2aXXrTYq/X19edbfidPnnS5XJWVlZ4Q/705fitFM/O3F5rsR1NTU2lpaVNTk0k4/Oqbj5RApI0R6fzEMH/eOJgdYd0xnjlvIneMZ+Pg1i7vgWAe3hl/aU2RebKCHTJNiZK3jgMkF7wnygilhOwiCKou9y+7qEK1AL+3wWQHHw/R85fzd1M0M2bDEVGOjRMKNoGAjexsGEXy7Ghu8vp8oXnOnzGMlW0r6hJ1A70gwg6rkTTQL2urtHwpvEk/enzPfl8Ko20T4YWw8e2TfF+E94Xp4fg+ZTOsAH4wdTuRzlnBjg+mbqdoZumuIiIY2g4IXxcqTngH3oAnVLbVDq/PlbE3Nc52lLQ9QnLaUVlZ6XK5zp8/LzYPcYpW/8AVFRWbNm0qLi4WAyouLt60aVNlZaU4S5wSHx/vcrkee+wxcVbv3r1dLtdzzz0nzuJSzpw5c/XVV7dv376mpgYnarFX3W43PoTM/T127FhZiP8GrNgDGyyzMk32o6SkJD8/v6SkxCQcfvVFW8ExwMuj0/mJYf9cu6hlUdAdU53Uj9/fyuwk5I5pHnEPP1Hy2Qp2SDYkTqxbCJ6Na5g+4qwQSsnILZQzVimaycgtVC3A72wQ2cFHQ/z81BDwoLNyR544y7Yp5ScOwfTXfWXZmZPGkCTOjvLiY3hWVHam2BhKdq6lS9QNdIQIO6xG0kC/rK5SP+M1rAhI9KUw3DQRXghar147ALlj6hZ+LEgPy9fMg3CF9Y4+SafOEJgLWcGOl0ZtpGhmSeaRsKR/DdOXP2uqYXrDon/CLTVrepnvrxXsqJv/d9DfdYPMoxdpEOTYcezYMTL2qtvtjo6OzsqScMSSlZUVHR0t8J/EWZiCB5P26ssvvxwVFbVx40YOrBZ7NSz3Vzf59jAfSdjQ3NxsZj1FbqnDDEzsveDv08gsVZrBJKB1G+vxXo13wLXCdiuLYILS/ypPU4Mwy//dCnb4tyD75p3UHb4QuStkS4RChvJ2zfLdRct3FykYtNlFFfxeBpEdfDQEzxfrGnCEkrNVtYIsW782N3sH/QFk7NQ+Y3iSZ4cvYoeEwhrDz2a1lHVBIOoGcCfCDquRNNAvy6ucPYBXSQgKHhFeCDruTfkZPltJtCA9LF+bm5sfGriOopmteaXmO2gFO54ZDvYqEfTMd9ByCHXnvT7vj54tY8y3ZQU7vPPegW9Z1nTz6EUaBDl2ENtf7dKly+23385ZiYKH9u3bP/LII4JEyVcz54Fnzpzpcrk+//xzPmQt9iq/vOoJaX5h2z4XV9ZmHT93my+q3voDZ814fZQ7Sm6m79O3HKNo5j/z2HhFZkCFUl18+2LAtTAXEbhi93gQTq8oVO6RFexQbpHN9TSz/qLKyVzg0dSoBYWUr8MpWKo4S+BvI2jsUKTMrkI48/xw3HrFUrbMxMFj9i8xhhx5dmDLAYenN4aTjWsp64JA1A30gwg7rHYKZaBflldpORIs8aUw2jYRXggbX/MNYJiWIEwP0/evF8CZtWHJh833zwp2/DEeztSYV1vzvQsQBJ9BiBJuQdXlrS0ack5mBTvQjJdAO3KWtuLmPGmjgBw7VK0zreeBr7vuupdeekkOmZdeeumGG26Qy+Wnr1692uVyXXPNNfxE/Iz9LX3//ffiLJzy6quvulyuhx9+uDvv17FjR5fL1bZtW5x25swZueo4XZUiytXtkEv2Ay8nOmZ6OnrDUYpmei3LNgMkxOpyrgLkXGiMfgBGt2OblPtlBTuUW2Rzy/IAvYE3IE+zpvJ2LaQ8Rw9pe5ULwDA46SBFM2+M3yIXNtauzEFo5X9AzFL9gplpx5a8dpzIBHxC3MeYHAGVdcH8xJcUO7BgT0yHC4QvjNxkZvlVjhQ2SsdfiolPguBNeRb+ChY3DeFKihd+jS+BGyJo2zi/xPB9WZQFR29e+xUceZr8WcGOe/olUzRz3LSLTZNdC1x17KXSHYMSW4wC/ixLDx5WsANNfAK04+g6PYg4ZYECcuxQtc602qtt2rR577335Ij97rvvtmnTRi6Xn47dHblcLgPxbLC9yt1BlXw4fvw4vznxsypFxFXslkJ2FiInOmZ6HZ8I8+n4xINmgIRSXfEwKk6ZDXeW0O7Zyv2ygh3KLbK5uSsAvUlPaSps40LK2qFsr97RJ0kQfC9o7BBRmOwqlQh8oBK2jgExMxqzjjw7jqQAPhOfCFT/A9qOsi7Yx17FRJmTCTfP/zlL4s5RQKlmaWPcdwGPt2O72No/8Ny3tHyzLCVYIIEXV9ZSNNOuF3O+zmxQa4IjFV7NwTEXwAXD0dLQW6Y0zMUVvkCA7itR6REzmkKQHa1dGX0/aMeJzNYU50kbBeTYoWqdabVXb7755gcf9EWVlELowQcfvPHGG6VyJNK6dOnicrkE910zMjJcLlebNm2qqvTFv4rA88BkZyFyoiPBOc1JvZZlUzQzegPJeOiaGw9GQRxVT9Cy4ODK6q9hdEsdKCgleLWCHYImpF9T4wC90A8mpmDXiY1VPEWmaCazoDynuEpgrCosBErT0MpUslpvJaaKsLF9OO6PioVkM8lrx/4lIPYzZI8OyaISChkKuiBemjHQIbLsGOM7lUMvDetTOdyXorYS9b8KZK+yCCbips/ckuUFKwxTnwMMD6w0IBshWqXHMLgjmpKrckxPtXek2GG1Cqt2JPgFxjwEQujz4m74JAIpdvhRY2h7QOxsrl+i86KBAnLsIGav4pCnmzZJnGbcvHlzVFTU66+/rgFPKLJixQqXy3XFFVfs3s3ebywvL+/cubPL5fruu+84IMuXL+/YsePTTz/NpUg+OPaqYBaud9VcTnQkqa0x8T/zINjGtIxjGstHRLGMX2B0W/pP5c5awQ7lFtncBe8BepnjNRW2dyHu3GxOcdWKPcUCBeG/5hRXPTY4FZxY5JdJ9ilo7BBhEyb2asVxELPYa1Bzk6iL6gnk2ZE1DfCZ/65626FZgtMF7J+Popkdx85JLs0Y6B9ZdrhX5VI0M2TtIQOYhGQVfJd71wwiyJPlBYvSr4+AduSnEcEwJID0XZFD0Uy/lTkmsSXFjjAZ9s1QszwfhNAdg/pfiZoajEEixQ6/1gdeD1hVnvBLdF40UECOHcTs1dTU1KioqOuuu27lSr/FtpUrV15//fXR0dEpKSka8GSL4FCrl1122QsvvPDmm2+2bdsWB7mpra3lgGBDlKIoLkXywbFX+fNvA9fx5URHktoaE/8xfQdFM4uzijSWj4hiOctgdJv6J+XOWsEO5RbZ3FH3AnoF6ZoKh04h1e/9Z3MgCLtcmPigsUNEYdWOiGrYMsHjgTvS7hhUlmcAP2Ls4La5MkYCMss/BWRIbHMZ6FTAqnQbBEsz2/J5zkvMtU2MHT40vpwP3m6mbC4wh1To1MZelxZ+QARjkrzgtGPE3aAdxbsAw3DXDoRQcWXtJN8l6scGp3KXqI0t7pBiR5gM+2ZEHB+hxybruK52WehsagDVcMeg2goznYvMunLaQcxeRQh9+eWXUVFR0dHR119//RO+3w033BAdHR0VFfXFF1/opfuiRYuefPLJmJiY3/3ud506dRo8eHBDg9/aiWOvypGU7BAmJzpyrSukc2v5L4zcRNHMpPT8CLpooUAXnFW8C0a3YXcoFyTIDuWG/HLrL7KDb7X0NqNf4ZB6UVWWXzfmKfiyDg47pCis2hGpSrZMm/AYCNshxgByxNjBXSPcEAvIJP4A03FCnm8M9CswVT6fC0szE9KJOQAnxg5f/9+fsp2imWW7TwaGGsFv5aTvi5Bwi7EpuAB/krzgdCHhZlCKsrxI0A6yJ29JsSN8hn2BvGp85UQxbz17JHh8N+TxtNbWtoxCih2t7dacA9VwxxBR3lawkfEkxw6S9ipCaMyYMdddd10U73fdddeNGjUqhIisShH794XsECYnOnrpQHa419t6CJSvLmcHuMbWQwRitEmxQwxZKaVoJ+CmZksrQbBrnqqyZBwto2jmyaHSZ96Cww4pYqp2RKqSLdOw09HNIwwgR5IdeCY0+WmQ/Okvwl8SbloNdCpgVSb49o4+m+PbLiPRKkl2IPTCqM0UzWw8XEICtVCA4WlGgykQPBIuW8jygjVQ8Yx8HURhDXvtIDvAkmIHWaxCQSt4OHLGKk7DHw7wCtkdeb2QJijAqyp4JMWOVrD4Ykvc/7WmOE+aKSDHDlXrTKu/JQ6T5ubmHTt2LPb9tm/f3twcYtEvVCnC9dS2D2SHMDnR0dt9sljpbT0Eynu9KP4m+PCXHlHAlhQ7FJqQyNo1AxCb/ZpEVognqS6jVNU04hP1VTUSPiGDww4pmoePfuFJBj6CK9VThTTC7MCY4El5uBurCKFt+eUUzXQblKpAYV1ZZNnRNX49RTP7T+pzuKgLYdsVXtITBl41J3xa0CbLC2hxfX/ALWK0g+wAS4odZLHSIkg2KsOdS+dwWvR3ViCTaISP02sbt0mxg0MEndkPmAzr0JriPGmmgBw7VK0z3faqZpRsWlCVIjbFm4eW6hScV1b9UU501Gv6l4jogdWfFLJvvz4KY5xiwC5S7JDFgZ/BfQ8SvwfEUvpAprYDNnwwNn/mjqnzryTxbyU9OTTNFydA4ix0QNmhSMfw0S8TkZPIswO7nYy9WpH2YZJ5sb7p1l4MRTMlF+qIdIkgO7xeb4feSRTNiH10E0HVpkD2zIWBl0QUMYK8YGmFI3K7Y9CAa21KPaJokR1gSbGDLFZECRYkYNgxpM5lFFLsaO1z4VbQ3DGyMVNaSzpPIgrIsUPVOnPsVREtQyFBMAWfv+MERTPtf2KyCs/pRV9OdPTCcQZWdYrN/xuMcTsmK5QkxQ6FJlqzuOM0+Dzk3vnaD9i0Agn9py987qx/3SjhASig7FCkJNlVKsWmLM4sOQhaEP979kyXntYIsyPC9lcRQn/6JZ2imfUHzuqhumxZguy4UMcec6htCLETW7LU0ZJx/jTogvtKVG3WCRZBXrCIr/zCh5tvi1XbLpaWHtu2DNkJDCl2kMXKtsTXh1j/tiCZ/a/SXosUO6BFvMp/JBlwmNSdxSHsVvm109ZASTl2mLJXN/l+dXWwFouflf8awDvwVVQpEniUiLT45vitEGx9ZpbcJpJcK3KiI1deLt0ZWOUo05qeRMMYh7cxW1P9nkixww+owguesmPP7Gv+B+hFwNREQI+Jvnt9n8+VuNcXaHYIMPN/La6s/W7xPrGah9iWVFMDG3myqti/f+pvJNmBJT/+RpD5Nd9EiOR/75Of4SmH1WmtoQRBdhSWV1M0c2fftRqaDa8i47uB7O1fYrJXBHkBmHBLOdOej5BFTOUJzIo9xfyZleqQS4od4bNMaVK+ueqcZOqZq5BiR6tq4JPJM//SmhJ5EyeOJ3of5Nihap0p7a9ib8BHjsB1O/wcLf+75JJL9CIdlPKqFAkKViYbLa6svb13oiCwDX5VjQsvJzp6UVIe7vVGhdXbut3L4zW5zPEwNeECGEityZFihw6CJPcBrHQesNEB3/ZFt+aDy6XHBkvc6wsCOxTJ9faEbRTNLNoZ4pGixjwI8pYvQXDF3iNi7MCTno2DWcv5/OkImZTPziykaObDaTuU6awxlxg7ENp9ooLs3VqNXQh+sZS+oAvLPzOJCUFesLow9y1ADH+tsL6E9YxceQIjmFwFbFqFo+zkFFe9MjaDopnRG45wZrOqzWxSouxYHcvhsn+DZA5pB3+1ySRJ7eCv5ix4L0I+HGSFQY4dqtaZkr3avXv3p5566uRJ8C+Pn59S/JHtkkXQVCliUbuWglUeapVtRTnR0YuwGRz0thV65fE4u+QTGGEnPgH4y8wASLFDB4nwyZaIuackpsz5lrOI56r9QmohRM5AEreqP6WhyXNHH7jjl196UX9tO9WY/y4oQuYEvTgR0w68flRdBmhATAKfqy2p9SO9GNq8/P6TVRTN3Ns/xYsdbJpDlxg7EFp/4CxFMy+PzTCHUQjWLkgHCRzWwcDxeH5vCfKCPfG4YQAgxnzLthLu2qE8gRHYq6qB7kmyw8eA530xAjcdKeUzPbKeuSnT+VMgmf2vQqnx8KDBZCXODjTrVR8OvpPJGhCILE6p9VaOHarWmZK9qtZoSOarUiQUe6U81Dr2qi14ikdbdwwa9Ac5YzU4BtLMl52R96lhGymaSRfNBuQG1qBI1N6iSopm7oslY2wEpQtso+vdIHJrvtGLA2F2nM0FNAbfqheN0C3f0OTp4FvyOF5Wbb4XBNmxaGcRRTP/mE5m49d81wIEIS0BpcWjuP8DOTyzn23UkGVIkBcsGqv+C1hFzFxc4eSt2FgNvL360MB1FM0cOHU+QJJpw2Y495BeLxp0C6sy2pSFvHYk9wYEIniV34yAyLFD1TpTsldjY2NXrVplBi0b1lWliA1xVkXJDvaqwnCvenhGtYNhUgCvWCuevJXTZKsowFnRW0YrWNFWtW4buF/O30PRzLg0oculQLNDkSBTM45RNPPxjJ2KpUIhc+98+NJP/7NeXAmzIz8N0Bj3R71ohHT5137dQtHMyr26Lw+Le02QHTg27P8W7RW3Es4pePgd7TsenzESesptIunsNkFesC3Pewe0I2u6TkRCuLjAjeWKPcWSlipODMw2AKZms8fbDnv2Pk/Gs3cIMwmjPu15EM7sRRo7Ql47cKyH/lcBGhGzpqOR2qrF5Nihap0p2atRUVE9e/bEbUdHR3/88ceqeNi/gCpF7N8FMYZ2sFe5ixbfLgKXMP+dvzuiL1qImYRTsLEqHz9DTpPl4JlKx3MjHLM+Pw1AGZ0tmULDBpWnbC6gaObfs7MEuASUHYK2Ra+fz90laVSLCto+oXgXfOaHtteLKGF27FsIaGCfGXpRCdny7lW5FM3Erj5gvgcE2RGfeJCimTiGAFbm+xVQCHjIdcegGS+ZGX4J8oLt/uQeoB2HmIBSw06N2WRahRAqu1iPjeSmZo+dKBQ8XLCHvPVujRgQ1g5OZ/ctNKOzGpEPv2Jy7FC1zpTs1UsuueTvf/87Jhbfdg1p8qlSJBR7Z5+BFSGEXZhKRgcJRdqSxJkb5uTX5OQ0mSQaHKy0BMRt+Va3RB/VdsCGgxEeD9sLyimaeTRhg6A7AWWHoG3/V6/X2zV+PUUzmQVmQ1/4Aw7GW/0FmAq7Y1CNvvhbhNmxdQzgsPSTYJAgaG0u33OSopk3xm81jwFBduBVzgj9amC/8YrnblSZRZAXbFu/3APaURT6pzlUaSdTwD7TqsNnLlA0c39sigymkZe8YzII57y/auw5Se3As7ih7QGByF7l10h8cTE5dqhaZ0r26vXXX9+1a1fcmGOviolunxT7DKwIob9P2wEuTLNC3IUpce7iYQ47XRx9Pwx2UsdI5DSZODoswBOZgMnwO62CHyJwL9Y33eo7cFV6oZ6PcqDZwW/b//lkRY0vxnJimASoHHEXCN6JTP9eqrwRZgd2zbr2J5VWwyu7oPQiRTN39ElqNL1XQ5AdH02Hr8bCnSfCi9jaeuP1gi7oDCkpAE2QFwDZ60UDrgOUKgoFDUXOq32mVVvywIP9syPSI4f4Kj09ngHCObKTSrGWbJLaga/RYu/EZ1vOg0TkKn8LdXX/L8cOU/bqq6++Gh0d/cQTT/Ts2TMqKqpDhw495X+hclpYlSK6aW+DCvYZWBFCL47aTNFM2uESGxDGNihgYzV9CDq1F8bZhFvQxsHwIDJZ5TTZqp7gdcq5b1sFP3TgPj0cXC6lHfKT20CzQ55cK/fCZapXwsaBKvavuGumfI8lcgizA8dFyPhFoqXwTfJ4vJ3dyaoOY7QQgCA7cLiOdQfOamk33Mrwz90YXT0hyAsgb10VfJ7cMaixNtyorbk/9plW4cH/nUnbNOMe7gWry1n5rL+gpauEtaO5kW2dO5WmBQmnTAsF5Nihap0p7a8ePHjw1ltvjdL2i46ObkHG1v+rUsTW2MsgZ8bXkZzoyDSlnvxwHJxaVPZGoA4lzEpwru2am1DcjTDYnc0FYzUtQdBR4uwQwBe+YieQGwYI0yPpHbvZwDs8vZfv59+7DjQ75Mneb2UORTP9V+fKFwmRHKwLST+CFiT3ZpGW0gVxfwizY/ZrgMPeeeKGwjvlg6nbKZqZt93sZiZBdjw2OJWimV2FFeFNeYneYWN142C4v2riSDBBXgCSZXmATPzvJRCOmCT7TKuwp73/zNsdMbTX0NFhHUBETwpdTkjWJKwdXEAdj3OdWJLeKoly7FC1zpTsVYRQTU1Nenr6rFmzoqKinnjiiZmKPxUc7ZGtShF7oKkbC75ruz0nKu6PTcHRpVWDSsuJjm4MfBWaPd7bfkqkaKbEcWQnR0EcP2bnFMl8suyQbMIvcVJ3GPQPrPRLjKQX5UlJ0bnqsrIyjw0+S38eDccW1mSfCnnm4An6vL+C4M15E7rDnT5Q6xth7RjfDXA4ul6t2fDJx5+JH5aAS7x/zsziL80Y6CRBdtz981qKZohE2THQkaBV4Ut+6WEUezUIpNS5G1UMCfIC2jq+BdAY/YBqu+FdgD+teiRhA0Uzk9ILcoqrAjytGrz2EEUz7lWhv1hJUFxmvQIiunuWFpCEtePUHmh6eEctTTtlxBSQY4eqdaZir3ItOfdXOVKExMO4tDyKZp4fuUk1Lryc6BjrJnZkd2svxnFkJ0vANF+Q66X/lCxAlh2STbQmNjexl5TOFbQmRtiT8qGv7KIKO9ir1fVNOJ7B6aqwOJ6Hp+n4AhJ/yq4me4S1Y+jtMO04na3WbJjkKy/NqE7BxVQgxY66xmbs/vR8XaO4lXBO4c7d4E7iuMQJt6D1sXp7TYoXbLu5y0E1pj2vF40wLo8da9NL/YYLvkHLrf7kFFeRXejEC0xjU4+GMXl1d21tLxDRtb20VCSsHUeSoemJT2hp2ikjpoAcO0zZqz179pw2bRpubObMmVu3EvAoKEY9wCmqFAkwPhY1d/B01R2+uPCztxXyh1HxpEROdIwhdvD0eYpmHhywzlj1iKiVtwEGOxlXAWTZoULPkoOASfzvkQ32D1VQtSw7JOzVrT5/G2L3xZZRxXrA6/qB7OncTSKpHZ5m1L8tIHDhjPW9tUULyqJu4AYHKXacqqylaOb23omqq6u2oKN1SDRUo4SbQSY3+NurGk7Lk+IF27ntkwCNhR9Y19eQg7zpSClFM13j13NSqrwAlFNQTOpgTs8ZOymaWbDD7AH+kKO5EsK7Z4GIznpFqUxLHmHtwE3PfasFvPO/PgrIsUPVOlPaX+XvqTrxV/UxJKillYdRgckqJzrGeoDH9OdHbjJWPSJq1Z1nJ8rnT4v7S5YdYvh+KTj+ZGQvoitP4m2yvzpmw1FfTOM9fuwL6RfOJ2rsNdr7QVI7LpbAdMd9JWpu0o5ASJdUFvUg2qsYsS5xEXQwW1aQlnwMYtm/LSo9wpbRdgCBpGogxMY5Y76VxTPyMuoam+/sC6fWD5w6j3uvrFAZuYWk7NWI9kYmJ2kns0BThnWQy+enE9aOTUOh6dOsnh4AACAASURBVJVf8JtwnrVTQI4dpuzVSy+99IMP2AU2vu2qHS0bllSliA1x1ouS8jAqmJfIiY7eRnH5pbsguN8HU7cbqx4ptSY8BuNd7nJxf8myQwzfLyW5N6CR+L1fYoS9KCuLTexVHCNqxpZj4cMc7kiwntt6JLXjTA4I/5Dbwoekaj1RFnXBd0ENGOSTYke6b+fKWeUEmnq9aMyDIJkjO8OzNmOVIC9YvmM/fCL39VqkIozLfDIT9jnHpeXhPiorFEF7tdsg8Ea250TkeSNTECYuiHe1ekByUiMVi07iD6ChgkMQCqg6Wf4UkGOHqnWmtL960003derUCR9+cOxVf4Lb+k15GBXMS+REx1gPJ6bnUzTzv4V7jVWPlFrMdzDeJdHi/pJlhxi+Xwr2/KTNY4FfxTB6UVaWINqr3M2o7KLKu3zeaJbvLtbi6iMEmINn4Vj8xv0RdEHbzJikduBj+b8+EgLkIoSisqgLvgta2iTFjuV7YJXzvSn6gvFqwTAky1QcZx0vYfdLgVcNhNC8d0Ars6aHJAEtQ3pOZiFFM29NYG/GKSsUKXvV6/Xiu11F52os61loAh7ZCaT0eIYq9qRGKrahRX+HdrdPVG3XKSBJATl2mLJXP/jgg6ioqFtvvbVHjx5RUVE33nhjD/nf008/LYmZ3RJVKWI3hA3gozyMCuYlcqJjoF2E0MA1ByiaiU88aKx6pNTavwTGu0ndxf0lyw4x/NYUrxcNvhXQOBVGp0xbu6f1SVlZgmWv6jrSr7WrNinHbRkd2wziN/xOuVjEYnxJase+BdC6tutPYkxCMUVZ1AXfBS0dJMUOHK7jv/MjeiDyIzh3+mDAtX7p8i+keMG2MLkHaMchRr7BSMw5WVFD0Uy7XkxlTQNCSFmhSNmrF+oasTeymoZIubmgVbawk/kdk1XLE9aOaS+Adkidj1PFxCmgcBhE1TpT2l89depU165dtYVfjXLir9pHEJWHUcG8hKwmf7VgD0UzkzdFrr9ZTWJQWQTjXf+rUEO1oDxZdgiA+71WFbM4NNb5pUfYi7KyBMteVcZKoMIhxjHOJ2pDDaiAOwZVnpCMRSzuF0nt2DIampZx0y1uOgxSiAsVKXYMTXbCdfjLVxINwqnHGxkpXrB4/HIPtK4tuKU/6mH+9qdf0imaWbUP4oopKxQpe/V4WTVFM3f9vDbMKWuge9if9ppvVKsS1o7RD4B2HN+i2q5TQJICcuwwZa/ilgoLCzdt2hQVFfXiiy+mK/4kMbNboipF7IawAXyUh1HBZFdOdAy0ixB6d3ImRTMr9hQbqx5BtUbcBUPeMaFjKrLsUKLn4bWAQCSdh5SkhvJOJtmwBJIISCbqUmFJCKGRiMP/7l+iEVuS2oEvbyf31th0GBQjLlSk2NFrWTZFM6PWO+E6fFKGN1cHXAfjM/Mt/NVwJJgULwADr5eNc1ZRGAZiT7YLCYkHuRtPygpFyl7NOn6OopknhqSR7Ug4QMteBNqhwWEkSe1ACEIquGNQGXuNORwoGdg+yLFD1TpT2l/ld8G5v8qnhs2flYdRS+1VvPq4Ja/M5iQKPnqLP5KciMhpMnmE030+7pb9izzkUIPI3RTFkZ/iGDjT3m3QhqJzNYFjhz/RdKmwf9WQesP7SMx3GpEmyY5l/wIF3DJKY9NhUEx5aUbgN15Lf0mx41+zsiiamZ3pWEeo1cHSjJdAPnfPbk1RZAkpXkAjdVXQtDsGNYZFtGdFuunKLK6snb/jBEUznd3J2UWVozccwSd1Jf+SslfX5pyhaOa1X53dPBGvzuwHKR10C6ywKP5IakdDNasddaybaMWWnUwJCsixg5i9WlhYWF6u7oZLAjWbJalSxGb4GkFH12RXTnSMNIzQ/bEpFM0cPnPBWPUIqrV9Iox6s18XdJksOwTA/V4XfgAIbB3jl+i8IHSxvqlTv2SKZlIPnQ0cO/wpr0uF/auG1FvOMhDCCY9rRJokO2a9Ak3vna+x6fAoJlia2V5QfpcvRIex0I6k2PHm+K0UzSTul4jvFR5k19EL7rQ83v/HSzkBjr9adhRUI/73OtCOgKIKyz1ie/WOPkmk4q9iJ0//nJUVATTW2cXGOvZGyXk4nq3wIzVSQRPnjoF2DLxB1UhWwCfCs+TYoWqdad1fDRv6qlIkDHqqMLDe0SdJsI4uJzoG6NDQ5MED97lq8Ebg/JQocHofjHoJNyNPM78YQXbwwUo8j7oPECjYKJEV8UnxvkNf707ODBw7/GkeKfYqe4m6LarXtMJFkh2/Pgryn7fBn/AR99Z7+X6KZl4YuQkfLuD+Cj4TknQhxY4ewzdSNJNZEA4L4pKEMpKYvRjkc8ozGuuS4gU0d3wLND36AY1NR0gx5TH5gQGwUr9w5wmsQQQvkoxcD7u4vZbtjxA66+vm2Id9w7hK6GaS2nFiO7Q4srM+PJ3SPArIsUPVOtNtrx46dGjlypWzZ8+eJfrx8LHvoypF7Iu6Hsz46+gPD1zPjaTiWYic6OhpjS17uqqWopn2PyV6PCrHMwwAD7cqzU0o/iYY+M7k8LtGkB18sMLnuvPQtDsGaYhdJqwbAe+7Civa9WLgJvbukxm5hdlFFXgWIlYfi4ihPDcSHOm3CIcAgcWeXbStm5DUjqHtfdoX0bPA4sraDr2TxLtDFM2IVzbF8kCKHff5TuUcPatpzUKMRnim4E3OgTegZk1eYUnxAoiZuxxUQ8O1wPCkvEyvlMfkP4/eTNHMyr2s5w6C7Oi7IoeimeEph2XwiuzkRR+CrKodEyPIDnRgFbQ45dnIprup3suxQ9U602GvZmZmdu7cOVrqFxXl+Ac2xT9LK380fQdFM3NkbgfJiY4BlPafrKJo5o/xkb5loZV0+ETizin88gTZwQcrfC7cBmPuiLuE6c47QrqOJ1hEMOW5UVjZq0s+BlHcOFgLJYlpR3MTcl8J7V44q6XdcC1jUsyIsKOpmT2VU36xPlzpbKRfHg+7oHn2gJbqRHjBNrR9EqjGwg+0tBs5ZZSV5e/TtlM0MyE9HxOEIDs+m7OLopmZW49HDql19HTjIJDVFZ8rVyHIDrRzCrS44D3lFp1cBQrIsYOYvXrkyJErrrgiKiqqW7du7du3j46Ofu+997p06XLZZZdFR0e/8cYbH330kQJ+9slSpYh9UCWFSUISeLT7eaXfPh4HXE50uALaH1IPnaVo5i9j1MM3a4cZziXTEmDg84+oQZAdSqTDM5J5f1UqE6l5yvOSwNiKdrCZA8T/HZNBC0QXuSVbJ6YdF85Co/3bCk7jSzYaxokmRZ0IO0ov1FM0c2svptk5lSMQNRzmce88QbLkKxFesJA3DADt0OwFTRKf8EtUVpZvF+2jaMa9Khd3nCA73p6wjaKZNdkqVzTDj+CaenRgJciqVCh7fnWC7EBp8dDimv/x4TvPuiggxw5V60zr/urHH38cFRU1YcIEhNBHH33ERVvNzc198MEHO3fuXF0tjCSpqwMBK6xKkYBhErCGlu0+SdHMXyduk2xRTnQkCysnLtwJrvM+mr5DuZiTCxRIS0DLP4WBb2SnVoKkD/GmxpeVlXk8ntZEK55W/geaTh1oBexQh6k8LwmMvYp827xTNxdgT8XcrcKc4qqAnUkOEB9lLnJLtk5ssDqdDfI/tL1kK5GTaFLUibDj8JkLFM3cH5sSOWTX2tO1vUBKk37UUp4IL9iGVv0X2tUQREcLYmFTRllZBvl2Bf7V4hWJIDt6DHNud8sLEXdsXnHKRJAdaPVXoB0bB8nj5OSoUECOHarWmVZ7tV27drfffjvGgm+vIoROnz59+eWX//TTTyo42iNblSL2QJMkFnicvT82xSvl9VtOdAxgMDb1KEUzPyzZZ6BuxFXBQfbwocTzPseYvhTPxsGBsFcnPglj7oGVEUd2DR1WnpcEzF6FMG8+t0/00mwNWIdsEe4i91l2a0KhJ8QGq7z1IP/juym0FQlZJkWdCDu25pdRNPP0cMfxm0ji9i0EKZ36nChDIoEIL1i4896BdrOmSzQTwUnKyjLFt7bIHS4jyI7ObnBWn1fi3O6WEr7mJjZW8LkCqWw2jSA70Py/+bRjmkJzTpYyBeTYoWqdabVXf/vb37722msYiU8++SQ6OrqhodUH7IsvvtixY0dlFG2Sq0oRm+BJEI26xmbsPKbkQp0YrJzoiEuqpvRbCY4BhiYfUi3pFAAKsCZrDPi3wM/pQwiyQ0hkLlJCc2PrEK8hUoIQTri/K89LAmmvvjpuC0Uzy3afDHOSz3wZZgA7p6p2k5h27J0PLc56VbXF8C5gUtSJsIPJPk3RzNsTpI//hDf9VXpXcgikNO5GLafWifCCxWfSU9DuoUQV9CIsW1lZVuwppmjmoYHrMFVIsaO+qRm7Q6usaZ1vRxjh5buLpzQTHvOJK8OWk5rSkGIHNDG5h19z8tg5OXIUkGOHqnWm1V696qqr3nrrLdz8N998Ex0dXVRUxGHzzjvvXH755dyrlofFixd37969bdu2l19++b333jtkyJDGxkbVinv27ElISHj66aevv/76Sy+9tG3bto8//vi4ceO01MXAVSmiikMoFsBHSjKOlomRlxMdcUnVlC/m7qZoZsaWY6olnQIsBSY/DWNf/7bw13f+iiA7hERuMYnR2QPQXPzvwclNS7vCwhH8rjwvCZi9Wl3f1P6nRIpmTlbUhDk38I2gZf9S7SYx7cgYCZKvoUVVlEK6gElRJ8KO2duOUzTz6exdIU1JS5D3NKO4/wNBLVX3DUuEF2wvsMvuk07ATz+uKvsUyD0FziYpmqlvggB1pNjhxFzw44HgBU9pxncDHdk0FDK5SY5/SVLsAKiOdvjT1sCbHDtUrTOt9mqnTp26du2KMRs3blx0dPSiRYvwq9fr7dChw+9/ryO69Ndff+1yuS699NLnnnvujTfeaNu2rcvlevzxx2traxU639TU5PL9rrjiih49evztb397/PHHL7nkEpfL1bVr18rKSoW6XJYqRbiS4fTw6WxwMTc1Q8KSlBMdA913HAPoJhr2je6OQQOuxXUJskMCGTyaL/wAxnc87DqXlERkMjmJF8EzmJBxFM5JdhuUarB+CFXDp3NH3auKMjHtSO4NKpDSR7XF8C5gUtSJsAOHl/xpeUQHFpIVs6l/AkHdt1C2QEsGEV4AMK+XPX1TUdgC2/mfpQA/TKDAp4DX672jD4SGKiwHTy6k2IFjLnSNV4kvGrkcwlMadwxa0lPOWCXIDp92XAsqWXkicmluuudy2qFqnWm1Vz/55JMrrrgC25P5+fnR0dE33XQTwzD79+//9NNPo6OjudPCqn1ZsWKFy+W64oordu/ejQuXlZV17tzZ5XJ99913CtWbmpoeeuihxYsX19e3Or7fv3//jTfe6HK5evbsqVCXy1KlCFcynB5GrIOQ0z8ukbgIJyc6Brr/lM8xwHYn7Lt22mFPjDgUqtX7qxgrbnx3dlZl2GRyEi8DVXfyiJTDFM18vWCP7pohV6GuSmN0GWKD1dJPYM6xZXTIkYoswspbRqqevYiw42ffLRInvKQ0ZxN/AEFdq+4chAgvAAdQRl9o7kalzQNpbCM7Fc9/tuWXEzSQ0g6VUDTz4qjNkU1axd4v/adPYn3xyWTW34lpR21Fi3ZI3K1TxNLJbKWAHDtUrTOt9uqyZcsuvfTSxYsX4zY/++wzHHM1Ojo6Kirqt7/9bW6uurcMXLdLly4ulysuLq4VfYQyMjJcLlebNm2qqqr46Vqe58yZ43K5fve732k5FaxKES0thlwZfEfo1XFbxJjLiY64pGrKPf3AMUBB6UXVkk4BoAA2HUc/ACMgvsJn6f1VjujYyVPs1VyC88CngMlJPB+Umed3JkEYg3nbI2Md99dHQQsOrFKmGLHBCqubhm0rZXzCIJe/ZbT+AAQko2gmOfeMqrFKalL+xTy4RTJN6uxPGJDXbBf2zgO9mP6iKhxiqoEdribcrNqiU0BAgXcnZ3LuBkixY3FWEUUzH05zYi4IiM17vXCGtSFbDqnx8thHUuxApUegrUG3iJtwUrRTQI4dqtaZVntVgIrH4xkxYsQjjzxyxx13vPrqqzt2aFWn4uJifKb32DHh2dRbbrnF5XLNnz9f0Jbqa25uLoZ5+rTPz6piBVWKKNYO1cy8EogZcPfPaz2iGHdyoqO3q7UNrGOAC3Xq95D1Ag/D8thYTR+Cds2AEXDSU9h8tdw/ML4ryNvRDUPamu4SN4lfvhumC/f0S95/sjKQsWTqm5rx6bK8kshY/VnzDWhBcm9l1pEarNCvj0Bz+RFw1lqZoKLcnjN2UjQzYM0BUY5EAhF2/G0SzPJX7i2WaMBJOpsLghr/e6QYroPU2gHQ+/gWaHH0Aw7t9VIAh2Adl5ZHkB3jN+ZTNPO/hXv1IhNB5TUcGSMyUgFJj20G7Rj7cASR14KuyrFD1TozaK8a7sKaNWtcLtfVV0vs7bz++usul+uHH37QCxwfMP7Nb37DPycsB0SVInIVQzq9sdnToTdcrig6J/TdIic6evtbdK6GopmOfZMko+bohRb+5TlvvRfOsochz59CVsdf5Ub2Ie0cZ0taZKy6rvFW345T2cXWOwhaKposk3X8HEUzDw5YFynatG8BzAOmPKNMN1KDFRrSDpo7k6PcXATm4vOHnd3JtQ3gNkb5R4Qdz4/cRNHM5qOlym1FaG5zExp4A8hqGVhBCj8ivAD4ucuhuWnPK7TlZElSYLjvBkdv301sUuwYuOYARTPxiQclW3QS2UNqk7r7Ph/Pwl+pI8Gk2IH2L4EmZrzkUN4MBeTYoWqdabVXe/bsacCSFHdpzJgxLpfr/vvvF2d99dVXLpeL80IsLiCZ4vV6H330UZfL9cYbb0gWQAjV19efb/mdPHnS5XJVVlZ6IuyHpwXrDpwR9Lupqam0tLSpqUmQrvc163g5RTOPDU7VW9Ep753yDHLHeHZM9ng8pNghQVWfN2DPrFeRO8Y7/10ogFM2DpYo7CT5KNDU1PRownqKZrbllQaSJDiU8aezswLZaLDa8qbGe5JoEMvYazz11SwaGwdDuv+PjHY01nt9R+I9F876g3fePE1NzY8PTqVoZv6OQlVyEGHHw3GgXzknI+6LrEpeXMA72fd1yF6kXJ4IL6CJzAmgiQs/VG7OyRVTYG4meLr+aPoOgt/xrxbsoWhmYnqeuDknpXUCk70YhHbCY60p/tQhph1bx0FDi//hD95500cBOXZUVla6XK7z58/LmXJa7dXLLrtMryUp2WR8fLzL5XrsscfEub1793a5XM89pyk6Nlfd7XZj701Hjx7lEgUPuAw+M8ydRi6LsN+nM+HY1TAmW9DvkpKS/Pz8kpISQbre18XbwKXTX0al663olK9OjkPumIZpL5WVlZFih5iqNUzf6qR+DTNeQ+6Yi+sG4wLVSf1qmL7iwk4KpkBJSclfx22kaGbC+txA0uTdCRkUzYxNyQlko8FqqzqpH6zX+EJ3VGavLSsrwynVSf0EKBHRjnPH4Yylt3/bspKzAvjOa05BMb0wi6KZJwdv2JxzPCO3EP/LKSgWE8c8O0pLS2/zBW06cOyUGL6TUlZWVrv0C+SOqVn5rTI1zPMCw69Z0wu5Y2qX/ke5OSdXTIGVO/Iomnl2eBrB7/hfx2+GGIHpB8XNOSl4SlNWVlZeCCH6vO4ry0/mSU5piGnHKvB/Vrv8K4f4Ziggx45jx46RsVdvueWWt99+W2AHGngla6/OmjULu33iHEFJouTsr3o8Hrxj89WCPYKVELmlDkEx1VccRu9fsyJiR0iVGvoKlByG0Tb2Gk9NBSl2SCPQ3OQd9AewDYocNklTSJDa1NTUdwnEguq3MkeQZd1rY1PzPf3WUjSz/2SFda3YCzIOBeyO8WweIbdGTmzXongvqNuwDvaigA2wKTpXjW9NY69L/L939EkqOtey9d2CqvnBqqK6HrdS29DYAtX5358Cu2aBuM54yT9V+GaeFxiid+V/4QPhHLoRElj9/aAvBOu9/VOIjVQeDz4Wt/GQcxJEhf7esQ+D3B5cI1mOmHYs/xRa2TRcshUnUSMF5NhBbH/1448/vummm7Q44JW0GLlEgueBFy9efMkll0RFRU2bNo2Dr/qgekJaFUKIFsC+H18QOUaXO0qut5u/+ELm4Msbeus65dGYh+BeRM5SUuyQJulZWIaEGPTNjk8saQoJUj0ez7S0gxTNvDclU5Bl3SsOqNOpX3KzyDuadY0GH/Ls10E4sfNqqTtIxLyYHF0PDY2XOOMTfCIEFQO9kZzMD1YFpRexP7Og9tvejZ/OBnFNuAViP8r/zPOChT3vHWgua7p8U06ONAXO1zXixZeaBrhdVVZW5lHzkiUNiJfKnpYv1h01gwcjMh6xx74kWrK3pNiB8Edqz1zJVpxEjRSQY4eqdab1PHBRUdE111zzj3/848KFCxpxkiy2evVql8t1zTXXiHOxv6Xvv/9enCVOwfF1oqKiJk+eLM5VSFGliELdkM7C/pA69E5qavbwOyInOvwyWp5/Wr6foplf1h3RUtgpI6TAup9hlrCkJyl2COHj951ToJWZL0vnOqkiCsAl3/1wK6lLnOUR2zmnxAMZ8LHx5vgtOCS9lsgiIsRDMKHkIAinOwZZHZZgz1xoZfZrIUgja1EOvL2K/Yo9MSTN2o6FNPTmRjTgOpDYcwUK/SD24Zj0FLR1KFGhLSdLkgJer/fun+FcTH7pRSLs8Hi8+LT82fNOtE9JkvMSc5aC3MqsQhJhBzQ2/jFo5ajlkwFex8LwUY4dqtaZVns1Njb2/fffj4qKuvbaa//2t7/16tUr1v83YMAALXTF7o5cLpeZeDYrVqy47LLLoqKiJk6cqKVRfhlVivALh9Ozx+O9yzeYCiJkyImO3r7/cxbcepqTWai3olMeKFC0A8bBhJs9jXVE1mWlqbr0E2hl4yDpXCdVRAGPx3O8+AxeNa+qtXBT2iZBX0UECGBCy5FgEFFL91czfoEmln8awL6FRlOBt1dTckG5JAODhwbJAoMltiFzlim0Ruo7jn65B7TjZJZCW06WHAWeGZFO0UzGUdhZNf8dP1fdgD89jf57DHKtR3T6xRKQW/eVqOacmA5E2AFgh3WAVk5ni5twUrRTQI4dqtaZkr3ao0ePIUOGYCTwNdEoqV90dDTO1Yhuly5dXC5XXFwcv3xGRobL5WrTpk1VlcrJh9WrVxs2VhFCqhThYxVmz6+M20LRTOJ+vyi1cqKjt++v+oAn557RW9EpDxTweNDQ2+FqxNEN5r9zsiQdcTeMtgUbZQs4Gf4UwNrxx3hwYbqrsMI/k+SbXlOBZNt2gIUjLU1/AeRzbBf4K2Wykhms1oJHGZTS1w79thUOeoXQPDsW7DhB0czHM3baig42QgaHPVv9NUjsup9ZxNKHoLQEAZLmeQEAvV52L7fCWXcWEFjT6wdTt1M0syiriAg7jpy9QNHMfbEpmtp2CuEPx8E1YkoQYQfyNKP+bUETL5wVN+GkaKeAHDtUrTMlezUqKqpnz54YCbfb3V/tpxFdHC71iiuu2L17N65SXl7euXNnl8v13XffcUCWL1/esWPHp59+mktBCCUmJv7mN7+JioqaNGkSP137sypFtIMKuZI/LNknPrIrJzp6e/eYLwrC7hMWzun1ohRi5Vd9CX411vzPKnu18gQMtbFXo4bqEKNM8NDF2vHeFPCtvWhnkXWI6DUVrMMkCJCxsZo+BJ0CT0gQcDJ1IDyITFYyg9WSjwH41jFB6Km9m9QrhObZMS4NXKp+v3ifvQkTPOywasz/G0jsrFcAD05Z/JEyzwuAV1cFDbljUGOtP3jnTRMFflySTdHMqPVHibBja14ZRTNPD3fWlzURH635H4iu1BVWIuxAeAu3f1swXJ2fCQrIsUPVOtNqr5rATaIqDrV62WWXvfDCC2+++Wbbtm1xkJva2tZRcsaMGS6Xi6Iorn5JSUmbNm1cLtfNN9/8D6lfWVkZV1juQZUichXDIH3K5gKKZj6bs4vfFznR4ZdRffZ6vdixZNG5GtXCTgFpChxJBnt1+J1lpRDqU7qMmdTsRTCaT+5hBkak1cXa4V6ZQ9FMHHPAuu7rNRWswyQIkPEmEt7eGdkJpPTASpiXW7SJNPMv0ET2oiD01N5N6hVC89+OAWvgqnZC0kF7Eyao2GED1R2DBv0B4TPzonUcYq7Iyo6CaiTcHNQOh3DjI9dDVD96abZ51UAIrdp3iqKZv07cFsIUCSTqOctAesd3E7dJhB3ozH6AP7S9GL6ToosCcuxQtc6CY68ihBYtWvTkk0/GxMT87ne/69Sp0+DBgxsaGvh9Fturx48f58dQFT8fP36cD0HyWZUikrXCI3Hz0VKKZnr4L9fJiY6uLnOe8WobnJUnXZRrKZyWgFLjUdyNyB1TmZvK2qtSU/aWCvr/x4fKknvrrxm5NbB24FhNH03fYR0h9JoK1mESZMjJvWFOsPQTSTSIDFZoXFdoIt/x8SOksV4hNM+ObxbupWhmYnq+EBXnnU+BtHiQWPxPylglZq8e3wKtjH6A37jzrJ0Ci3YWUTTz4bQd5lUDITQt4xhFM1/MZc8hakcjQkteLGV1RHSFlQg7UB52LC9hD0cowY12W44dqtZZ0OxVoz01W0+VImYbsGv94sraTUdKKJq5FW7incOuR3OKq4rOVZs/gJrvC0vQqV+yXXtve7zwIrrvAkbNmp/AXpU592W8J3iaLnW7wzjMcK+JB9bMfDiX9djgVOu6q9dUsA6TIENucTyGmurFmMh958QllVIG3wrTmrMW7pYrtW7jPL1Ov8yz48NpOyiaWZxl4Ul7G9NbD2o4zpO83JrnBWCTuxxUY9oLejBzyrZSAG8JPDsinQg7hiYfwqG/WxtwnpQpwE5yVgtKEWEH2jsPtMNxLC8grv5XOXaoWmeOvaqf2CFYQ3kiklNQUuCyMgAAIABJREFUbPIA6vaCcti5HeZctDAhHC3nvppGP+yRP/dlsIGac+zSY7X6mXmDTYRjNTywlp6vhYWeXkxNQ5NFvXTsVZawHg8a3hFk9YjE4pfcd04HU5obHUVQIBcXVAkvaP7qu196f2xKYbnEpXfz7PjLmAyKZlIPOf5LFHjScmeV3WJtixZ+KCydPsSbGm9+3RltnwjasUgEX9ie8y5NgbwSNp6wedVACOHbsGM2HJVuzEkVU4D5FgQ46UdBDhF2IMexvICsRl/l2GHWXo3W/LvkkkuMIh/QeqoUCSg2gWpMeTackVto0l5dkw0XLd52LlqYZOh6NzuZlnI2Ywr2oUSAPPZhU0AirzI3sD4wYB1FMzmWxW1X1lDr2rUjS5nvQFZXfCHGjWOHOEtryvlTALz/VeCR2/mpUaChyfPQQJD8tTl+XuVxPfPs6DYolaKZvUWVaohEcD530Ka6HI26j/1ATO7RegDBV8CzcTABe3XDAIDPtLq9jGC6G+l6TUMTjkBTWVNvnh2fzNxJ0cy87SeMoBKZdfABgV8fFfTe/EgFALFjec5Nt6AN51UzBeTYoWqdqeyvSsWvkU6Ljo7WjG0wC6pSJJjIWda28mzYvL06fYtz0YIM87y+c1/e/leRAcdBSekLE5FVX3IJzoMWCnAD69sTtlE0s2JPsZZaBsoUV9bi0PB4usP/e0efpOLKVkd0BoCHWJVjm0BWB1OoWRjwlmOH8R6d2gPAh91hHEKE1RyyFg4lfjB1u7jf5tnRsW8SRTOOlz4xbdkUzljF755mNOPPIMDuGDT8TlR1krs2Yp4X0MKq/wJkmSuyskg6GTwK3Ns/haKZg6eqzNurOABhihMjkEdelUfuCmt1Ob8kGe1Y0hO0Y9s4PmTn2QAF5Nihap2p2KsvvvhiuuafAbwDX0WVIoFHKQAtWm2v4jmNe1VuAPoSzk20HAmGYVHkHNVUx6c8AzD3zjcFJPIqcwPrT8v3UzQzNPmQRTTwer1PDIG9pqHJh7m75fghsoxVhFBzExrSDsRV5BKJY4dxLhxJAcgTHjMOIcJqZh0/h1dPUnLP8CWzuLLWMDvwqWMO8s5jrD+FiBN1VVniXGfzSy79FxwQAKv1SvjrMy8N84IPGM17BwDumuGX6LzoocDzIzfBEfeDZ83bqzhGoKVxv/X0LETKjvsjyPCBVXx0yWjHjJcA8v4lfMjOswEKyLFD1TpTsVe5+KsGcLJnFVWK2BNtk1hZba/iyK7j0vJM4hnR1fGxrtR4z5DbYFhsmYgQoElDDYRddcegCnUH2gSaCyMQ3MCKXTX+e3aWRZ3DN8Dv/nntxXqrrshahLklYPE+z5pvBMA5dgjSdbzumQOKMOcNHVUiuKiy4wNjvvqUYTomqyZxKz3CfiMGXIvLE1ANhNCkpwDsoURNODiFpCjQcwYc4p2bedykver1evHpgxPlToxAKUKL0/DiDr5OkvgDm+8LskBGO3zuMNGxTeKWnRRdFJBjh6p15tiruugcqoWttlc/mg5uHhftdNw8GpWQlnNfHo+nZtUPMGkY/QD8JXI069hmADX8TuT1GsUvQutxA6tkLCiCRPl6wR6KZnot208QZgiDOuqLHDD0dkFkdo4dxru2eTjowvLPjEOIpJrKH47sogoDk3JlmJF1VduwLPFP4hDcX/3lHtCOk1atyhnubghV7O07iTMs+ZAB1eB382I9exW22lnB5NNF4RkrxeKPQIbxFVbetMokO6DZQX8AyKWHFVBwsrRQQO477tirQuqpUkRYISzelacI5u+vvjRms+Pm0ZSktJz78ng85/KyYFh0X4mSe5s6FdwCk73jtPgjwJBsTFdTfQ6BytzAeroKXATf9lNiQxMZPz18R6xb88ra906kaGb57mJnfwlkPi0BJdwCWlC4lZUSUsvkSTSAdXxmaFM+5Q+HY69qoyLpUngWjq94TOoO8pw+hBupjDfm9aIB1wG0SsfBj3EqjvO51P520V6TBlJheTVFM3f2XWsclQisyV/HWdcPqwaZ6MRN9QDNHYNEwV0jkMwmuyw3WKlaZ87+qknKh0Z15WmHeXu1a/x6imb2n6wKDXLYGEusyV58U8LkFdaWxUU061UYZ3dMZg1XInu2NqYhQdS4gdXr9d7TL5mimSNnL5iH7xyJVKIhltvx3UBok2go2SLJHDuUqivn4dV3x2eGMpVacpU/HI692kKnAP7fogvo8FpQkFH3Ye0g4B+4thIAumNQY10A+xNuTS3ddZKimXcnZ5q0V3cVwr1xS4N+hxvpcX+wgvjfqCLw4agsAtWIvcY5pGZebOTY4dirQtqqUkRYISzelefHJuOvejze9j/B7tCZKuc7Z1ZcWE3OXgSD44i7BechdUPHY/eAawEaDk3mGKt6iMgfWF8dt4WimcT9EoE99ICEsspmgHMkkjVQsQrwYhHz2aGX5mx5vBKUvdhg9Qirpiyojr0aBHHgTs3UX2C9LlUUIiLxV8uOwmci4eYgdCqMmtyaX0bRzFPDNpq0V5Nzz1A08+q4LWFEm0B1pX9bkOT+bbn2CHw4Tu5ip2QcUOfBKAXk2KFqnSntrxpFxtb1VClia+xNIMc/f/jzyhyKZv4yZnNOcZUxnxl8RM5VN2AHko3NZI5K8oFH2jOryQ01EM/DHYOOpJilwKqvAI7/cqNZmBFTnz+wfrd4H0Uzo9YTiN6ubAY49irIV2qcWG757NAng9wsH/vMKEiH6s7ZeDUiKguqY6+q0c/i/KnPgY7snmXqxCOnGse3ALTRDziqYYZtx8vgHG/HvkmlpaUGwtpz87QhyRBH6u0JWyPUS7xhHvD3V1PjMRjjHw4ODRzBftJTXILzYJgCcuxQtc4ce9UwzUO44smKGmxhmo9JkFNctSb7FEUznd3JzsBqXiZaNRlftFvwnlmYid+z8/4WT5JmAUZS/VZ2IDQxPZ+imf/O32OeAMpmgGOvshQmuEzOnaLEPjNKDnJnjM1zM4whKAuqY68GmfVp8TC2L+lpyl7lVCN3OUCb9oKjGmbYWtfYjCdXeUWn9dqryufgHNcG6nzBwrxxMJxN463R87/j6kAkS2RNB4Dz3pHMdBJ1UUCOHY69KiSjKkWEFcL0/a8Tt1E08+vGPDnRUe63M7Aq08dwbis7Sg7C+Nj/KnThjGFoqKkBDbwB4OB4Ns5hYJ2kxOwoOledU1w1LaOAopnuQ9O4KJSGJxDKZoBjrwKX+Mvk6/tjvrVqh04+CgGuc4NSOOqgRkZlQXXsVTX6WZxfuBXEeMhtyAM/4wdQsa7NfQugjevqqIZJtj04YB1FM1sOFOq1V5XVzfkuqPCFW3lBCK39CcT410exMJvSDtwqBr7qSxUcnGwNFJBjh6p15uyvaqBuOBZZuPMERTPPjkhvbm428J1zBlaLhKJVk9MS0Ii7YLTdPLy1Lb0nGJf0BAjxN8E9WP5o3grReVKigMfjySkovqNPEl4yF/y9o0+SMZPVUR8lonPG6sbBCHtdarEtW7VDpb5MdnJvUAfeurtMOSeZpYDyuqSxuyTFlbW3+7xhC7SJohnDChWhDGtqQHE3gjyf2W9WNfDXwVENEpKEwyUs237UsVdJkFMzDO5kO0KoaCc780mNQ2kJZrUDIdb9R2qcZmycgrIUkGOHY68KSaZKEWGFMH2vqm3s4JuFO2vktuJwqyZzE4hR9yGP72KwXoOTg8BF79ALwVakCQYyHo8nI7dQPLHmUoyteTv2qhIz+VK6cwpMO4a0g7/mg3YcSQY47hjknI1XYoBfHnehDh8rmJsJ6nArzczedjy7qCIjtzC7qELvTZC+K/b77uZt444q6IXgh2Ikv+BN0a1jWz8chqnBHr+/yjAApyKmwD9nZVE0M35drmOvBk0kvF72SPDBNaZOy3M28ML34cOxYzL0SO+2QdCoYNOG5QYrVevM2V+1KUcDgNYXc3dTNBO7OtfZXw0AtTU24afJqQPZ6XVBupHd0ZS+4CLPHYNKDra27gy1rbRQf3LsVXUaES/BTREQQnXn2R2kFZ8TWCaf8DioA1YK5zCwIcYVV9a268Vw6zX8h9t7J6YeKuFMULmjBx6Pt9ugVIpmmGwCrrYNdSKMKm0dCyI9502/D4eB/qX6rsI6+6sGSCeq0s/nz9K9bLdjr4poE8AEfJpmycem7FVu8XTqn0DRDqw0MhMLYKdDoim5wcqxV4XsU6WIsEKYvhdX1k7dDPfx7uufvHE/rJTrWuF2NogskguhJk96CkZJ95XwV+8Me/tEqDXxSYtQjQSwqvbqij3F3AQ9p7hKbo4uoJXyMUuNQAQww/Z1tc/B9eKPTE07EEJpg3yqFIOObXLmHIalRXnk55uvcod7txeUUzTTqV9yXWOzYTSciiwFzuSAVMf9n6exzsC6MwuEO4kz4i7ECx/lEFkvBfBhBPeqXAjBOiHDmVbpJSDJ8tyR4MZa4bRKVzNYO7CjvlX/NTIT09VcBBSWY4eqdebsr0aAdIi6aH66rDxrMXZIUoRmJCYINbk8n51ku2PQ9D+D/yT+T3mzdOKTUHf7RH4N51kXBVTtVf4EXdcFPHa1KDZlV+E5Axavrl6EduHT+0CMY69BF0uE2qG9Y9yMfEg71NwE9biFc+1AnJJqoYMF6iD5IaCXZlM08+OSbIecBCjg8aCh7ZE7xnNss0F7FSsC/lgw3wJKjmoYYowzrTJENssqeb3ol3vg23FwtfEPB8YOL+I4pw8I8UqOHY69KiSwKkWEFcLx3by1aR5CONKVQJ+EmoynDvgEozsGpian9rLNKM8qsHvh2KtRdTkBtCIVhF57laIZyTm6gH5er/f5kZsomhmXlifIcl4lKDC5B0w7No8QaodEUZmktASEjyqs/E9rCeXlntZyzlMrBZRHflV7ta6xuZM7maKZbfnOuNRKVVNPPqd63g0DDdqraQmwpzr0dlCxvA0sJo5q6GeJsmpo+S6Yh6Af67CuwR4J7mn8w4HJcyQFtMNxfEBIWOTYoWqdOfurhDgQUmDMD4vmIYQUwQKHrJ8m8y3Sxf9gR0z3lSgtXv3UVkpfKD//3cChHo4tEbRX+X5rZmw5BjHl+yRl5pc7p3/VBWfPHBDmkZ08zU0GJ+UeDxrWAYAcXafenFNCngLKI7/AXsWn5VMPnV2xp3jFnuLUQyUTfEGMHxq4Lruo0pF8eTLrydk9C7ljvFOeNaga4Ex1B6hGws3C8zt6sHDKKquGFnvV/A6twwU/CpzMAsGOu9FTX21cOxBCo+8HOI7jAz/iGn/xm+XywDj2Ko8YvkdViggrhOO7M7Dalqutmsw3VjG66/rBoMn9U7jO2tyEht0BJQ+utm1PQwIxUvaqMxExxe71sWjAdXDo8UhK67RD1xbQiUxQB2dGbooNUFn52yGwV5Vf5S64msYxwgBUngB7tf9V5aeO6XXww1IKf1mW9IwwwhHurrJqaLFXEULFlbUfzdhB0cx/5+927omY5VDLkWBP7srWD4deoEk0O+k6V+AclddLPMnyrbNc/2xV68zZX/UnWGS8ERlYj5Vd7Ow72TVlc4EzsJISnFZN5ntJ5aCDEevzveSOQcc2c8nCh7z1MMIOppz1ciFldL4rx1+VnI5LzkuIaJxO3MOoOF67ccd45/+NnXaIV3OUu4vDxy/9p3IpJ1eVAsqSLKkRComSyqKKg1NASAHf/s/5nQsN2qtjH4bvxf4lQrDOux4KKKuGRlFvaPLgA/M7jp3T07hTVoYCviPB3sUfGbRXWz49aO7bbAN6Pz0yeEVycuss158Kjr3qTw+EVCkirBCO70QG1jXZpyia6Rq/vqnZFx00HAkV+D7JaTKLCR4r8bmU+BvRxZJWDPn27ZKPYf7BfAfLgWkJrWWcJ50UwOwoOlfNX5FZsadY7xSciMbpxD28iif+AJtI7ivPHd/v0evCFFbZO4FGOMcNTAuFsiQr6IVklsZJvGmswxcAHvZXf43cMbXLvmTtVV3DftlRUI3Ya1BdVfiSKRA9U1YNjaK+8XAJRTMPx61v9ngDgXR4t5GWgHyq4Y27sex0kRHtWN8fH+1BeetbSaVLv1qrOU8sBeRmuarWmbO/GokyRGRgfW9KJkUzI1IORyIFLeuznCZDg9zCXkM1GnIbTDJGdkaelpgQXG5dFRp4PeT6Rmqo5fyMUkCSHQbUx0AVoyiHbz2fzek1cIno1B5Qh7j/Qw014UudAPVM4WS7pEWqnKhxEh+gvoViM3jYX/wRcsc0jX4IZuTch0BjdzJGgnbMelVjcaeYHAWUB3mNkc9+XALes/us2C/XipOugwJYFxJuQe6Y85lzjGjHjsmgHWMeRB5nV0YH4ZWLSk6rkIbdRMdeVSZseOYqD6xa5hDHy6opmrm1F3OywpkCkhQSOU0WzkJKDyN3WxhJZ/y5tXk8Oo9+ENKHtIO/jrHaSh0jT5LsUFYfyXmJchUtGmcE+zCrk7MMRNp3VQ959Ww+rO8PFRd9GGb0CFZ3OM9h2UUVK3Ycvb13orJRqpDrSD4BJvqGfa9PNTzJfXQP+1P/BFV2TCaASWSDUB7kBVogeXm7qdlzf2wKRTNb88oim5bkeo8nRe6Y+rnvGjmYM7YLaEfmBHIIOZCQ5LTKsVclJEN1x1miTtglKayR39aLST1Uwj/9yHlx5KYpOcVV3y7aR9HM679uySmu4gqEHZ2C0CE5TYZjvQLjc+GHMJJyQQia6lGrD2FfuqB8EHoT8k1KskNBfQSTEopmbu+dmHqoxMAR4pCnHfEO8IPgDe/IhlHlWpE7o+X1wuq4cz2PIxS5B6wduk7LCxTEsVfJcKNlUg5yrmvYv1jCOkSoKiaDSQRD0fVdkIx8tiWvjKKZ+2NTnDtWJOUIHwnGkyVd2lGwERQq/iZUd54kPhEPS3Ja5dirEnLh2KuYKJzxmV1UkZFbuOHAmdt6SS+T44VAhbFYcqVQgvROkgYKyGmydNVJ3WE8jbsBJf2IBt4Az9y/AddKV3FS9VBAjh2c+uCVHWVzVDBHF786s3Z1nvhm5J6Ngy+uH4q3ktDgW1FDNVsRz9cl5yI4EPGAa505hzqRdZaQ1A5du0yO5OskuWxxb+zV7OC/e7ZsIXGGLxYOmvikOMdJMUAB7ruAp1XLdxeJR3suRSz8fVbsp2iGXpptoGmniiwFvF58iwQ+HCd3yRYTZ8x/F3SK+U6c46SYoYDkh8OxVyVI6tirAqJg0ckuquCGUfEDnpSL07kU8cgraMV51UgBOU2Wrt5Yx0aVxGZq/E1o+oswwg64Fv5KTt+lATmp0hTQyA5dc3ROa7gHR32kqc+ltpijLDtyV7Ch8OJvApdjLblccb/DCHhXdt5foZjje6yVRgSeJLVDly44kk+ADS2uDdir3f3bohOZWsHO+6vzpdBKKz3lsGqoTqtwABs8v9pXVHlffzgMPGPLMefYmh5iq5X1fSC8OLBC3A2oLE+pAneQraKQ/cqUHna+HUoU058n+eFw7FUJQjr2qoAoWgZWHO2dm16LH5xph4Cqhl/lNFkW4LkC9kBX7NUobVDr5EM8iZcF4WTIUkAjO3TN0QXq4xxPkKU+l9Eyh2hlx4ntiNtQEi/N8IV/fDdQigXvtaoGB9Z5MEeBVnbw4CicxHEkn0cnco8+afdsHFxWWuLF1+1ir0GVJ/wa4C/WtGgTHE/AnvnO5Dgzcj9ymX7BqqFqryooi/NdMM0EH4AW7Sg/ddwbdyN8BQbdgi6cbQXOV42WpR9Qh3U/Q+FZr8Cz+BPTWt950k0ByQ+HY69K0NGxVwVE0TKwCuYZ4lfHXhVQ1fCrnCbLAsSDKd5QFYyqzjgrSzWtGRrZoctelXTIpBWhyC7nx46yPJhG4H/HtwgJg4WfDfXuC1nsHDcQ0sjsux87eMC4U5F44yj10Fm84innGYFX1XnUSYGWQZ7lRd0FhCflcTei+ossrJYywteDq0F9RnZGegNE6cQxAotjdijbq842gOWC0SL5rHak9GW/F8M6sNdDWgr4YYIT8VLOkk+givPt8COQ2Re5D4eqdeb4BzZL+lCvr2VgFRuoghTHXiUlBnKaLA2fP9rOeEliYBWsHUpDcVJlKaCRHf+/vTOBi6rq+/g9w7ArIAiKIpJrmAsuKO5pCppar0uW5oKVlkvl8wDP26MGmpqmomb1uqQhpVSaS2m5JFou4JKWmksaamyKiIIoO3Pfj/7reJ0Fhplh5g7z49PHzpx7lv/9/u5y/vdsVfJXcbPoxF3ZgcfkoIufRnnFuItfaSz/S3cEObRocFTG1oDjj8lhQH5kMZ7AP52lj7S4k/pgM9UYN/Gj4AebcEjfEbw6ilzZ/UGyT/tpeXHwlAgYRIDkqNhfVWtEaf7Em8Ig9pJMmnfHrv99cLXHuInrh4iJcx8GBksyPAzufVdc1OzvZHBW1emY4Pejh9XjhcFffZyHHjv8qGeo6b/xYJWVwrruZC1GajZENGO0ZENUFQjoKQf81SowNSLpIzn4pV5S8KBdzpsgtM9NaZGY8NKjBsecOkbUiaw6CTySQ2cSHDATgce0+OuoOLvOg+ufNiter9EiP7BQXNnj0Q2CrzmmVonkgL9qaq4GlvfY3UH70tMrIzbwwV3Ar//CPPGzZx/dF7QUiIF1IptOAo/JIUklX39106ZNvXv39vDwcHFxadu27QcffFBSUiKxvKLgL7/8MmLECB8fH0dHx4CAgGnTpmVlZVWUQXKsUiKStDYRxINVVjLrupO1GPnPt8PHDqFD9TEcxv7QUw74q8aC1i//33KoDV8sLxdpD8kYN3FVD/Hw8gc7EFBz5EGT/WHDnbdI9KsIqfQhoOfdoU9RSGMkAXUtTm14dAvEuInfvvn3lsVlJQ9GIvC7Ay1yI7nryE5ypObcazHzB82OUz1j0L+qg26Vo9XvDunaB3QvbH5FTPr40SYLS558cI9g3coqk9Yrg7oc/2Sq1DuzzHjgt99+WxAEpVIZGho6bNgwDw8PQRB69OhRUFDwj+U6/79582alUikIQnBw8MiRI5s0aSIIQr169S5frnDVr3/Kq5TIPwlt5f906eBDoEz01nUny8Q8WzNDTzkqWDZDs2mCVojBVxHJoUqc/+iLOC9rwwvqrfAYN3Hfew+O885YnhgBUxDQ8+4wRVUooxIC6lrQNf/3aPmHAyCXtBT3RovzG/59m9B3HBo5jK85ldCt8mEuh3Qud1W3PcObosrcdWTgcjw4TrcG+aIfdvh7uUr+BWdhgLhpwoN7hG4KvDt0IDUm+jE5JAVV6p1ZwF/dtm2bIAi1atU6efIkmZqdnd2mTRtBECIiKtnpKCMjw8XFRRCE1atXU96ysrIxY8aQ+6qiwWCS89cMVkpEM0vNjqFLx5gPgVjIzoRXiK472YRVoCj9Cegvh7RdknjhRrMZFe1mrL8BSCklUIkcf+z+py3u8ajBQfnR7JByNFG4EjlMVAuK0YfAY1pIr/Yd/3p4Uzxccowa5fN8xfWDH90g0sT61IQ0ehB4TI5/0ldpGE7j/90Jf/Ufcsb+/5Ec0qudwrve+Xsp4Bi3B2vOSzdZoGqlWYw1BPkfEHgkx+M8KvXOLOCvBgcHC4Iwb948qamHDh0SBMHR0TE3N1carxaOiooSBKFfv37S+Pz8fHd3d0EQdu/eLY3XGq6UiNZcNTiSXzrSBnfFHwKxwGn1XQ9cjuqrAiXrT8BgOaR3E62SSv+m36l8CIn+5tlaykrkoIYFfTjXnLOHofKmvlwqkcPU1aG8Cgg80kKzeU0x1Nf6oEU+/5GzSiVqZqmgJhzSg8AjOSSJ4a9KYJg1+LccahNJeF8rfb6hF0fcIC2Dd/DuMKlcWu8OOe5nk56eLjz8u3LlihqBRo0aCYKQkJCgFi/92axZM0EQPvvsM2mkKIpjx44VBGHSpElq8Zo/4a+qMdF66VT8YMVnPzWGJvypVQ4Tlo+iqkQAclQJV3UnrkgOaZtbGq5um2y4/IrksGEsFjn1R1poXdcALXLzqvJIDkm9FTer1GaOYNiahJyxQZJD+0QSjDUwlm6V82u9O+Tor+7YsUMQBE9PT81THDp0qCAIUVFRmoco5u7du+TrnjlzRi3Nhx9+SEOC1eI1f8JfVWOi9dKpYD4eHqNqAE37U6scpq0CpelPAHLoz8oMKXXKoemgasaYwT4bq0KnHDbGQQ6nW5EW0ntBGpaD3TXUBq1yVOyvYtha9V0LWuV4UJ3m7aAZU31m2WrJuuSo1Dsz93jgFStWCIIQFBSkqdRbb70lCMKIESM0D1HMmTNnyF/VHDO8detWQRDq1q2rNW9RUVHeP39paWmCINy5c6ccfw8JlJaW3rx5s7S0VI1Has6906m3Nf9LzbmnlhI/TUhAlxwmrAJF6U8AcujPygwpdcmhSpxffmChugEHFj6Ix1+1EdAlR7VViIJ1EtCpxcMxkI/dHZoxOkvFAQMJaJWjglVCWsz8AS0rA1nrkU2rHOXl5Xhx6AHP9El0yXHnzh1BEPLy8rT6caIomttfnT9/viAI3bt31zRoxowZgiCEhoZqHqKYI0eOkL9aWlqqlmbv3r2CIDg4OKjF08+YmBjKyP+9cuVKNv4eEsjKyvrzzz+zsrLAQw4EIIccVOA2QA6OQg4ByCEHFbgNkIOjsHhAlxb3d86690O0mnn3foi+v3OWWiR+mpCALjnOpqQf+v2a5n9nU9JNWDuKUiOgSw61ZPhpHgK65Lhy5Qr8VRH9qxV8IdH1qaOCLDhUfQQgR/WxNaBkyGEAtOrLAjmqj60BJUMOA6BVUxZoUU1gDSsWchjGrZpyQY5qAmtYsbrkkF3/qkXGA0s7XSsdIS1NbAthXUPJbeHcZXiOkENWokAOyCErArIyBneHfOSAFvLRooIdO2RlpO0Yg7tDVlrrkqNS78zc44G/++47QRC8vLw08dF6S5GRkZqHKIZORhAEXestderUSVdeHl8pEZ5MLy7OAAAgAElEQVTSRgK6Lh0bOX25nSbkkJUikANyyIqArIzB3SEfOaCFfLSAvyorLSCHtchRqXdmbn+VljsSBAH72cjkGsJ7TiZCkBmQA3LIioCsjMHdATlkRUA+xuDWkI8WcJBkpQXksBY5ZOeviqIYHBwsCMK8efOkEA8dOiQIgqOjo+bav9JkUVFRgiD069dPGpmfn+/h4SEIwu7du6XxWsO5ubmCIKSlpf2zYLCt///OnTtXrly5c+eOrYOQx/lDDnno8LcVkANyyIqArIzB3SEfOaCFfLTIy8uDHJBDVgRkZYyuu4O6MyvwAc3dvyqK4rZt2wRBqFWr1smTJ8mlvHXrVps2bQRBiIiI4E7m1q1bW7Zs2bdvXx4jimJGRoaLi4sgCGvWrKH4srKysWPH0uarKpVKmlhrmHfw8rWCEQABEAABEAABEAABEAABEAABELAUgbS0NK2+mwX2syE7aKtVe3v7AQMGDB8+nHpHu3fvXlBQwA2Ni4sTBKFx48Y8hgKbNm2ys7MTBKFLly4vvvhikyZNBEGoV6/e5cuX1VJq/VleXp6Wlpabmyur7w0WNIYceHQ4W1ACadWQQ0rD4mHIYXEJpAZADikNi4chh8Ul4AZAC45CDgHIIQcVuA2Qg6OQQ0CXHLm5uWlpaeXl5Vp9N4v5q6Iofv3117169XJzc3N2dm7duvXChQuLi4ulVuryV0VR/OWXX4YNG+bt7e3g4NC4ceOpU6feuHFDmhdh/QlUOmRc/6KQ0ngCkMN4hiYsAXKYEKbxRUEO4xmasATIYUKYRhYFLYwEaNrskMO0PI0sDXIYCdC02Q2WwwLjgU175ijNSAIGXzpG1ovsWglADq1YLBUJOSxFXmu9kEMrFktFQg5LkdesF1poMrFgDOSwIHzNqiGHJhMLxhgsB/xVC6omi6oNvnRkYX2NMwJyyEpSyAE5ZEVAVsbg7pCPHNBCPlqIogg5IIesCMjKGIPvDvirstLRAsYUFRXFxMQUFRVZoG5UqUEAcmggsWQE5LAkfY26IYcGEktGQA5L0n+8bmjxOA8L/4IcFhbg8eohx+M8LPzLYDngr1pYOVQPAiAAAiAAAiAAAiAAAiAAAiCglQD8Va1YEAkCIAACIAACIAACIAACIAACIGBhAvBXLSwAqgcBEAABEAABEAABEAABEAABENBKAP6qViyIBAEQAAEQAAEQAAEQAAEQAAEQsDAB+KsWFgDVgwAIgAAIgAAIgAAIgAAIgAAIaCUAf1UrFkSCAAiAAAiAAAiAAAiAAAiAAAhYmAD8VQsLgOpBAARAAARAAARAQEqgtLQ0IyNDGoMwCIAACNgsAfirNis9ThwEQAAEQAAEQEB2BNLT05966qnJkydnZWXJzjgYBAIgAAJmJwB/1ezIq7/C3Nzc6Ojo48ePV39VqEEnAZVKxY+VlZWVlpZKf/IwAiAAAiAgEwL01JI+u2RimK2ZsXnzZk9PTx8fn9jY2Pv379va6cvzfKUvcXlaaCNWoYkrE6GlbwoztHLhr8pEd5OZUVBQMHr0aMbYf//734KCApOVi4IMIpCUlCTNN3Xq1Lt370pjEAYBEAABORAoKyvTaoa0UaI1ASJNTqCwsPCTTz7x8fEJCAiIj4+HBCYnbFiB6enpmzdvFkURihgG0PhcaOIaz9C0JZitlQt/1bTCyaK0hISEUaNGUf9qeXk5nq2WUiUmJoYxNm/ePFEUc3JyunTpwhhbsmSJpexBvdJGBoWlMeADAjZLgPcdxcfHz5o165VXXlmwYMGpU6cICG4Tc14YRPvWrVvvvvuus7Nz+/btd+7caU4DUJcmAZVKlZOTwx7+/fjjj6IoUuNKMyViqpsAmrjVTVj/8s3ZyoW/qr8uVpCSN8Hv3bsniuKPP/64cuXKoqIiuKwWEW/dunWMMaVSuXDhwvr167u4uMyePfvmzZsWMQaV8u6j1NTUrKys1NRUMLEsAa6IZc1A7dTyzsnJefrpp6lFTv/6+Pj897//JT5wWc12nfBvB9nZ2W+88Ya9vf3AgQMPHz5sNgNQkS4Cs2bNYow5Ozv/8ccfoijiCaYLVDXFo4lbTWANLtacrVz4qwbLJNOM/AH6yy+/KJXKBg0a0PAVmZpbc82iJuCaNWsYYwqFwtvb+4svvqCZSPgua37Z+X0RGxvbunXrgIAAf3//FStWZGZmmt8Y1Mh7J+7cuXPo0KEdO3bcuHGDvqzh7rDI5fHnn3+2atXK0dHx1Vdf/e233w4dOrRmzRoPDw+aWmIRk2yzUnpSqVSqtWvXLlu27Pnnn/fz81MqlRMmTDh//rxtMpHDWfPnUnh4OGOsRYsW1CvA4+VgpC3YwF/laOJaXG66+M3WyoW/anHFTWkA/y4rimJWVtb06dNdXV27deu2b98+U1aDsvQmsGDBAuqpaNSoEblGxcXFeudGQhMTeOWVVxhjTk5OgYGBpMvEiRPPnTtn4mpQnH4Ejh8/3qZNm1q1alH7b/LkyfT+Q1eefvxMk0qlUpWUlLz22muMsdmzZ9NXAyr6pZdesre379Chw9WrV01TGUqpkABd+Tdu3OjcubOrq2uDBg2Cg4ObNGnCGKtVq9a///1vfF+rkJ8pD3K/iBfKY3r27MkYCw0NpUN4XnFE1R1AE7e6CRtQvtlaufBXDVBHplmoqVdYWDhs2LD4+HhRFC9fvjxu3DiFQvH888/zmUgytb4mmpWenh4WFjZgwICQkBDG2IABA6h/lb/2auJJy+6ceGMiLi7Ozc1twoQJJ0+eLC8vX7duXdu2be3t7adMmfLXX3/Jzu6abtCuXbtcXV2VSuXAgQO7d+/u4+PDGBszZgydN1etpmOQxfmlpqZ6enry9jfZ9OKLLzLGhg4dmpiYKAsrbcOIv/76q0OHDvTt4M6dO6IoFhQURERE1K9f38PDY8GCBVixzwwXAj1/8vLy0tPT+WAQURTJX8rJyWnUqBFjbMqUKWQMnldmEAVNXDNArmoV5mzlwl+tqjoySn/79m01a7Kysnr16sUYe/3118k1Onbs2MCBAxUKxWuvvZaSkqKWHj+rg4D01XXx4sWMjIycnJy2bdsyxiZOnEg1oh+pOsjrKjM9PT0nJ2fIkCEhISHZ2dk82ZYtW4KCglxdXWfPnk13k1Q7ngwBUxHgX8dVKlVYWFjbtm03bdpELfIjR45g9KmpOFe1nO+//54xFhERQRlv377duXNnel5dunSJIlNSUrCxSlXBGpB+/fr1jLHw8HC6WWg8TmFh4aJFi7y8vAICAtauXYsvngaArWqWlJQUd3f3fv365ebmSqeqki6nT59WKBSMsdjY2KqWjPR6EkATV09Q5k8mbSmZrZULf9X8QpumxsWLF48ZM+bPP/+UFrdy5UofH5/333+fnrB0aNeuXZ06dXJ2dp45cyY11qWXmjQ7wsYQqJjq0aNH69aty5cL5l9qeY0VZ+fJEKgqgT179lBbPCQkhLyjsod/9NU8Li7O39+/Xr16n3zyCTUNIURVCVc1/dq1a0+fPu3r6/vZZ59RXmoC/vzzzzRIm+IhRFXB6pmePpZRYoK8d+9extg777wjiuLx48fr16/v7Oz87rvv8o875eXlkZGRq1at0rMKJDOAAOkyfPhwxti3337LfSSKz87OnjRpEmOsW7duW7duNaB8ZKkSgV9++aVx48aMsbfffpsy8huHAh9//DE9r0gOfESoEt5KE6OJWyki8yeo+KVc3a1c+KvmV9wENU6ePJmmT3B/dcOGDSdPnnzuuef69OlDFZSXl/Nra8OGDU2aNKlbt+7y5csLCwuxXLAJNHi8CP6uSklJSUxMTEhIOHr0KO9Notfbtm3b6PW2YcMGnjshIWHmzJn8JwImJxAfH+/o6Ojs7MwY++KLL3j5dHfk5+cvWrTIw8OjZcuW5M3yBAiYnEBZWdnIkSMZY88++2zjxo1pZCPdHfRvfHw83SM//fSTdBieyS2x8QLT09NpgVPikJSURFOI4+LiaJU+/vmGEsTGxjLG+PcFG6dXradPTinN6OGvFXpYHTt2jO6OZ5999tChQ9VqBgovKyvbs2ePr6+vUqlctGgRAeFtKlEUT58+3bBhQ1oQ4ddffwUxExJAE9eEME1VFH8cWaqVC3/VVFKaqZzi4uJnnnmGMTZ27NjffvuNav3yyy8ZY0888USrVq2oScEX9aHHa0FBwbJly7y8vJo2bZqQkGAmW22mGn4br1q16oknnqAmhUKhmDhxIt9JmYRYvnw5Y8zNze3IkSOiKH7yySf+/v6MsXPnzklfhDZDrlpOlH8m4KUvWrSIpkdGRkbm5+fzeGJ+/fr1yMhIZ2fnnj17/vDDD/woAiYnUFZWtnHjRi8vL8ZYQEBAXl4e/3bGr/93332X7pFr167xLiaTW2LLBR49etTFxSU8PDwtLY1zCA0NZYzZ2dm1bdt2x44dPF4Uxc8++8zHx6dnz57886j0KMLGEKDPNPziF0Xx7bffZoyNGjWKiuWH6C3Tvn17Pz8/xlj//v0x694Y8mp5SQi1yOLi4vXr1zs5OdWpU0f6lZkSX79+vUWLFt26dWOM9ejRgyulVgh+VokAmrhVwmW2xHJo5cJfNZvcJqgoJSWlWbNmCoUiIiKClgGgQvPz82naKmPszTffVKuJHqPZ2dkzZsxwdXXt3Lnz9u3b1dLgp8EE+HuO2hn+/v5RUVFz5szp378/Y6xXr14nTpyQ9hRFRkZSu7Bly5aMMX9/fyyFZTB8zYx0tefn5x89epQ/YUVRfOuttxhjLVu2TE5O1sx16dKlcePGMcbeffddNDs0+ZgwpqCgYOXKlXZ2doyxTz/9VFoyv5VGjRrFGGvcuLF0rVppSoT1J6B5PW/ZsqVJkyZ16tR57733aEUfURRPnDjRoEEDxtjIkSN54SUlJQsWLGjYsKG/v//Bgwd5PAJGEuCXumY558+fd3V1ld4dKpWKP8oaNmwYHh7eqVOn6dOna+ZFTJUIcBUIb0lJSW5u7vXr16WF5Ofnv//++4yxpk2b7t+/XxRF3hkQHx9fv379tLS0GTNmYBEsKTSDw2jiGoyuWjPyO8WyrVz4q9WqsikL379/f61atTw9PZcsWUIPR2qI0PjeS5cuNW/enAbaqT1wuREpKSkTJkxgjC1YsIBHImAYAX4DUxdQRESEg4PD8OHDjx07RgWuW7fO09PTwcGhX79+1I/B2xz/+te/AgICmjVrNnr0aN5eNMwM5NIkkJWV1bBhQ19fX/pSQAlyc3NpJGpYWNjly5c1cx06dOjDDz/UjEeMwQToHuH+Er/+b9++HR0dTUNC6H7hdxNPQ0+zkydPGly7jWe8d+/epEmTTp8+rcmhrKwsLi7Oz8/P19d35cqVJSUloigWFhZu3LjR3t6eVmmeM2fO0qVLu3TpQj3hZ86c0SwHMYYR4Bf58ePHly5d+sYbb0RHR3/33XdUWnFxMQ0xaNSo0ffffy8dgBAbG1u7du3ffvtN+rXaMBtsPNepU6fI7SwtLaUH1B9//DFw4MDWrVvXrl170qRJ5JrSoZs3b06ZMoUx1rZt299//53Q7d27t127dn379rVxkiY8fTRxTQjTJEXx97JMWrnwV00ia7UXQtO6HB0dFy9eTJXRO48PfczLy/v999/d3d0ZYx988IEug44dOyadwqcrGeJ1Ebhx48b+/ftpHCO/mXft2uXh4REaGkpraVJzsGnTpowxanaPHTuWltbkn2YzMzMxuE4XZCPj7969O3DgQMZYWFgYKULNjpSUFBqG8Oqrr964cYPXwh0qHoOA8QT4oykjI+Py5ctZWVl011DJ6enp48ePZ4z17duXxv3yu4kyZmdn4wYxWIXz58/7+fm5uLjExcVx74hKo6v97t27CxcudHd3DwwM3Lx5M6/o22+/bdGiBc1oYIz5+fmFh4dLV+/jKREwjAC/zhctWkT9qJz2qFGjcnJyRFG8ePHi6NGjGWOOjo6rV68+fvx4dnZ2TExMw4YNQ0JCbt68aVjVyEUE1qxZwxiLioriQPbu3evm5kafZmilAy8vL5rLQ3pdvXqV1sHy9fWdPn3666+/Xr9+fXt7+40bN/JCEDCGAJq4xtAzbV7ZtnLhr5pW6OoqjdbDcHZ2njNnDr3SpAvMjh49OjAwMD8//6uvvqKXH9YPrA4ltm7dOmjQIIVCMWTIEF5+aWnpzJkzmzRpcuXKFVEU7969GxsbW6dOHTc3t8TExFOnTjVs2NDZ2Zm/Hak3g2dHwLQEqHV+9erV3r17M8YmTJggHW5w5MiRJ598kjEWHR0tdZ9MawNKIxXy8/OnTp0aFBTk6Ojo7+/fuXPnH3/88d69e8Tn4sWLNBV/9OjRNKmYN+V5ACQNILBjxw5HR8d69eotXbqUaBcUFEiRksuamZn573//28HBoXv37tSbRHVlZGQkJycnJCTs27fvwoULBhiALFICd+7coQ1spR8O/vOf/zDGunTpEh8ff+zYsa+//vqpp55ijA0fPjwzM1MUxQsXLoSHh3NXtlatWvT1k28vJK0C4SoRiI+Pd3Z2dnd3X7lypSiKqamp7du3b9OmzZo1a0pKSpKTk2nJKy8vr9TUVD6XJysra+jQoVyRunXrbtu2rUr1InEFBNDErQCOOQ/JuZULf9WcV4JRdZEv6unp+eGHH/JtqXJzc7t27coYe+211zIyMkRRnD9/PmOsbt26x48fN6o+ZH6cQGRkZK1atezt7SdOnBgXFyedr3LixAlq8JWUlKxdu9bd3b1Zs2bUO3T9+vW+ffsyxurXr79ixYrHi8QvExDgrUDeTUqBpKSkwMBAmpIq7SDavHmzj4+Pg4PDmjVraCy9CYxAERoELl68SEMMAgICgoKCaGcId3f3+fPn05OqvLw8OTm5VatWjLHIyEgqQOpWaRSJiMoJ0EK+rVq1+uqrryj1rl27QkJCjh49qpn54sWLY8aMYYyNGDGCz6Ln95FmesRUlUBGRgatHyvdw3Pz5s1OTk7du3fnKyaKopiQkMAY8/Hx4QODRVFcvnz5+PHjAwICBg8eHBkZif1vq8pfmp5GyNOA3o8++ogx1qBBg59++unUqVMODg7S5ZREUXzhhRcYY+3ataPhHvwr848//rhq1aqEhAT6PC0tH2EjCaCJayRA47PLvJULf9V4ic1XAk1radq0KY1COX/+fIMGDZycnGbNmiUdIzRx4kTGWJs2bWignfnsq6E1lZSUDB48mDH2P//zPwcOHNB6lvRWy8rKatmy5ZNPPnn16lVRFGm1mLfeesvBwcHR0ZExtnPnTq3ZEVlVAuTY0L986Kmat7NlyxYfHx87O7tVq1ZJXdMVK1Y4OTkxxrAnRFWx60rPJaAE58+fb926tbu7++LFi4uKilQq1Y0bNyZOnOjg4ODl5bVo0SL63FNaWrpjxw5vb29XV9cKZjHoqhTxagRoMYz+/fsfPnyYDhUUFDz33HOMseeee07r+Or9+/c3b97cyclp6tSpKSkpfLakWsn4aRiB+/fv04CO+fPn8xLGjx/v6uoq/aD89ddfK5XKpk2bLlmyhJ5U0kdZfn4+/yrHC0GgSgRohLyzs/P69etFUbx9+/Y777zDGGvfvv3w4cNDQ0OptPKHf3QXdOzYkTE2dOhQOoS136oE3LDEaOIaxs34XFbRyoW/arzQ5itBpVINGzaMMdazZ8/o6Gh7e3tfX98VK1bQk1SlUlGrsbi4OCwsjDE2YMAALOdjpDx3796llWNfeeUVGh1ELzPqhVA9/ONVLF68mDFGTRP+envppZeef/75t99+u02bNnwsN8+CQJUISGdWkARXr161t7fnHXRcFyr2o48+UigU1Gsh9akmT5788ssvV6lqJNZKYM2aNRQvbWEvW7aMMcY3FibyJSUlUVFRjo6OrVq14l8KioqK1q1bxxirV68e9btqrQWRFRMoLi6mBclpqzNKTI+gS5cuPf300zQGR+u0bVpLpm7dujExMdnZ2RVXhKP6E6B1fT/44AMHB4ewsDBadS8/P/+JJ54IDAzkgz5o+dl27dpt2bKFCr916xYN5KZuPbW3jP4GICUR4CPkly1bxvuoMzIyaJKwu7v7wIEDRVHknaj0vMrIyPD29pbOdJU+4sC2OgigiVsdVCst01paufBXK5VSXgmKiopat25NkyiaN2/+zTffkH38SUofYtPS0po1a8YY4wnkdRrWY01ycrKXl1eXLl2kazJz2mrnQZumSJdf3r9/v5ub26JFiwoKCtQS42dVCWidWfHTTz/R7UAbC3NpeIA2R2nXrl1SUhIf6yj1XatqBtITgXv37tEEVO6XUsO6uLg4KChIoVDQorIkBD2XsrKyBgwYwBiT7saRm5u7dOlS6dhIEK4SAdoEgjH2zDPPKBQKxtjHH39Mn9UI++HDh2n3rNmzZ0unbdPyb8uXL2/UqBEts8RHEVfJACSugADfKIjexVlZWZ6env7+/jRnm1YdCwsLk24XtGnTpgkTJvAnWAWF41ClBDRHyPPO6gsXLtATjO8FzZlTmuTkZHq5fPLJJ5VWhAQmIYAmrkkwVqkQa2nlwl+tkqyySJydne3l5cUYGzRoEI345a1wso8/amnoiyyMtlojpk+fzhijnU6kY0pFUTx48OA333wTHR29f/9+ms2yadMme3v7p59+evfu3aIofvnll926datXrx6tNGi1DGRhuNaZFXTlr127lloVtLcqb45Q4PLlyy4uLrQULd+NQBanZM1GFBYW0hQvcpDoUVNeXk4ua3BwsIeHxx9//MFXK+GBxMRE2nY4IyND7cFlzTwsZvu+fftcXV1pn7Nr167NmTOH7gV6BPEuo02bNnl7e9vb23/66af0HOO3yYQJE4KDg6Ojo8PDwy12GjWlYn5Jc89HFEXavSkwMJCm7QwZMsTd3f2bb77p0aMHYyw8PPz8+fMcwKVLl3x9fUNDQ8mh5fEIGEBAc4S8VBeVSpWUlNSuXTvG2LRp06h8noACfA3LGzducHENsARZ9CeAJq7+rEyS0lpaufBXTSK3uQs5c+YMY0yhUMyYMeOvv/7SrB4PVk0mBsSUlZVR79yyZct49tzc3DNnzkyYMMHFxYW2K/Tw8HjmmWcuXrx469at559/ntqL1F9hb2+vtpADLwcBPQlUMLOCX+e03mbdunVpZ0LqPiXf6cyZM9RDzhibPHkyelb1xF5xsuLi4vHjxysUClowiU8GJi+IFmeOjo6mQrhMZWVl6enpDRo0eOKJJ/hCwRVXhKMVEFi+fDljLDAwMD4+npJdu3aN1pV1cnKi1X35xIRly5Y5ODh4e3t/+eWXvJd1w4YNbm5un376aQW14JCeBM6dOzdt2rQdO3ZQej4ZMjMzs0OHDkql8v/+7/9EUaRvCi4uLo6OjjNmzJAuYP7777/369fPw8MDHd16MteVTOsIec2Hf2lp6Xfffeft7e3k5MT336bnFX9qxcbGSnu/ddWIeBMSQBPXhDArLsqKWrnwVyuWUr5Ht2/fzhhzd3dfunQpXy5YvuZarWULFy6k7iCacXfgwIGoqCjyRe3s7J58+Edbt/Xp06egoODs2bPTpk1zcHBo27btoEGDjh07ZrWnLgvDK51ZwZsgtNlAx44dyWXi8Vu2bGnevPkXX3wxcuRI6fw9WZyedRpBLbmDBw8yxiZOnPjGG28wxry9vWmGniiK8fHxjo6OnTp14uuT0Vw+URTz8vLc3d2DgoIKCwt5i9A6MVje6v3797dq1WrPnj1SU86dOxcaGsoYa9q0Kc1i4C5rVFSUQqHw9/efOnXqwYMHZ82a1ahRIz8/P+naP9KiENafwIULF+hL5VNPPTV37lxpxvv379PqPrR4T35+Pn3lCQoKki6CtWfPnoEDB9rb28+YMUOaHeGqEqhghLxmUYWFhatWrVIqlT4+Pmrzp/gYBM1ciKluAmjiVjdhXr61tHLhr3LJrC9A6zQEBAR8/vnnND0S7T+Tq/jbb7+FhIQwxmrXrt2rVy+lUqlQKJRKZdeuXX/++efU1NS7d+9+/PHHzZs3VygUvJcjJSUlNzcXPUjGy6H/zIqSkpK2bdvSio58tvDBgwcDAwP79+9vvCUoQUpApVLdvHmzc+fO/v7+V69eHTFiBGOsQ4cO9Jng119/DQ0NVSgUw4cPP3HiBN8suqioiBruMTExWIpWytPgMF8hiY9jVKlUhw8fbtOmDWOsX79+VDK5rPfu3YuIiPDz86PhObTMFV/7ymAbkFEURdqcibYapu840tkHycnJzs7OjDHaGv3333+ntXzCwsJmzZq1bt26119/nb57vvfee+BpDIGKR8hrdUFzc3NpZdrAwECavIOmlDESmCovmrimIllxOdbSyoW/WrGOsj6qUqlefvll2nZ8x44dWh/Esj4BKzHum2++6dKlC307p70KP/roI/KIiHlubu6rr77KGONNDbztTKWtnjMrLl26JIri1atXeStwzpw5c+fObdmypVKpjIuLM5U9KEdKgHpWP/vssz///POpp55ijA0bNowSfPXVV23atFEqlR06dNi5c2dqampmZuZ//vOfWrVqtWvXDrsXSjEaH1Z74JSUlGzfvr1evXqMsTfeeIPKp7msubm5Bw8eHDVq1GuvvRYZGSkdjGq8GbZcQklJSXh4uLOz89ixY2nrps6dO0sng8yYMYNe1rQO9pEjRwYMGED7nNH30M6dO2/fvt2WGRp/7vqMkOdDb6TVXb9+/ZVXXqFlDqjTW+2ekiZG2DwE0MQ1D2dRFK2ilQt/1WzXQ7VUVFJSQr1/vXv3RsujWhCLokqlys7OXvXwLzk5mU/9ImeV1tiktkhERARfV6aajLGpYqs0s+L06dOiKCYlJbVu3Zq2V2WM8Q33bIqbyU82Nzc3KytLem1Tb96ZM2dcXV0nT54siuLhw4fr1KnDGON7C33++ee0k4pSqfTw8KhduzZjLCuFMSUAAA3nSURBVDg4mIoyuZEoUErg/v37q1atsrOzY4wtWbKEDvE+WGlKhI0nQGAvXrzo5OQ0ZMiQEydOrFmzhlY3mDt3Lu0qd+HChcDAQE9Pz4SEBEqfl5f366+/fv31159++unx48czMzONt8TGS9BzhLxWl/Xy5cuDBg2ij25aE9g4W4ucPpq45sFuFa1c+KvmuRiqsZacnBxfX99vv/22GutA0RIC9NmV/qVmh0qlevrpp+vUqUNDHyVpETSWgP4zK3r16kXb2547d27z5s1vvfXWBx98gF1SjBVAFBMTE5s1a9arV68zZ86ozTtIS0tr165d7dq1qX9706ZNNAxh9erVtJ/htWvXpk+f3qdPnwYNGgwfPnzhwoXG24MS9CRw+/bt2bNnkyLUccfH4MBx1ZNhBcnU+t8IaVRUlIODAy25tHPnzuDgYMbYyJEjf/75Z1EUJ02axBgbN24cFQsVKsBr8CE9R8jze0Fa0ZEjR7p3705iSeMRtiABNHHND1+erVz4q+a/EkxfI3Xxmb5clKibAN/DPS8vb9q0aYyxsWPH0nd03ZlwpMoE9J9ZQXt1VLkCZKiQQHx8PB8J7+3t/frrr9OuqjwTjSxYu3YtxSxdupTS79u3j6cRRfHevXtq7XvpUYSriUBGRgb5SAqFggYgoOPIJKh37NgxdOjQCxcu0MuXOz+JiYmenp4dO3akWk6dOhUREUGrkW3fvv3UqVN0d+zcuRPzt00ihK5C1J42WkfIa34vKC8v54uT6SoZ8eYngCau+ZnTA4ruI5m0cuGvWuQyQKVWTED6krty5QpNsOzSpQvNSrLiE5Or6frPrFBbllOuJ2RNdiUlJTHGHB0de/bsSdtFuru7x8bGnjt3jk7j7Nmz7u7uY8aMoZ9lZWW056GbmxtNA+NNDbUWpDVRsGZbL168OGTIEMaYk5MTDUCw5rORhe2ZmZm1atVijHXt2nXZsmV0YZPLqlKpXnzxRcbYmjVruK3r16+nwfALFy4MCwtjjA0ePJj2YuVpEKhuAlpHyFd3pSgfBKyRgDxbufBXrfFags0WJlBcXHzz5s2NGze2bdvWzs6uf//+hYWFFrap5lZvFTMrai5+8csvv6SFZHfu3Dl37twOHTowxvz8/DZu3JiZmVlQUNCqVSulUnn06FGCkJeXR7sQt2vX7v79+zWYjFWcmkqlOnr0aKNGjRQKBb6pmUqy5OTk7t27Ozo6KhSK8PBw6VLw58+fd3Z2fu655/jAVFEUd+/eTXMjnZ2d7e3tvb299+7daypjUI6eBDRHyEvb5XoWgmQgYAsEZNjKhb9qCxceztGUBPLz89955x3aE8LX1xd9eqaEq0dZ1JtB/1JrA/OH9cBmVBLa7CEkJOTYsWPZ2dkzZ86kdZg7d+587Nix999/397efuPGjXzfmtTU1I4dOzLGpkyZYlTFyGwKAqWlpceOHcNAR1OwfFTGuXPnYmJiqKN18ODBtFGNKIrFxcWTJ09WKpWJiYn0k/Kkpqa+9957fHT9+fPnH5WFkLkIYIS8uUijHismIM9WLvxVK76kYLpFCJSXl8fGxvbu3Ts6OvrIkSMWsQGVYv6wOa8BlUo1fPhwxlhYWFhqaqooiidOnKBxv4yx1q1bM8ZCQ0OlJiUnJ48bN47P65MeQhgEagaB0tLS3bt3169fn0YcvPPOO3Re33//vZ2dXbdu3WgPIeld8PHHH7/wwgtpaWk1g4A1ngVGyFujarDZnATk2cqFv2rOawB11RACZWVld+/e5RPzashZWclpSEdwYf6w2UQrKioivzQ8PJwPdNyyZQttWsgYGzRoUFFRESapmk0RVGRxAnS1JyUljRs3ztnZmTEWHh5+9uxZURRHjBjBGKNBB2Sn9MFlcctt2QCMkLdl9XHuehKQYSsX/qqe2iEZCICAXAjIcGaFXNBUpx3Z2dnu7u6Msejo6Nu3b/OqPv/883nz5vGfCICArRHIzMyMi4tTKBSMsU6dOm3YsOHy5ctubm4vv/xyQUEBPuLI7XrACHm5KQJ7QKBSAvBXK0WEBCAAAjIiIM+ZFTICVJ2mnD17ljGmUChWr16tucYY9kqpTvYoW+4Evv/++549e9rb2zPGJk+eHBYWplAokpKSRFFE56rcxYN9IAAC8iYAf1Xe+sA6EACBxwnIc2bF4zbW5F/bt29njHl5eX333XfSiXnoRKrJquPcKiTAL/7Tp0/HxMTQokpubm6MsZCQEOnqwRUWg4MgAAIgAALaCcBf1c4FsSAAArIlIMOZFbJlVR2Gvf/++4yxwMBA6juqjipQJghYFwHusoqiuH79+iZNmjg4ODDGevfunZuba13nAmtBAARAQG4E4K/KTRHYAwIgAAKyJqBSqV5++WVaE/jChQuythXGgYAlCOzdu3fUqFF9+/bVHDZvCXNQJwiAAAhYNwH4q9atH6wHARAAAfMTKCkp6dq1K2PshRdeuH//vvkNQI0gIE8CvKM1JydHnhbCKhAAARCwOgLwV61OMhgMAiAAApYnkJOTU79+/e3bt1veFFgAAiAAAiAAAiBQcwnAX6252uLMQAAEQKA6CWAL4uqki7JBAARAAARAAAQeEIC/iusABEAABEAABEAABEAABEAABEBAjgTgr8pRFdgEAiAAAiAAAiAAAiAAAiAAAiAAfxXXAAiAAAiAAAiAAAiAAAiAAAiAgBwJwF+VoyqwCQRAAARAAARAAARAAARAAARAAP4qrgEQAAEQAAEQAAEQAAEQAAEQAAE5EoC/KkdVYBMIgAAIgAAIgAAIgAAIgAAIgAD8VVwDIAACIAACIAACIAACIAACIAACciQAf1WOqsAmEAABEAABEAABEAABEAABEAAB+Ku4BkAABEAABEAABEAABEAABEAABORIAP6qHFWBTSAAAiAAAjWPgKDfX+/evUVR7N27tyAIBw4cqHkccEYgAAIgAAIgoD8B+Kv6s0JKEAABEAABEDCcwPjH/8LCwsiBfTx6/IIFC+CvGk4ZOUEABEAABGoWAfirNUtPnA0IgAAIgICVEDhw4AD5q1rt/euvvy5cuHD//n2tRxEJAiAAAiAAAjZCAP6qjQiN0wQBEAABEJAXgYr9VXnZCmtAAARAAARAwEIE4K9aCDyqBQEQAAEQsG0CFfurmvNXx48fLwhCXFzcxYsXR44c6e3t7eLi0qlTp+3btxPIo0ePDhkypG7duk5OTiEhIfv27dMEXFBQsGTJki5duri7uzs6OrZo0SIqKurWrVuaKREDAiAAAiAAAnIgAH9VDirABhAAARAAAZsjYJi/+uabb7q6urZs2fKll17q2rWrIAiMsc2bN2/bts3e3r59+/Yvvvhiu3btBEFQKpWHDh2SYs3IyGjTpo0gCJ6env369Rs6dGjjxo0FQQgICLh27Zo0JcIgAAIgAAIgIBMC8FdlIgTMAAEQAAEQsC0ChvmrgiDMmzdPpVIRrBUrVgiC4OfnV6dOnc8//5wTnD59uiAI/fr14zEqlap79+6CILz66qt3796l+NLS0oiICEEQ+vTpw1MiAAIgAAIgAALyIQB/VT5awBIQAAEQAAEbImCYv9q5c2furIqiWFpa6unpKQjCCy+8IGV369YtQRAcHBxKSkoofteuXYIgBAUFlZaWSlOWl5e3bt1aEISzZ89K4xEGARAAARAAATkQgL8qBxVgAwiAAAiAgM0RMMxfjYmJUSPVsWNHmteqFk9+7PXr1yl+2rRpgiDMnTtXLZkoilOmTBEEYfXq1ZqHEAMCIAACIAACliUAf9Wy/FE7CIAACICAjRIwzF9dt26dGi9amSkxMVEtnuamXr16leKfffZZ2j5H17/z5s1TKwE/QQAEQAAEQMDiBOCvWlwCGAACIAACIGCLBAzzV+Pi4tRgaa4kTAnU/NUBAwYIgtCjR4/xOv62bdumVjJ+ggAIgAAIgIDFCcBftbgEMAAEQAAEQMAWCZjZX504caIgCIsXL7ZF1jhnEAABEAABqyUAf9VqpYPhIAACIAAC1kzAzP7q1q1bBUFQW67JmvnBdhAAARAAAZsgAH/VJmTGSYIACIAACMiNgJn91fLy8uDgYEEQxo8ff/PmTSmN27dvr1y5Um3dYGkChEEABEAABEDAUgTgr1qKPOoFARAAARCwaQJm9ldFUczIyAgKChIEwdXVtVu3bi+99NKwYcOCgoLs7OwEQSgsLLRpPXDyIAACIAACsiQAf1WWssAoEAABEACBmk7A/P6qKIpFRUWrVq3q06ePl5eXUqn08fEJCgqaOnXqnj17ajpvnB8IgAAIgIBVEoC/apWywWgQAAEQAAEQAAEQAAEQAAEQqPEE4K/WeIlxgiAAAiAAAiAAAiAAAiAAAiBglQTgr1qlbDAaBEAABEAABEAABEAABEAABGo8AfirNV5inCAIgAAIgAAIgAAIgAAIgAAIWCUB+KtWKRuMBgEQAAEQAAEQAAEQAAEQAIEaTwD+ao2XGCcIAiAAAiAAAiAAAiAAAiAAAlZJAP6qVcoGo0EABEAABEAABEAABEAABECgxhOAv1rjJcYJggAIgAAIgAAIgAAIgAAIgIBVEoC/apWywWgQAAEQAAEQAAEQAAEQAAEQqPEE4K/WeIlxgiAAAiAAAiAAAiAAAiAAAiBglQTgr1qlbDAaBEAABEAABEAABEAABEAABGo8AfirNV5inCAIgAAIgAAIgAAIgAAIgAAIWCUB+KtWKRuMBgEQAAEQAAEQAAEQAAEQAIEaT+D/AbN0oAW9oXaMAAAAAElFTkSuQmCC;" parent="1" vertex="1">
                    <mxGeometry x="-231.5" y="-550" width="1253" height="332" as="geometry"/>
                </mxCell>
                <mxCell id="MuvZenMTgrjQ6a0WK5JL-46" value="&lt;font style=&quot;font-size: 18px;&quot;&gt;The above division into several windows is not optimal&lt;/font&gt;" style="text;html=1;strokeColor=none;fillColor=none;align=center;verticalAlign=middle;whiteSpace=wrap;rounded=0;" parent="1" vertex="1">
                    <mxGeometry x="120" y="-70" width="310" height="20" as="geometry"/>
                </mxCell>
            </root>
        </mxGraphModel>
    </diagram>
</mxfile>